<svg id="Layer_1" data-name="Layer 1" xmlns="http://www.w3.org/2000/svg" viewBox="0 0 1000 1000"><defs><style>.cls-1{fill:#00af3b;}.cls-2{fill:#fff;}</style></defs><title>DaoPay</title><path class="cls-1" d="M539.3,40C284.9,40,78.6,246.3,78.6,500.7a458.11,458.11,0,0,0,67.4,240h0L0,961.3H539.3C793.7,961.3,1000,755,1000,500.6S793.7,40,539.3,40Z"/><path d="M531.8,159.8s15,104.9,11.2,176c0,0-22.5,18.7-93.6,22.5,0,0-26.2,206,123.6,325.8,0,0,44.9-33.7,78.7-37.5,0,0,59.9,33.7,108.6,138.6,0,0-37.5,41.2-123.6,59.9a85.58,85.58,0,0,1-33.7,0S445.7,762.7,389.5,582.9,352,253.3,352,253.3s7.5-30,33.7-48.7S430.7,171,531.8,159.8Z"/><path class="cls-2" d="M524.3,167.3s15,104.9,11.2,176c0,0-22.5,18.7-93.6,22.5,0,0-26.2,206,123.6,325.8,0,0,44.9-33.7,78.7-37.5,0,0,59.9,33.7,108.6,138.6,0,0-37.5,41.2-123.6,59.9a85.58,85.58,0,0,1-33.7,0S438.2,770.2,382,590.4s-37.5-329.6-37.5-329.6,7.5-30,33.7-48.7S423.2,178.5,524.3,167.3Z"/></svg>