<?xml version="1.0" encoding="utf-8"?>
<!-- Generator: Adobe Illustrator 25.4.1, SVG Export Plug-In . SVG Version: 6.00 Build 0)  -->
<svg version="1.1" id="Layer_1" xmlns="http://www.w3.org/2000/svg" xmlns:xlink="http://www.w3.org/1999/xlink" x="0px" y="0px"
	 viewBox="0 0 1000 1000" style="enable-background:new 0 0 1000 1000;" xml:space="preserve">
<style type="text/css">
	.st0{fill-rule:evenodd;clip-rule:evenodd;fill:#5B1F5D;}
</style>
<g id="Page-1">
	<g id="skrill-logo-web-1-rgb">
		<path id="Fill-1" class="st0" d="M714.6,396.9c22.5,0,40.8-18.3,40.8-40.8c0-22.5-18.3-40.8-40.8-40.8
			c-22.5,0-40.7,18.2-40.8,40.7c-0.1,22.5,18.1,40.8,40.7,40.9C714.5,396.9,714.6,396.9,714.6,396.9L714.6,396.9z M401.9,418.9
			c-11.2,29.4-27.1,56.7-47.2,80.9v-166l-85.5,16.9v300.9h85.5v-93c24.8,37.1,37,93,37,93h102.4C484,609.6,439.7,532,439.7,532
			c39.8-50.4,57.2-104.1,60-113L401.9,418.9L401.9,418.9z M626.5,415.8c-76.6,2.5-115.4,36.8-115.4,105.1v130.7h83.5V545
			c0-40.9,5.4-58.4,53.9-60.1V417C640.4,415.2,626.6,415.8,626.5,415.8L626.5,415.8z M125.9,452c-10.5-0.7-34.7-2.3-34.7-24.1
			c0-26.3,34.9-26.3,48-26.3c23,0,52.8,6.8,74.1,13.2c0,0,11.9,4.2,22,8.5l0.9,0.3v-72.2l-1.3-0.4c-25.1-8.8-54.3-17.2-108.5-17.2
			C33.1,333.8,0,388.2,0,434.8c0,26.9,11.5,90.1,118.5,97.4c9.1,0.6,33.1,1.9,33.1,24.5c0,18.6-19.7,29.6-52.8,29.6
			c-36.3,0-71.5-9.3-92.9-18v74.3c32,8.4,68.1,12.6,110.4,12.6c91.3,0,132.2-51.5,132.2-102.5C248.4,494.8,202.7,457.2,125.9,452
			L125.9,452z M673.3,651.7h82.9V419.3h-82.9L673.3,651.7z M912,348.6v303h82.9V333.8L912,348.6z M791.1,348.6l82.8-14.8v317.8
			h-82.8L791.1,348.6L791.1,348.6z"/>
	</g>
</g>
</svg>
