<?xml version="1.0" encoding="utf-8"?>
<!-- Generator: Adobe Illustrator 24.2.1, SVG Export Plug-In . SVG Version: 6.00 Build 0)  -->
<svg version="1.1" id="Layer_1" xmlns="http://www.w3.org/2000/svg" xmlns:xlink="http://www.w3.org/1999/xlink" x="0px" y="0px"
	 viewBox="0 0 1674.7 411.1" style="enable-background:new 0 0 1674.7 411.1;" xml:space="preserve">
<style type="text/css">
	.st0{fill:#00B67A;}
	.st1{fill:#005128;}
</style>
<g>
	<path d="M440.2,145.7h169.4v31.5h-66.7V355h-36.6V177.2h-66.4L440.2,145.7L440.2,145.7z M602.3,203.5h31.3v29.3h0.6
		c1.1-4.2,3.1-8.1,5.9-12c2.8-3.9,6.1-7.5,10.3-10.6c3.9-3.3,8.4-5.9,13.4-7.8c4.7-2,9.8-3.1,14.8-3.1c3.9,0,6.7,0.3,8.1,0.3
		c1.4,0.3,3.1,0.6,4.5,0.6v32.1c-2.2-0.6-4.7-0.8-7.3-1.1c-2.5-0.3-4.7-0.6-7.3-0.6c-5.6,0-10.9,1.1-15.9,3.3
		c-5,2.2-9.2,5.6-13.1,9.8c-3.6,4.5-6.7,9.8-8.9,16.2c-2.2,6.4-3.3,14-3.3,22.3v72h-33.5L602.3,203.5L602.3,203.5z M844.6,355h-32.9
		v-21.2h-0.6c-4.2,7.8-10.3,13.7-18.4,18.4s-16.5,7-24.8,7c-19.8,0-34.3-4.7-43.3-14.8c-8.9-9.8-13.4-24.8-13.4-44.7v-96.3h33.5
		v92.9c0,13.4,2.5,22.9,7.8,28.2c5,5.6,12.3,8.4,21.5,8.4c7,0,12.8-1.1,17.6-3.3c4.7-2.2,8.7-5,11.4-8.7c3.1-3.6,5-8.1,6.4-13.1
		c1.4-5,2-10.6,2-16.5v-87.9h33.5V355H844.6z M901.5,306.5c1.1,9.8,4.7,16.5,11.2,20.7c6.4,3.9,14.2,5.9,23.2,5.9
		c3.1,0,6.7-0.3,10.6-0.8s7.8-1.4,11.2-2.8c3.6-1.4,6.4-3.3,8.7-6.1c2.2-2.8,3.3-6.1,3.1-10.3s-1.7-7.8-4.7-10.6
		c-3.1-2.8-6.7-4.7-11.2-6.7c-4.5-1.7-9.8-3.1-15.6-4.2c-5.9-1.1-11.7-2.5-17.9-3.9c-6.1-1.4-12.3-3.1-18.1-5
		c-5.9-2-10.9-4.5-15.6-8.1c-4.5-3.3-8.4-7.5-10.9-12.8c-2.8-5.3-4.2-11.4-4.2-19.3c0-8.4,2-15.1,6.1-20.7c3.9-5.6,9.2-10,15.4-13.4
		c6.1-3.3,13.1-5.9,20.7-7.3c7.5-1.4,14.8-2,21.5-2c7.8,0,15.4,0.8,22.3,2.5c7,1.7,13.7,4.2,19.3,8.1c5.9,3.6,10.6,8.7,14.2,14.5
		c3.9,5.9,6.1,13.1,7.3,21.5h-34.9c-1.7-8.1-5.3-13.4-10.9-16.2c-5.9-2.8-12.3-4.2-19.8-4.2c-2.2,0-5.3,0.3-8.4,0.6
		c-3.3,0.6-6.1,1.1-9.2,2.2c-2.8,1.1-5.3,2.8-7.3,4.7c-2,2-3.1,4.7-3.1,8.1c0,4.2,1.4,7.3,4.2,9.8c2.8,2.5,6.4,4.5,11.2,6.4
		c4.5,1.7,9.8,3.1,15.6,4.2c5.9,1.1,12,2.5,18.1,3.9c6.1,1.4,12,3.1,17.9,5c5.9,2,11.2,4.5,15.6,8.1c4.5,3.3,8.4,7.5,11.2,12.6
		c2.8,5,4.2,11.4,4.2,18.7c0,8.9-2,16.5-6.1,22.9c-4.2,6.1-9.5,11.4-15.9,15.4c-6.4,3.9-14,6.7-21.8,8.7c-8.1,1.7-15.9,2.8-23.7,2.8
		c-9.5,0-18.4-1.1-26.5-3.3c-8.1-2.2-15.4-5.6-21.2-9.8c-5.9-4.5-10.6-9.8-14-16.5c-3.3-6.4-5.3-14.2-5.6-23.4h33.8v0.3H901.5z
		 M1011.8,203.5h25.4v-45.8h33.5v45.5h30.1V228h-30.1V309c0,3.6,0.3,6.4,0.6,9.2c0.3,2.5,1.1,4.7,2,6.4c1.1,1.7,2.8,3.1,4.7,3.9
		c2.2,0.8,5,1.4,8.9,1.4c2.2,0,4.7,0,7-0.3c2.2-0.3,4.7-0.6,7-1.1v26c-3.6,0.6-7.3,0.8-10.9,1.1c-3.6,0.6-7,0.6-10.9,0.6
		c-8.9,0-15.9-0.8-21.2-2.5c-5.3-1.7-9.5-4.2-12.6-7.3c-3.1-3.3-5-7.3-6.1-12c-1.1-4.7-1.7-10.6-2-16.7v-89.3h-25.4v-25.4h0V203.5z
		 M1124.3,203.5h31.5v20.7h0.6c4.7-8.9,11.2-15.1,19.5-19s17.3-5.9,27.4-5.9c12,0,22.3,2,31.3,6.4c8.9,4.2,16.2,9.8,22,17.3
		c5.9,7.3,10.3,15.9,13.1,25.7s4.5,20.4,4.5,31.3c0,10.3-1.4,20.1-3.9,29.6c-2.8,9.5-6.7,18.1-12,25.4s-12,13.1-20.4,17.6
		c-8.4,4.5-17.9,6.7-29,6.7c-4.7,0-9.8-0.6-14.5-1.4c-4.7-0.8-9.5-2.2-14-4.2c-4.5-2-8.7-4.5-12.3-7.5c-3.9-3.1-7-6.7-9.5-10.6h-0.6
		v75.6h-33.5V203.5H1124.3z M1241.2,279.4c0-6.7-0.8-13.4-2.8-19.8c-1.7-6.4-4.5-12-8.1-17c-3.6-5-8.1-8.9-13.1-12
		c-5.3-3.1-11.4-4.5-18.1-4.5c-14,0-24.6,4.7-31.8,14.5c-7,9.8-10.6,22.9-10.6,39.1c0,7.8,0.8,14.8,2.8,21.2c2,6.4,4.5,12,8.4,16.7
		c3.6,4.7,8.1,8.4,13.4,11.2c5.3,2.8,11.2,4.2,18.1,4.2c7.8,0,14-1.7,19.3-4.7c5.3-3.1,9.5-7.3,13.1-12c3.3-5,5.9-10.6,7.3-17
		C1240.4,292.5,1241.2,286.1,1241.2,279.4L1241.2,279.4z M1300.1,145.7h33.5v31.5h-33.5V145.7z M1300.1,203.5h33.5V355h-33.5V203.5
		L1300.1,203.5z M1363.5,145.7h33.5V355h-33.5V145.7L1363.5,145.7z M1499.1,359.2c-12,0-22.9-2-32.4-6.1s-17.3-9.5-24-16.5
		c-6.4-7-11.4-15.6-14.8-25.4c-3.3-9.8-5.3-20.7-5.3-32.1s1.7-22,5.3-31.8c3.3-9.8,8.4-18.1,14.8-25.4c6.4-7,14.5-12.6,24-16.5
		c9.5-3.9,20.4-6.1,32.4-6.1c12,0,22.9,2,32.4,6.1c9.5,3.9,17.3,9.5,24,16.5c6.4,7,11.4,15.6,14.8,25.4c3.3,9.8,5.3,20.4,5.3,31.8
		c0,11.7-1.7,22.3-5.3,32.1c-3.6,9.8-8.4,18.1-14.8,25.4c-6.4,7-14.5,12.6-24,16.5C1522,357,1511.4,359.2,1499.1,359.2L1499.1,359.2
		z M1499.1,332.7c7.3,0,14-1.7,19.3-4.7c5.6-3.1,9.8-7.3,13.4-12.3s6.1-10.9,7.8-17c1.7-6.4,2.5-12.8,2.5-19.5
		c0-6.4-0.8-12.8-2.5-19.3c-1.7-6.4-4.2-12-7.8-17s-8.1-8.9-13.4-12c-5.6-3.1-12-4.7-19.3-4.7c-7.3,0-14,1.7-19.3,4.7
		c-5.6,3.1-9.8,7.3-13.4,12c-3.6,5-6.1,10.6-7.8,17c-1.7,6.4-2.5,12.8-2.5,19.3c0,6.7,0.8,13.1,2.5,19.5c1.7,6.4,4.2,12,7.8,17
		c3.6,5,8.1,9.2,13.4,12.3C1485.4,331.3,1491.9,332.7,1499.1,332.7L1499.1,332.7z M1585.6,203.5h25.4v-45.8h33.5v45.5h30.1V228
		h-30.1V309c0,3.6,0.3,6.4,0.6,9.2c0.3,2.5,1.1,4.7,2,6.4c1.1,1.7,2.8,3.1,4.7,3.9c2.2,0.8,5,1.4,8.9,1.4c2.2,0,4.7,0,7-0.3
		c2.2-0.3,4.7-0.6,7-1.1v26c-3.6,0.6-7.3,0.8-10.9,1.1c-3.6,0.6-7,0.6-10.9,0.6c-8.9,0-15.9-0.8-21.2-2.5c-5.3-1.7-9.5-4.2-12.6-7.3
		c-3.1-3.3-5-7.3-6.1-12c-1.1-4.7-1.7-10.6-2-16.7v-89.3h-25.4v-25.4l0,0V203.5z"/>
	<path class="st0" d="M401.1,145.7H247.9L200.7,0l-47.4,145.7L0,145.4l123.9,90.2L76.5,381.3l123.9-90.2l123.9,90.2l-47.2-145.7
		L401.1,145.7z"/>
	<path class="st1" d="M287.8,268.5l-10.6-32.9l-76.5,55.5L287.8,268.5z"/>
</g>
</svg>
