<?xml version="1.0" encoding="utf-8"?>
<!-- Generator: Adobe Illustrator 24.0.3, SVG Export Plug-In . SVG Version: 6.00 Build 0)  -->
<svg version="1.1" id="svg4719" xmlns="http://www.w3.org/2000/svg" xmlns:xlink="http://www.w3.org/1999/xlink" x="0px" y="0px"
	 viewBox="0 0 893 893" style="enable-background:new 0 0 893 893;" xml:space="preserve">
<style type="text/css">
	.st0{fill:#EF4035;}
</style>
<title>PSE</title>
<path class="st0" d="M397.5,378.5c52.1-40.8,99.6-82.2,151.3-117.4c66.1-45.1,140.1-58,217.2-31.4c98.2,33.9,126.5,133,63.1,215.2
	c-60.7,78.7-186.5,112.9-278.3,74.9c-14.6-6.1-29.9-13.7-40.9-24.6C472.2,458.1,436.3,419.2,397.5,378.5z"/>
<path class="st0" d="M357.6,412.5c33.9,39.5,67.9,75.7,98,114.8c33.5,43.4,36.3,93.5,21.6,145c-24.2,85-100.8,147.8-182.6,151
	c-90.5,3.5-151.7-67.5-145.1-155.7c4.7-62.9,33.6-113.8,83.1-153.3C273.9,481.3,314.6,447.6,357.6,412.5z"/>
<path class="st0" d="M363.5,353.5c-26.4-29.2-51.8-55.1-74.7-83c-21-25.6-17.3-55.4-4.1-82.9c31.9-66.6,88-102.4,158.7-116.2
	c18-3.5,37.5-2.9,55.8-0.2c42.6,6.2,62,34.7,56.2,77.5c-5,36.9-21.9,68-49.8,91.4C459.7,278.6,412.1,314.9,363.5,353.5z"/>
<path class="st0" d="M330.5,379.6c-54.8,41.9-106.9,84.9-162.6,122.6c-19.2,13-47.2,16.7-71.5,17.9c-43.6,2.1-73.1-29.9-73.3-73.5
	c-0.5-86,95.3-179.1,181.4-173.9c16.8,1,36.7,8.4,48.6,19.8C280.2,318.2,303.2,348.2,330.5,379.6z"/>
</svg>
