<?xml version="1.0" encoding="utf-8"?>
<!-- Generator: Adobe Illustrator 24.0.1, SVG Export Plug-In . SVG Version: 6.00 Build 0)  -->
<svg version="1.1" id="Layer_1" xmlns="http://www.w3.org/2000/svg" xmlns:xlink="http://www.w3.org/1999/xlink" x="0px" y="0px"
	 viewBox="0 0 1322 600" style="enable-background:new 0 0 1322 600;" xml:space="preserve">
<style type="text/css">
	.st0{fill:#212528;}
	.st1{fill:#FFFFFF;}
	.st2{fill:#007CD2;}
	.st3{fill:#FF3451;}
	.st4{fill:#FFCB00;}
	.st5{fill:#FFE271;}
	.st6{fill:#FF839B;}
	.st7{fill:#865387;}
	.st8{fill:#0BB30B;}
	.st9{fill:#4EC84E;}
	.st10{fill:#66B0E4;}
</style>
<path class="st0" d="M591.2,219c-11.4-9.2-25.2-14.9-41.1-16.8c-6.1-0.7-14-1-23.7-1h-74.3v200.9h74.3c9.7,0,17.6-0.3,23.7-1
	c15.9-1.9,29.6-7.5,41.1-16.8c11.3-9.2,20.1-21.1,26-35.6c5.9-14.3,8.9-30.1,8.9-47s-3-32.8-8.9-47
	C611.2,240.3,602.5,228.2,591.2,219 M570.9,340.8c-5.7,11.1-13.9,17.5-24.7,19.7l0,0c-4.2,0.8-11,1.3-20.2,1.3h-32.2V241.5H526
	c9.1,0,15.9,0.5,20.2,1.3c10.7,2.2,18.8,8.6,24.7,19.5c5.9,11.1,9,24.4,9,39.3C579.7,316.3,576.7,329.5,570.9,340.8"/>
<path class="st0" d="M1057.3,255.8c-8-4.9-16.9-9.8-30.3-9.8c-14.2,0-26.9,3.5-37.8,10.4c-10.8,6.9-19.5,16.4-25.4,28.7
	c-5.9,12.1-9,25.9-9,41.1c0,15,2.9,28.7,8.9,40.8c5.9,12.1,14.2,21.8,24.8,28.8s23,10.4,36.6,10.5c16,0.1,26.4-7.5,36.9-14.1v10
	h38.1v-205h-42.8L1057.3,255.8L1057.3,255.8z M1061.5,327.4c0,5.9-0.9,11.4-2.6,16.1s-4.1,8.6-6.9,11.9c-2.8,3.1-6.1,5.7-9.8,7.3
	c-3.6,1.6-7.6,2.6-11.7,2.6s-7.9-0.9-11.7-2.7c-3.7-1.7-7-4.3-9.8-7.5c-2.8-3.3-5.1-7.2-6.9-11.9c-1.7-4.7-2.6-10-2.6-15.7
	c0-5.8,0.9-11.1,2.6-15.7c1.7-4.7,4.1-8.6,6.9-11.9c2.8-3.1,6.1-5.7,9.8-7.5c3.6-1.7,7.6-2.7,11.7-2.7s7.9,0.8,11.7,2.6
	c3.6,1.6,7,4.2,9.8,7.3c2.8,3.1,5.1,7.2,6.9,11.9C1060.6,316,1061.5,321.5,1061.5,327.4"/>
<rect x="1121" y="197.2" class="st0" width="42.5" height="205"/>
<path class="st0" d="M884.3,246c-10.4,0-19.7,2.2-27.9,6.8c-7.3,4.1-12,7.6-16.1,14.3v-16.3h-41.1v151.4h43.4V328
	c0,0-1-26,17.5-36.9c3.5-2.1,7.8-3,12.6-3c8,0,14,2.1,18,6.5c4.1,4.4,6.2,11.5,6.2,21.1V402h43.5v-91c0-19.4-4.8-35.2-14.1-47
	C916.6,252,903.6,246,884.3,246"/>
<path class="st0" d="M737.7,325c0,0,1,26-17.5,36.9c-3.5,2.1-7.8,3-12.6,3c-8,0-14-2.1-18-6.5c-4.1-4.4-6.2-11.5-6.2-21.1V251h-43.5
	v91c0,19.4,4.8,35.2,14.1,47c9.6,12,22.6,18.1,41.9,18.1c10.4,0,19.7-2.2,27.9-6.8c7.3-4.1,12-6.2,16.1-12.9v14.9H781V250.8h-43.3
	V325z"/>
<path class="st0" d="M1269.7,364.7c-5.1,3.1-11.3,4.8-18.4,4.8c-9.8,0-17.7-2.8-23.4-8.5c-5.6-5.5-9.2-13.4-10.7-23.7h104.3v-0.7
	c0.3-5.2,0.6-9,0.6-11.2c0-16.1-2.9-30.2-8.6-42.2s-14-21.3-24.6-27.9c-10.6-6.4-23.2-9.8-37.6-9.8c-14.7,0-28,3.4-39.4,10.1
	c-11.4,6.8-20.4,16.4-26.8,28.9c-6.3,12.5-9.6,26.9-9.6,43.3c0,14.9,3.3,28.6,9.8,40.5s15.9,21.3,27.6,28c11.8,6.6,25.4,10,40.5,10
	c14.6,0,28-4,40.1-11.7c9.4-6.1,17-14.1,22.5-23.9l-35.5-18.2C1278,357.7,1274.4,361.8,1269.7,364.7 M1252.9,280
	c8.7,0,15.6,2.3,20.3,6.8c4.5,4.4,7.6,11.4,8.9,20.9h-63.8C1222.4,289.1,1233.7,280,1252.9,280"/>
<path class="st1" d="M360.1,293.2l-83.7-145c-0.9-1.6-2.2-3-3.7-4.1c-0.9-0.7-1.8-1.2-2.8-1.6c-1.6-0.7-3.4-1.1-5.3-1.1H97.2
	c-2.5,0-4.8,0.7-6.9,1.9c-2,1.2-3.7,2.9-4.9,4.9l-83.7,145c-0.9,1.6-1.5,3.3-1.7,5.1c-0.1,1.1-0.1,2.3,0,3.4
	c0.2,1.8,0.8,3.5,1.7,5.1l83.7,145c1.2,2.1,2.9,3.7,4.9,4.9c2.1,1.2,4.4,1.9,6.9,1.9h167.4c1.8,0,3.6-0.4,5.3-1.1c1-0.4,2-1,2.8-1.6
	c1.5-1.1,2.7-2.5,3.7-4.1l83.7-145c1.2-2.1,1.8-4.5,1.8-6.8C361.9,297.7,361.3,295.3,360.1,293.2"/>
<path class="st2" d="M85.4,451.8c1.2,2.1,2.9,3.7,4.9,4.9l22.7-26.4l6.5-34.4l-43.3-44.1l-76.3-50.1c0.2,1.8,0.8,3.5,1.7,5.1
	L85.4,451.8z"/>
<path class="st3" d="M119.5,204l-3.2-27.4l-26-33.4c-2,1.2-3.7,2.9-4.9,4.9l-83.7,145c-0.9,1.6-1.5,3.3-1.7,5.1l78.2-51.7L119.5,204
	z"/>
<path class="st4" d="M289.8,300l0.4-87.3l-17.5-68.6c-0.9-0.7-1.8-1.2-2.8-1.6l-71,19L119.5,204L289.8,300z"/>
<path class="st5" d="M361.9,300c0-2.3-0.6-4.7-1.8-6.8l-83.7-145c-0.9-1.6-2.2-3-3.7-4.1L289.8,300H361.9z"/>
<polygon class="st1" points="119.5,204 119.5,396 289.8,300 "/>
<path class="st6" d="M269.9,142.5c-1.6-0.7-3.4-1.1-5.3-1.1H97.2c-2.5,0-4.8,0.7-6.9,1.9l29.2,60.8L269.9,142.5z"/>
<path class="st7" d="M-0.1,301.7L119.5,396V204L-0.1,298.3C-0.2,299.4-0.2,300.6-0.1,301.7"/>
<path class="st8" d="M119.5,396l66.6,37.3l83.8,24.3c1-0.4,2-1,2.8-1.6l18.3-75.4l-1.2-80.6L119.5,396z"/>
<path class="st9" d="M272.7,455.9c1.5-1.1,2.7-2.5,3.7-4.1l83.7-145c1.2-2.1,1.8-4.5,1.8-6.8h-72.1L272.7,455.9z"/>
<path class="st10" d="M90.3,456.7c2.1,1.2,4.4,1.9,6.9,1.9h167.4c1.8,0,3.6-0.4,5.3-1.1L119.5,396L90.3,456.7z"/>
</svg>
