<?xml version="1.0" encoding="utf-8"?>
<!-- Generator: Adobe Illustrator 24.2.1, SVG Export Plug-In . SVG Version: 6.00 Build 0)  -->
<svg version="1.1" id="Layer_1" xmlns="http://www.w3.org/2000/svg" xmlns:xlink="http://www.w3.org/1999/xlink" x="0px" y="0px"
	 viewBox="0 0 1162.6 1000" style="enable-background:new 0 0 1162.6 1000;" xml:space="preserve">
<style type="text/css">
	.st0{fill-rule:evenodd;clip-rule:evenodd;fill:#005697;}
	.st1{fill-rule:evenodd;clip-rule:evenodd;fill:#FBD500;}
</style>
<g id="Artboard">
</g>
<path id="Fill-4" class="st0" d="M951.1,309.9h-44.2H702.8h-44.2l-29.7,33.5L532.3,452v0l-29.7,33.5h-44.2H258.1H214l29.3-33.9
	l13.9-16.1l29.3-33.9h-44.2h-56.9h-31.9c-24.3,0-44.2,20.4-44.2,45.3v0v87.5v8.1c0,24.9,19.9,45.3,44.2,45.3h12.4h463.5h33.2
	c24.3,0,57.5-15.1,73.8-33.6l77-87.6L951.1,309.9z"/>
<path id="Fill-6" class="st1" d="M1009.8,207.7c24.3,0,44.2,20.4,44.2,45.3v95.6c0,24.9-19.9,45.3-44.2,45.3h-24h-64.4h-44.2
	l29.6-33.7h0l14.7-16.7l29.6-33.7H658.6l-156,175.8H212.2l208.3-235.5l7.9-8.9c16.3-18.5,49.6-33.6,73.9-33.6h10.3H1009.8z"/>
<path id="Fill-8" class="st0" d="M208.8,750.3c0-6.2-1.5-11.6-4.4-16.2c-2.9-4.6-6.8-8-11.6-10.4c4.8-2.4,8.5-5.9,11.2-10.6
	c2.6-4.7,4-10,4-15.8v-3.2c0-7.2-1.4-13.2-4.1-18c-2.8-4.8-6.6-8.6-11.6-11.5c-5-2.9-11-4.9-17.9-6.2c-7-1.3-14.7-1.9-23.2-1.9
	c-2.9,0-5.9,0.1-9,0.2c-3.1,0.1-6.2,0.3-9.1,0.4c-2.9,0.2-5.6,0.4-8.1,0.6c-2.5,0.2-4.5,0.5-6,0.7c-3.5,0.6-5.9,1.7-7.4,3.2
	c-1.4,1.6-2.2,4.4-2.2,8.5v109.5c0,4.1,0.7,6.9,2.3,8.5c1.5,1.6,4,2.6,7.7,3.2c1.8,0.4,4,0.7,6.5,0.9c2.5,0.2,5.2,0.4,8.2,0.6
	c2.9,0.2,6,0.3,9.1,0.5c3.1,0.1,6.2,0.2,9.2,0.2c7.8,0,15.2-0.6,22.1-1.8c6.9-1.2,12.9-3.3,18-6.4c5.1-3.1,9.2-7.2,12.2-12.4
	c3-5.2,4.5-11.8,4.5-19.7V750.3z M178.2,698.6c0,1.9-0.3,3.8-0.9,5.5c-0.6,1.7-1.6,3.2-3,4.5c-1.4,1.3-3.2,2.3-5.6,3.1
	c-2.3,0.8-5.3,1.2-8.9,1.2h-20.2v-31.1c0.6,0,1.5,0,2.8-0.1c1.3-0.1,2.6-0.1,4-0.1h4h3c9.2,0,15.7,1.2,19.4,3.5s5.5,6,5.5,10.9
	V698.6z M178.9,752.3c0,5-1.8,8.9-5.3,11.7c-3.5,2.8-9.9,4.1-19.2,4.1h-3c-1.4,0-2.8,0-4.3-0.1c-1.5-0.1-2.9-0.1-4.3-0.1h-3.1v-33.7
	h20.2c7.2,0,12.2,1.6,14.9,4.8c2.8,3.2,4.1,6.9,4.1,11.3V752.3z M307.4,723.8c0-6.6-1-12.2-3-16.8c-2-4.6-4.8-8.4-8.4-11.3
	c-3.6-2.9-8-5.1-13.2-6.5c-5.2-1.4-11.1-2.1-17.6-2.1c-6,0-11.9,0.4-17.6,1.3c-5.7,0.8-10.2,1.7-13.6,2.5c-2.3,0.6-3.4,1.9-3.4,4
	v14.6c0,1.2,0.3,2,0.9,2.5c0.6,0.5,1.4,0.7,2.3,0.7h0.9c1.4-0.1,3.2-0.3,5.4-0.5c2.2-0.2,4.6-0.3,7.3-0.5c2.7-0.1,5.5-0.2,8.5-0.3
	c2.9-0.1,5.9-0.1,8.7-0.1c4.2,0,7.5,0.8,9.9,2.3c2.4,1.6,3.6,4.9,3.6,10.1v6.5h-9.7c-15.5,0-26.7,2.4-33.8,7.3
	c-7,4.9-10.5,12.6-10.5,23.1v1.6c0,5.9,0.9,10.8,2.6,14.8c1.7,4,4.1,7.1,6.9,9.5c2.9,2.4,6.1,4.1,9.8,5.1c3.7,1,7.5,1.5,11.4,1.5
	c5.4,0,10.1-0.7,14-2.2c3.9-1.4,7.6-3.4,11.1-5.9v2.9c0,1,0.4,1.8,1.1,2.5c0.7,0.7,1.6,1.1,2.5,1.1h20.2c1,0,1.8-0.4,2.5-1.1
	c0.7-0.7,1.1-1.6,1.1-2.5V723.8z M278.8,767.4c-2.2,1.1-4.5,2-6.9,2.8c-2.5,0.8-5.1,1.2-7.8,1.2c-3.8,0-6.7-0.5-8.6-1.6
	c-1.9-1.1-2.8-3.5-2.8-7.4v-1.6c0-2.2,0.2-4.1,0.7-5.8c0.5-1.7,1.3-3.1,2.5-4.1c1.2-1.1,2.8-1.9,4.9-2.4c2-0.5,4.6-0.8,7.7-0.8h10.3
	V767.4z M417.6,787.9v-59.9c0-5.6-0.4-10.9-1.3-15.9c-0.9-5-2.5-9.3-4.9-13c-2.3-3.7-5.6-6.6-9.7-8.7c-4.1-2.2-9.5-3.2-15.9-3.2
	c-5.8,0-10.9,0.7-15.3,2.1c-4.4,1.4-9.1,3.8-14,7.3v-4.4c0-1-0.4-1.8-1.1-2.5c-0.7-0.7-1.6-1.1-2.5-1.1h-20.2c-1,0-1.8,0.4-2.5,1.1
	c-0.7,0.7-1.1,1.6-1.1,2.5v95.8c0,1,0.4,1.8,1.2,2.6c0.8,0.8,1.6,1.2,2.6,1.2h21.8c1,0,1.8-0.4,2.5-1.2c0.7-0.8,1.1-1.6,1.1-2.6
	v-70.8c3.1-1.7,6.1-3.1,8.8-4.1c2.8-1.1,5.5-1.6,8.1-1.6c2.8,0,5,0.3,6.8,0.8c1.7,0.5,3.1,1.5,4,2.8c1,1.3,1.6,3,2,5.2
	c0.4,2.2,0.5,4.8,0.5,7.9v59.8c0,1,0.4,1.8,1.1,2.6c0.7,0.8,1.6,1.2,2.5,1.2h21.8c1,0,1.8-0.4,2.6-1.2
	C417.2,789.7,417.6,788.9,417.6,787.9z M506.2,786.5v-16c0-1-0.3-1.7-1-2.3c-0.7-0.5-1.5-0.8-2.4-0.8h-0.4c-3.4,0.4-6.6,0.7-9.6,0.9
	c-3.1,0.2-7.2,0.4-12.3,0.4c-2,0-4-0.3-5.8-1c-1.8-0.7-3.4-1.8-4.7-3.4c-1.3-1.6-2.4-3.8-3.2-6.5c-0.8-2.7-1.2-6-1.2-10v-15.1
	c0-4,0.4-7.3,1.2-10c0.8-2.7,1.8-4.9,3.2-6.5c1.3-1.6,2.9-2.8,4.7-3.4c1.8-0.7,3.7-1,5.8-1c5.2,0,9.3,0.1,12.3,0.4
	c3.1,0.2,6.3,0.5,9.6,0.9h0.4c1,0,1.8-0.3,2.4-0.8c0.7-0.5,1-1.3,1-2.3v-16c0-1.3-0.3-2.3-0.9-2.8c-0.6-0.5-1.6-1-2.9-1.3
	c-2.5-0.6-5.8-1.2-9.8-1.8c-4-0.6-8.7-0.9-14.1-0.9c-12.7,0-22.9,3.9-30.5,11.7c-7.6,7.8-11.4,19.1-11.4,33.8v15.1
	c0,14.8,3.8,26,11.4,33.8c7.6,7.8,17.8,11.7,30.5,11.7c5.4,0,10.1-0.3,14.1-0.9c4-0.6,7.3-1.2,9.8-1.8c1.3-0.4,2.3-0.8,2.9-1.3
	C505.9,788.7,506.2,787.8,506.2,786.5z M606.1,733.9c0-7.2-1-13.7-3-19.4c-2-5.8-4.9-10.7-8.7-14.7c-3.8-4-8.5-7.1-14.1-9.4
	c-5.6-2.2-12.1-3.3-19.4-3.3s-13.8,1.1-19.4,3.3c-5.6,2.2-10.3,5.3-14.2,9.4c-3.9,4-6.8,8.9-8.7,14.7c-2,5.8-3,12.2-3,19.4v12.6
	c0,7.2,1,13.7,3,19.4c2,5.8,4.9,10.7,8.7,14.7c3.8,4,8.6,7.1,14.2,9.4c5.6,2.2,12.1,3.3,19.4,3.3s13.8-1.1,19.4-3.3
	c5.6-2.2,10.3-5.3,14.1-9.4c3.8-4,6.7-8.9,8.7-14.7c2-5.8,3-12.2,3-19.4V733.9z M576.9,746.5c0,14.8-5.3,22.1-15.9,22.1
	c-5.3,0-9.2-1.9-12-5.6c-2.7-3.7-4.1-9.2-4.1-16.6v-12.6c0-7.3,1.4-12.8,4.1-16.5c2.7-3.7,6.7-5.5,12-5.5c10.6,0,15.9,7.3,15.9,22
	V746.5z M713.2,787.9v-59.9c0-5.6-0.5-10.9-1.3-15.9c-0.9-5-2.5-9.3-4.9-13c-2.3-3.7-5.6-6.6-9.7-8.7c-4.1-2.2-9.5-3.2-15.9-3.2
	c-5.8,0-10.9,0.7-15.3,2.1c-4.4,1.4-9.1,3.8-14,7.3v-4.4c0-1-0.4-1.8-1.1-2.5c-0.7-0.7-1.6-1.1-2.5-1.1h-20.2c-1,0-1.8,0.4-2.5,1.1
	c-0.7,0.7-1.1,1.6-1.1,2.5v95.8c0,1,0.4,1.8,1.2,2.6c0.8,0.8,1.6,1.2,2.6,1.2h21.8c1,0,1.8-0.4,2.5-1.2c0.7-0.8,1.1-1.6,1.1-2.6
	v-70.8c3.1-1.7,6.1-3.1,8.8-4.1c2.8-1.1,5.5-1.6,8.1-1.6c2.8,0,5,0.3,6.7,0.8c1.7,0.5,3.1,1.5,4.1,2.8c1,1.3,1.6,3,2,5.2
	c0.4,2.2,0.5,4.8,0.5,7.9v59.8c0,1,0.4,1.8,1.1,2.6c0.7,0.8,1.6,1.2,2.5,1.2h21.8c1,0,1.8-0.4,2.6-1.2
	C712.8,789.7,713.2,788.9,713.2,787.9z M791.7,788.3v-13.9c0-2-1.3-3-3.8-3h-8.8c-2.8,0-4.4-0.5-5-1.5c-0.6-1-0.9-3.3-0.9-6.9v-52.4
	h14.8c1,0,1.8-0.4,2.5-1.1c0.7-0.7,1.1-1.6,1.1-2.5v-14.7c0-1-0.4-1.8-1.1-2.5c-0.7-0.7-1.6-1.1-2.5-1.1h-14.8v-19.1
	c0-1-0.3-1.7-0.9-2.3c-0.6-0.5-1.4-0.8-2.3-0.8h-0.5l-21.8,3.8c-1,0.2-1.8,0.7-2.5,1.3c-0.7,0.6-1.1,1.4-1.1,2.3v14.8h-14.4
	c-1,0-1.8,0.4-2.6,1.2c-0.8,0.8-1.2,1.7-1.2,2.6v11.9c0,1,0.4,1.8,1.2,2.4c0.8,0.7,1.6,1.1,2.6,1.3l14.4,2.3v52.2
	c0,6.4,0.7,11.6,2,15.6c1.3,4,3.2,7.2,5.7,9.5c2.5,2.3,5.6,3.8,9.4,4.6c3.8,0.8,8.1,1.2,13,1.2c2.6,0,5-0.1,7-0.4
	c2-0.2,4.4-0.6,7.2-1.1C790.6,791.5,791.7,790.3,791.7,788.3z M887.8,723.8c0-6.6-1-12.2-3-16.8c-2-4.6-4.8-8.4-8.4-11.3
	c-3.6-2.9-8-5.1-13.2-6.5c-5.2-1.4-11.1-2.1-17.6-2.1c-6,0-11.9,0.4-17.6,1.3c-5.7,0.8-10.2,1.7-13.6,2.5c-2.3,0.6-3.4,1.9-3.4,4
	v14.6c0,1.2,0.3,2,0.9,2.5c0.6,0.5,1.4,0.7,2.3,0.7h0.9c1.4-0.1,3.2-0.3,5.4-0.5c2.2-0.2,4.6-0.3,7.3-0.5c2.7-0.1,5.5-0.2,8.5-0.3
	c2.9-0.1,5.9-0.1,8.7-0.1c4.2,0,7.5,0.8,9.9,2.3c2.4,1.6,3.6,4.9,3.6,10.1v6.5H849c-15.5,0-26.7,2.4-33.8,7.3
	c-7,4.9-10.5,12.6-10.5,23.1v1.6c0,5.9,0.9,10.8,2.6,14.8c1.7,4,4.1,7.1,6.9,9.5c2.9,2.4,6.1,4.1,9.8,5.1c3.7,1,7.5,1.5,11.4,1.5
	c5.4,0,10-0.7,14-2.2c3.9-1.4,7.6-3.4,11.1-5.9v2.9c0,1,0.4,1.8,1.1,2.5c0.7,0.7,1.6,1.1,2.5,1.1h20.2c1,0,1.8-0.4,2.5-1.1
	c0.7-0.7,1.1-1.6,1.1-2.5V723.8z M859.2,767.4c-2.2,1.1-4.5,2-6.9,2.8c-2.5,0.8-5.1,1.2-7.8,1.2c-3.8,0-6.7-0.5-8.6-1.6
	c-1.9-1.1-2.8-3.5-2.8-7.4v-1.6c0-2.2,0.2-4.1,0.7-5.8c0.5-1.7,1.3-3.1,2.5-4.1c1.2-1.1,2.8-1.9,4.9-2.4c2-0.5,4.6-0.8,7.7-0.8h10.3
	V767.4z M976.4,786.5v-16c0-1-0.3-1.7-1-2.3c-0.7-0.5-1.5-0.8-2.4-0.8h-0.4c-3.4,0.4-6.6,0.7-9.6,0.9c-3.1,0.2-7.2,0.4-12.3,0.4
	c-2,0-4-0.3-5.8-1c-1.8-0.7-3.4-1.8-4.7-3.4c-1.3-1.6-2.4-3.8-3.1-6.5c-0.8-2.7-1.2-6-1.2-10v-15.1c0-4,0.4-7.3,1.2-10
	c0.8-2.7,1.8-4.9,3.1-6.5c1.3-1.6,2.9-2.8,4.7-3.4c1.8-0.7,3.7-1,5.8-1c5.2,0,9.3,0.1,12.3,0.4c3.1,0.2,6.3,0.5,9.6,0.9h0.4
	c1,0,1.8-0.3,2.4-0.8c0.7-0.5,1-1.3,1-2.3v-16c0-1.3-0.3-2.3-0.9-2.8c-0.6-0.5-1.6-1-2.9-1.3c-2.5-0.6-5.8-1.2-9.8-1.8
	c-4-0.6-8.7-0.9-14.1-0.9c-12.7,0-22.9,3.9-30.5,11.7c-7.6,7.8-11.4,19.1-11.4,33.8v15.1c0,14.8,3.8,26,11.4,33.8
	c7.6,7.8,17.8,11.7,30.5,11.7c5.4,0,10.1-0.3,14.1-0.9c4-0.6,7.3-1.2,9.8-1.8c1.3-0.4,2.3-0.8,2.9-1.3
	C976.1,788.7,976.4,787.8,976.4,786.5z M1054,788.3v-13.9c0-2-1.3-3-3.8-3h-8.8c-2.8,0-4.4-0.5-5-1.5c-0.6-1-0.9-3.3-0.9-6.9v-52.4
	h14.8c1,0,1.8-0.4,2.5-1.1c0.7-0.7,1.1-1.6,1.1-2.5v-14.7c0-1-0.4-1.8-1.1-2.5c-0.7-0.7-1.6-1.1-2.5-1.1h-14.8v-19.1
	c0-1-0.3-1.7-0.9-2.3c-0.6-0.5-1.4-0.8-2.3-0.8h-0.5l-21.8,3.8c-1,0.2-1.8,0.7-2.5,1.3c-0.7,0.6-1.1,1.4-1.1,2.3v14.8h-14.4
	c-1,0-1.8,0.4-2.6,1.2c-0.8,0.8-1.2,1.7-1.2,2.6v11.9c0,1,0.4,1.8,1.2,2.4c0.8,0.7,1.6,1.1,2.6,1.3l14.4,2.3v52.2
	c0,6.4,0.7,11.6,2,15.6c1.3,4,3.2,7.2,5.7,9.5c2.5,2.3,5.6,3.8,9.4,4.6c3.8,0.8,8.1,1.2,13,1.2c2.6,0,5-0.1,7-0.4
	c2-0.2,4.4-0.6,7.2-1.1C1052.9,791.5,1054,790.3,1054,788.3z"/>
</svg>
