<?xml version="1.0" encoding="utf-8"?>
<!-- Generator: Adobe Illustrator 24.0.3, SVG Export Plug-In . SVG Version: 6.00 Build 0)  -->
<svg version="1.1" id="Layer_1" xmlns="http://www.w3.org/2000/svg" xmlns:xlink="http://www.w3.org/1999/xlink" x="0px" y="0px"
	 viewBox="0 0 1009.4 1000" style="enable-background:new 0 0 1009.4 1000;" xml:space="preserve">
<style type="text/css">
	.st0{fill:#00DCCA;}
</style>
<title>Onebip</title>
<path class="st0" d="M504.5,56C259.5,56,61,254.5,61,499.5S259.5,943,504.5,943S948,744.5,948,499.5S749.5,56,504.5,56z
	 M606.8,323.8v354.6c0,41-33,74-74,74l0,0c-41,0-74-33-74-74V397.9h-14.2c-41,0-74-33-74-74l0,0c0-41,33-74,74-74h88.2l0,0
	C573.8,249.8,606.8,283.2,606.8,323.8L606.8,323.8z"/>
</svg>
