<svg id="Layer_1" data-name="Layer 1" xmlns="http://www.w3.org/2000/svg" viewBox="0 0 1000 1000"><defs><style>.cls-1{fill:#83ba3b;}.cls-2{fill:#fff;}</style></defs><title>Neteller</title><rect class="cls-1" width="1000" height="1000"/><path class="cls-2" d="M715.4,831.2H544.8a13.94,13.94,0,0,1-13.1-9.1L413.1,506.3a7.3,7.3,0,0,0-14,1.2L339.7,819.7a14,14,0,0,1-13.8,11.4H157.6a14.07,14.07,0,0,1-13.8-16.7L268.8,174a14,14,0,0,1,13.8-11.3H448.1a13.84,13.84,0,0,1,13.1,9.1l126,337.1a7.48,7.48,0,0,0,14.4-1.4l56-333.1a14,14,0,0,1,13.8-11.7H838a14.08,14.08,0,0,1,13.8,16.7L729.2,819.8A14.12,14.12,0,0,1,715.4,831.2Z"/></svg>