<?xml version="1.0" encoding="utf-8"?>
<!-- Generator: Adobe Illustrator 16.0.4, SVG Export Plug-In . SVG Version: 6.00 Build 0)  -->
<!DOCTYPE svg PUBLIC "-//W3C//DTD SVG 1.1//EN" "http://www.w3.org/Graphics/SVG/1.1/DTD/svg11.dtd">
<svg version="1.1" id="Layer_1" xmlns="http://www.w3.org/2000/svg" xmlns:xlink="http://www.w3.org/1999/xlink" x="0px" y="0px"
	 width="76px" height="50px" viewBox="0 0 76 50" enable-background="new 0 0 76 50" xml:space="preserve">
<path fill="#3498D8" d="M76,47c0,1.657-1.344,3-3,3H2.999c-1.656,0-3-1.343-3-3V3c0-1.657,1.344-3,3-3H73c1.656,0,3,1.343,3,3V47z"
	/>
<g id="Amex_1_">
	<g>
		<path fill="#FFFFFF" d="M17.289,25.672h3.582l-1.791-4.478L17.289,25.672z M67.219,17.164h-9.18l-2.238,2.463l-2.016-2.463h-19.48
			l-1.791,4.03l-1.792-4.03h-7.836v1.791l-0.896-1.791h-6.717L8.78,32.836h7.836l0.896-2.461h2.239l0.896,2.461h8.732v-1.789
			l0.671,1.789h4.478l0.673-2.014v2.014h17.912l2.238-2.461l2.016,2.461h9.18L60.725,25L67.219,17.164z M40.127,30.598h-2.463
			v-8.731l-3.807,8.731h-2.239l-3.806-8.731v8.731h-5.15l-0.896-2.461h-5.374l-0.896,2.461h-2.911l4.702-11.195h3.806l4.254,10.525
			V19.403h4.254l3.358,7.613l3.135-7.613h4.254v11.195H40.127z M62.293,30.598h-3.359l-2.91-3.807l-3.359,3.807H42.59V19.403h10.299
			l3.135,3.583l3.359-3.583h3.133L57.59,25L62.293,30.598z M45.053,21.642v2.015h5.598v2.239h-5.598v2.24h6.27l2.91-3.36
			l-2.688-3.135H45.053z"/>
	</g>
</g>
</svg>
