<?xml version="1.0" encoding="iso-8859-1"?>
<!-- Generator: Adobe Illustrator 18.1.1, SVG Export Plug-In . SVG Version: 6.00 Build 0)  -->
<svg version="1.1" id="Header" xmlns="http://www.w3.org/2000/svg" xmlns:xlink="http://www.w3.org/1999/xlink" x="0px" y="0px"
	 viewBox="0 0 75 50" style="enable-background:new 0 0 75 50;" xml:space="preserve">
<g>
	<path style="fill-rule:evenodd;clip-rule:evenodd;fill:#FF0301;" d="M49.278,25.173l-6.983,9.64
		C40.384,34.397,14.298,38.912,14,16.448c0.35-4.979,2.138-16.819,24.528-16.433C54.621-0.338,58.85,5.557,58.314,4.9
		c4.652,4.203,5.144,9.009,5.261,9.08v20.834l-12.301,0.004V9.757H27.334l0.013,15.416H49.278L49.278,25.173z"/>
	<path style="fill-rule:evenodd;clip-rule:evenodd;" d="M21.695,46.904c0.044,0.16,0.073,0.287,0.085,0.381
		c0.01,0.092-0.004,0.165-0.046,0.21c-0.041,0.047-0.115,0.075-0.221,0.085c-0.106,0.013-0.252,0.02-0.437,0.02
		c-0.192,0-0.344-0.005-0.452-0.011c-0.106-0.008-0.19-0.02-0.245-0.039c-0.056-0.02-0.098-0.047-0.121-0.085
		c-0.022-0.036-0.041-0.08-0.056-0.141l-0.494-1.735h-2.759l-0.464,1.691c-0.016,0.062-0.035,0.114-0.061,0.157
		c-0.024,0.04-0.064,0.076-0.119,0.101c-0.054,0.024-0.134,0.041-0.233,0.05c-0.101,0.009-0.233,0.015-0.395,0.015
		c-0.175,0-0.31-0.007-0.409-0.02c-0.1-0.015-0.167-0.045-0.203-0.097c-0.039-0.052-0.052-0.125-0.041-0.217
		c0.012-0.096,0.041-0.22,0.085-0.377l2.265-7.675c0.024-0.076,0.048-0.139,0.079-0.186c0.032-0.045,0.079-0.081,0.145-0.107
		c0.066-0.022,0.156-0.039,0.275-0.046c0.116-0.008,0.273-0.011,0.466-0.011c0.222,0,0.4,0.003,0.534,0.011
		c0.132,0.007,0.234,0.024,0.308,0.046c0.074,0.026,0.128,0.061,0.16,0.111c0.032,0.049,0.06,0.115,0.082,0.202L21.695,46.904
		L21.695,46.904z M18.323,40.557h-0.008l-1.038,3.679h2.082L18.323,40.557L18.323,40.557z M25.889,41.921
		c0,0.162-0.003,0.291-0.011,0.395c-0.009,0.102-0.02,0.182-0.035,0.241c-0.014,0.057-0.034,0.099-0.059,0.119
		c-0.025,0.024-0.055,0.035-0.094,0.035c-0.029,0-0.065-0.009-0.101-0.024c-0.039-0.015-0.082-0.031-0.128-0.049
		c-0.048-0.021-0.101-0.035-0.156-0.05c-0.056-0.017-0.118-0.024-0.189-0.024c-0.079,0-0.158,0.018-0.238,0.053
		c-0.079,0.04-0.161,0.101-0.245,0.179c-0.086,0.079-0.175,0.187-0.268,0.323c-0.093,0.132-0.192,0.298-0.298,0.492v3.719
		c0,0.046-0.01,0.085-0.033,0.12c-0.023,0.033-0.063,0.061-0.115,0.081c-0.057,0.024-0.128,0.039-0.22,0.049
		c-0.091,0.013-0.205,0.02-0.346,0.02c-0.14,0-0.256-0.007-0.345-0.02c-0.092-0.009-0.164-0.025-0.219-0.049
		c-0.057-0.02-0.096-0.049-0.117-0.081c-0.022-0.035-0.035-0.074-0.035-0.12v-5.964c0-0.044,0.01-0.085,0.031-0.116
		c0.019-0.037,0.051-0.061,0.102-0.086c0.049-0.021,0.113-0.039,0.19-0.048c0.078-0.013,0.174-0.017,0.292-0.017
		c0.121,0,0.221,0.004,0.301,0.017c0.079,0.009,0.141,0.026,0.185,0.048c0.044,0.025,0.074,0.05,0.092,0.086
		c0.019,0.031,0.029,0.073,0.029,0.116v0.742c0.132-0.222,0.258-0.408,0.374-0.551c0.119-0.146,0.231-0.261,0.335-0.344
		c0.107-0.086,0.214-0.143,0.318-0.177c0.106-0.035,0.213-0.051,0.317-0.051c0.05,0,0.103,0.004,0.159,0.011
		c0.059,0.005,0.117,0.016,0.177,0.032c0.06,0.017,0.114,0.034,0.159,0.055c0.046,0.019,0.079,0.041,0.1,0.063
		c0.02,0.02,0.036,0.046,0.044,0.074c0.009,0.026,0.017,0.061,0.026,0.11c0.008,0.045,0.014,0.116,0.018,0.21
		C25.889,41.633,25.889,41.762,25.889,41.921L25.889,41.921z M31.199,41.781c0,0.213-0.022,0.373-0.065,0.474
		c-0.04,0.104-0.091,0.153-0.153,0.153h-0.595c0.084,0.108,0.142,0.23,0.179,0.367c0.037,0.133,0.054,0.276,0.054,0.423
		c0,0.347-0.05,0.656-0.147,0.928c-0.098,0.27-0.239,0.496-0.425,0.681c-0.181,0.185-0.404,0.327-0.663,0.421
		c-0.259,0.097-0.548,0.144-0.866,0.144c-0.162,0-0.317-0.023-0.465-0.07c-0.148-0.046-0.261-0.101-0.34-0.166
		c-0.047,0.061-0.087,0.129-0.122,0.209c-0.037,0.079-0.054,0.168-0.054,0.265c0,0.131,0.048,0.236,0.145,0.321
		c0.095,0.081,0.23,0.126,0.404,0.136l1.233,0.053c0.286,0.015,0.545,0.061,0.769,0.144c0.225,0.08,0.415,0.199,0.568,0.346
		c0.153,0.151,0.268,0.329,0.351,0.538c0.08,0.211,0.12,0.45,0.12,0.717c0,0.294-0.053,0.571-0.164,0.834
		c-0.109,0.261-0.273,0.485-0.492,0.677c-0.22,0.192-0.495,0.343-0.827,0.455C29.314,49.945,28.927,50,28.484,50
		c-0.431,0-0.799-0.039-1.105-0.119c-0.304-0.081-0.554-0.191-0.748-0.335c-0.196-0.141-0.338-0.312-0.426-0.511
		c-0.09-0.2-0.134-0.415-0.134-0.654c0-0.145,0.016-0.287,0.049-0.421c0.033-0.134,0.079-0.262,0.142-0.385
		c0.061-0.12,0.138-0.239,0.23-0.349c0.091-0.114,0.193-0.22,0.313-0.322c-0.163-0.103-0.289-0.242-0.379-0.419
		c-0.089-0.174-0.134-0.369-0.134-0.578c0-0.263,0.052-0.504,0.154-0.721c0.103-0.214,0.236-0.411,0.399-0.584
		c-0.134-0.157-0.241-0.343-0.321-0.562c-0.079-0.22-0.118-0.492-0.118-0.815c0-0.351,0.053-0.66,0.157-0.934
		c0.103-0.275,0.248-0.507,0.434-0.696c0.183-0.191,0.407-0.333,0.663-0.434c0.257-0.101,0.543-0.15,0.851-0.15
		c0.159,0,0.312,0.01,0.458,0.033c0.145,0.022,0.281,0.055,0.404,0.094h1.606c0.065,0,0.116,0.05,0.157,0.148
		C31.177,41.383,31.199,41.549,31.199,41.781L31.199,41.781z M29.364,43.193c0-0.321-0.077-0.572-0.228-0.751
		c-0.15-0.176-0.363-0.266-0.641-0.266c-0.138,0-0.262,0.027-0.367,0.083c-0.107,0.057-0.194,0.132-0.266,0.228
		c-0.069,0.095-0.121,0.207-0.155,0.333c-0.034,0.128-0.052,0.26-0.052,0.4c0,0.3,0.077,0.539,0.228,0.719
		c0.151,0.174,0.361,0.262,0.629,0.262c0.144,0,0.27-0.025,0.374-0.079c0.107-0.054,0.194-0.129,0.264-0.223
		c0.072-0.092,0.124-0.2,0.159-0.322C29.346,43.455,29.364,43.324,29.364,43.193L29.364,43.193z M29.699,47.955
		c0-0.202-0.068-0.355-0.203-0.462c-0.138-0.108-0.323-0.165-0.562-0.172l-1.017-0.035c-0.099,0.085-0.176,0.167-0.234,0.244
		c-0.06,0.076-0.107,0.153-0.144,0.223c-0.035,0.072-0.058,0.14-0.07,0.207c-0.011,0.067-0.017,0.135-0.017,0.209
		c0,0.223,0.094,0.391,0.286,0.506c0.192,0.118,0.462,0.175,0.808,0.175c0.217,0,0.4-0.027,0.547-0.077
		c0.147-0.052,0.265-0.12,0.356-0.204c0.092-0.085,0.155-0.177,0.195-0.283C29.679,48.181,29.699,48.071,29.699,47.955
		L29.699,47.955z M36.698,44.177c0,0.203-0.039,0.356-0.116,0.455c-0.078,0.097-0.185,0.144-0.321,0.144h-3.082
		c0,0.256,0.025,0.487,0.075,0.692c0.052,0.208,0.134,0.384,0.244,0.531c0.112,0.145,0.256,0.255,0.432,0.331
		c0.177,0.075,0.387,0.114,0.633,0.114c0.25,0,0.469-0.024,0.657-0.064c0.191-0.044,0.355-0.09,0.492-0.142
		c0.137-0.05,0.252-0.098,0.343-0.138c0.091-0.045,0.164-0.064,0.221-0.064c0.034,0,0.063,0.007,0.085,0.022
		c0.023,0.017,0.042,0.044,0.057,0.086c0.013,0.038,0.025,0.095,0.032,0.171c0.006,0.073,0.008,0.163,0.008,0.275
		c0,0.098-0.002,0.184-0.006,0.251c-0.004,0.068-0.01,0.126-0.018,0.178c-0.005,0.049-0.017,0.09-0.033,0.123
		c-0.015,0.035-0.035,0.068-0.061,0.097c-0.025,0.032-0.091,0.074-0.201,0.127c-0.111,0.052-0.25,0.105-0.421,0.157
		c-0.17,0.051-0.364,0.096-0.583,0.132c-0.221,0.039-0.454,0.057-0.705,0.057c-0.449,0-0.845-0.067-1.183-0.201
		c-0.337-0.133-0.621-0.335-0.849-0.607c-0.227-0.272-0.396-0.616-0.509-1.031c-0.11-0.415-0.166-0.9-0.166-1.458
		c0-0.53,0.057-1.01,0.176-1.433c0.117-0.429,0.287-0.787,0.509-1.087c0.225-0.296,0.496-0.521,0.816-0.676
		c0.321-0.158,0.68-0.235,1.081-0.235c0.424,0,0.786,0.073,1.087,0.222c0.301,0.145,0.549,0.351,0.74,0.61
		c0.194,0.261,0.336,0.569,0.426,0.928c0.091,0.356,0.135,0.745,0.135,1.163V44.177L36.698,44.177z M35.314,43.694
		c0.011-0.472-0.068-0.845-0.24-1.114c-0.173-0.27-0.438-0.404-0.797-0.404c-0.182,0-0.34,0.039-0.473,0.117
		c-0.137,0.082-0.246,0.191-0.336,0.324c-0.09,0.138-0.157,0.297-0.205,0.483c-0.046,0.185-0.074,0.384-0.081,0.594H35.314
		L35.314,43.694z M42.711,47.33c0,0.046-0.011,0.085-0.032,0.12c-0.024,0.033-0.062,0.061-0.115,0.081
		c-0.053,0.024-0.126,0.039-0.219,0.049c-0.093,0.013-0.207,0.02-0.343,0.02c-0.14,0-0.256-0.007-0.349-0.02
		c-0.093-0.009-0.167-0.025-0.22-0.049c-0.051-0.02-0.091-0.049-0.114-0.081c-0.021-0.035-0.033-0.074-0.033-0.12v-3.402
		c0-0.292-0.017-0.517-0.054-0.684c-0.037-0.164-0.088-0.307-0.156-0.424c-0.068-0.118-0.156-0.209-0.263-0.276
		c-0.107-0.064-0.233-0.094-0.379-0.094c-0.18,0-0.363,0.075-0.55,0.233c-0.185,0.157-0.378,0.384-0.58,0.682v3.965
		c0,0.046-0.011,0.085-0.032,0.12c-0.024,0.033-0.063,0.061-0.117,0.081c-0.056,0.024-0.127,0.039-0.219,0.049
		c-0.092,0.013-0.205,0.02-0.347,0.02c-0.139,0-0.256-0.007-0.344-0.02c-0.092-0.009-0.165-0.025-0.22-0.049
		c-0.056-0.02-0.094-0.049-0.115-0.081c-0.023-0.035-0.035-0.074-0.035-0.12v-5.964c0-0.044,0.009-0.085,0.029-0.116
		c0.02-0.037,0.052-0.061,0.103-0.086c0.049-0.021,0.113-0.039,0.191-0.048c0.077-0.013,0.174-0.017,0.292-0.017
		c0.121,0,0.221,0.004,0.301,0.017c0.079,0.009,0.141,0.026,0.185,0.048c0.044,0.025,0.074,0.05,0.092,0.086
		c0.02,0.031,0.028,0.073,0.028,0.116v0.689c0.281-0.356,0.566-0.626,0.856-0.804c0.288-0.179,0.591-0.268,0.904-0.268
		c0.345,0,0.635,0.067,0.871,0.202c0.237,0.134,0.429,0.315,0.574,0.544c0.146,0.228,0.251,0.497,0.315,0.807
		c0.065,0.308,0.096,0.678,0.096,1.108V47.33L42.711,47.33z M47.946,46.382c0,0.114-0.004,0.214-0.009,0.292
		c-0.006,0.077-0.014,0.144-0.021,0.196c-0.01,0.055-0.021,0.097-0.035,0.131c-0.013,0.034-0.043,0.078-0.088,0.128
		c-0.046,0.05-0.124,0.114-0.234,0.186c-0.108,0.074-0.233,0.14-0.374,0.197c-0.139,0.06-0.292,0.106-0.457,0.141
		c-0.164,0.037-0.333,0.053-0.508,0.053c-0.389,0-0.734-0.071-1.036-0.213c-0.301-0.143-0.552-0.354-0.757-0.632
		c-0.204-0.277-0.36-0.619-0.462-1.021c-0.104-0.401-0.157-0.86-0.157-1.377c0-0.598,0.065-1.113,0.191-1.55
		c0.128-0.434,0.304-0.794,0.531-1.079c0.227-0.286,0.496-0.498,0.806-0.634c0.309-0.14,0.651-0.209,1.022-0.209
		c0.152,0,0.299,0.015,0.445,0.047c0.148,0.032,0.283,0.074,0.409,0.126c0.128,0.056,0.241,0.114,0.342,0.18
		c0.1,0.07,0.17,0.127,0.212,0.174c0.041,0.05,0.073,0.092,0.088,0.126c0.018,0.032,0.031,0.076,0.04,0.131
		c0.01,0.051,0.018,0.119,0.024,0.195c0.005,0.079,0.008,0.176,0.008,0.286c0,0.258-0.02,0.44-0.056,0.546
		c-0.039,0.103-0.088,0.153-0.147,0.153c-0.067,0-0.134-0.028-0.206-0.092c-0.073-0.061-0.157-0.133-0.256-0.206
		c-0.097-0.077-0.214-0.147-0.351-0.207c-0.138-0.064-0.3-0.094-0.488-0.094c-0.373,0-0.655,0.167-0.852,0.504
		c-0.195,0.335-0.295,0.831-0.295,1.481c0,0.32,0.023,0.603,0.074,0.851c0.05,0.244,0.122,0.45,0.22,0.614
		c0.095,0.167,0.216,0.288,0.363,0.371c0.144,0.084,0.315,0.123,0.508,0.123c0.197,0,0.365-0.033,0.508-0.103
		c0.143-0.068,0.266-0.145,0.371-0.23c0.107-0.084,0.195-0.161,0.268-0.231c0.072-0.07,0.133-0.104,0.181-0.104
		c0.035,0,0.062,0.012,0.085,0.034c0.023,0.024,0.04,0.064,0.055,0.125c0.014,0.057,0.023,0.136,0.031,0.229
		C47.942,46.115,47.946,46.237,47.946,46.382L47.946,46.382z M53.225,47.352c0,0.064-0.019,0.112-0.058,0.15
		c-0.037,0.033-0.098,0.059-0.178,0.074c-0.082,0.017-0.202,0.025-0.362,0.025c-0.17,0-0.295-0.008-0.371-0.025
		c-0.078-0.015-0.133-0.041-0.164-0.074c-0.032-0.037-0.05-0.085-0.05-0.15v-0.475c-0.208,0.262-0.445,0.469-0.71,0.616
		c-0.269,0.146-0.564,0.22-0.889,0.22c-0.27,0-0.516-0.04-0.74-0.123c-0.225-0.082-0.421-0.204-0.587-0.369
		c-0.164-0.16-0.292-0.364-0.382-0.603c-0.092-0.241-0.136-0.522-0.136-0.842c0-0.349,0.058-0.651,0.172-0.908
		c0.117-0.257,0.289-0.466,0.517-0.637c0.229-0.166,0.514-0.289,0.854-0.369c0.343-0.08,0.738-0.122,1.186-0.122h0.494v-0.36
		c0-0.186-0.016-0.352-0.049-0.49c-0.031-0.143-0.085-0.259-0.159-0.351c-0.074-0.096-0.172-0.162-0.293-0.209
		c-0.126-0.044-0.276-0.066-0.458-0.066c-0.238,0-0.451,0.03-0.639,0.094c-0.186,0.061-0.354,0.131-0.497,0.208
		c-0.143,0.075-0.263,0.144-0.36,0.206c-0.098,0.062-0.174,0.093-0.237,0.093c-0.04,0-0.078-0.014-0.111-0.044
		c-0.03-0.032-0.058-0.077-0.079-0.136c-0.02-0.057-0.037-0.129-0.048-0.213c-0.012-0.085-0.016-0.179-0.016-0.284
		c0-0.135,0.008-0.245,0.027-0.326c0.019-0.079,0.056-0.152,0.109-0.217c0.052-0.066,0.146-0.137,0.277-0.214
		c0.132-0.078,0.288-0.151,0.467-0.217c0.177-0.068,0.372-0.122,0.581-0.164c0.209-0.044,0.426-0.064,0.65-0.064
		c0.397,0,0.738,0.046,1.019,0.137c0.281,0.092,0.512,0.233,0.694,0.423c0.183,0.189,0.315,0.433,0.398,0.733
		c0.082,0.297,0.126,0.652,0.126,1.06V47.352L53.225,47.352z M51.823,44.796h-0.544c-0.231,0-0.428,0.021-0.592,0.061
		c-0.162,0.04-0.293,0.099-0.397,0.18c-0.103,0.081-0.176,0.178-0.224,0.292c-0.046,0.114-0.071,0.244-0.071,0.391
		c0,0.25,0.067,0.447,0.202,0.588c0.134,0.144,0.321,0.215,0.559,0.215c0.201,0,0.386-0.057,0.553-0.18
		c0.169-0.12,0.338-0.297,0.514-0.529V44.796L51.823,44.796z M57.902,41.921c0,0.162-0.004,0.291-0.011,0.395
		c-0.008,0.102-0.02,0.182-0.036,0.241c-0.013,0.057-0.034,0.099-0.058,0.119c-0.025,0.024-0.056,0.035-0.094,0.035
		c-0.029,0-0.065-0.009-0.101-0.024c-0.039-0.015-0.082-0.031-0.128-0.049c-0.048-0.021-0.101-0.035-0.157-0.05
		c-0.056-0.017-0.119-0.024-0.189-0.024c-0.079,0-0.158,0.018-0.238,0.053c-0.079,0.04-0.161,0.101-0.245,0.179
		c-0.085,0.079-0.174,0.187-0.267,0.323c-0.094,0.132-0.192,0.298-0.298,0.492v3.719c0,0.046-0.011,0.085-0.033,0.12
		c-0.024,0.033-0.062,0.061-0.116,0.081c-0.056,0.024-0.127,0.039-0.219,0.049c-0.091,0.013-0.205,0.02-0.347,0.02
		c-0.139,0-0.256-0.007-0.345-0.02c-0.091-0.009-0.164-0.025-0.219-0.049c-0.056-0.02-0.095-0.049-0.116-0.081
		c-0.022-0.035-0.035-0.074-0.035-0.12v-5.964c0-0.044,0.01-0.085,0.03-0.116c0.019-0.037,0.052-0.061,0.103-0.086
		c0.048-0.021,0.113-0.039,0.189-0.048c0.079-0.013,0.175-0.017,0.293-0.017c0.12,0,0.22,0.004,0.3,0.017
		c0.08,0.009,0.142,0.026,0.185,0.048c0.043,0.025,0.074,0.05,0.092,0.086c0.019,0.031,0.028,0.073,0.028,0.116v0.742
		c0.132-0.222,0.257-0.408,0.374-0.551c0.118-0.146,0.231-0.261,0.335-0.344c0.107-0.086,0.213-0.143,0.317-0.177
		c0.107-0.035,0.214-0.051,0.318-0.051c0.05,0,0.103,0.004,0.159,0.011c0.058,0.005,0.116,0.016,0.176,0.032
		c0.06,0.017,0.115,0.034,0.16,0.055c0.045,0.019,0.079,0.041,0.099,0.063c0.02,0.02,0.036,0.046,0.045,0.074
		c0.009,0.026,0.017,0.061,0.026,0.11c0.007,0.045,0.013,0.116,0.017,0.21C57.9,41.633,57.902,41.762,57.902,41.921L57.902,41.921z
		 M63.443,47.33c0,0.052-0.008,0.092-0.029,0.127c-0.019,0.033-0.05,0.058-0.096,0.082c-0.044,0.023-0.107,0.039-0.184,0.047
		c-0.078,0.009-0.173,0.015-0.286,0.015c-0.12,0-0.22-0.005-0.295-0.015c-0.074-0.009-0.137-0.024-0.186-0.047
		c-0.046-0.024-0.081-0.049-0.099-0.082c-0.022-0.034-0.032-0.074-0.032-0.127V46.67c-0.262,0.331-0.534,0.585-0.821,0.77
		c-0.285,0.181-0.604,0.273-0.95,0.273c-0.387,0-0.713-0.086-0.981-0.262c-0.266-0.176-0.484-0.415-0.652-0.713
		c-0.168-0.299-0.292-0.651-0.367-1.047c-0.075-0.402-0.113-0.821-0.113-1.261c0-0.533,0.05-1.01,0.145-1.431
		c0.096-0.425,0.238-0.786,0.423-1.085c0.185-0.299,0.417-0.527,0.692-0.687c0.277-0.162,0.595-0.242,0.953-0.242
		c0.285,0,0.543,0.068,0.774,0.204c0.229,0.136,0.458,0.334,0.686,0.598v-3.229c0-0.046,0.012-0.085,0.031-0.12
		c0.021-0.038,0.061-0.068,0.114-0.094c0.055-0.02,0.128-0.042,0.22-0.056c0.091-0.011,0.204-0.019,0.345-0.019
		c0.142,0,0.256,0.008,0.347,0.019c0.091,0.014,0.162,0.035,0.215,0.056c0.055,0.026,0.091,0.056,0.114,0.094
		c0.024,0.035,0.034,0.074,0.034,0.12V47.33L63.443,47.33z M62.024,43.346c-0.203-0.304-0.399-0.535-0.587-0.693
		c-0.188-0.164-0.384-0.244-0.587-0.244c-0.186,0-0.345,0.055-0.481,0.165c-0.133,0.109-0.241,0.256-0.323,0.439
		c-0.08,0.182-0.141,0.386-0.182,0.612c-0.038,0.226-0.057,0.455-0.057,0.691c0,0.249,0.017,0.494,0.05,0.728
		c0.034,0.238,0.089,0.448,0.168,0.632c0.077,0.186,0.18,0.333,0.308,0.446c0.13,0.111,0.292,0.167,0.488,0.167
		c0.099,0,0.193-0.016,0.287-0.05c0.092-0.032,0.187-0.086,0.285-0.162c0.095-0.077,0.196-0.175,0.295-0.299
		c0.104-0.121,0.217-0.272,0.337-0.451V43.346L62.024,43.346z"/>
</g>
</svg>
