<?xml version="1.0" encoding="iso-8859-1"?>
<!-- Generator: Adobe Illustrator 18.1.1, SVG Export Plug-In . SVG Version: 6.00 Build 0)  -->
<svg version="1.1" id="Header" xmlns="http://www.w3.org/2000/svg" xmlns:xlink="http://www.w3.org/1999/xlink" x="0px" y="0px"
	 viewBox="0 0 75 50" style="enable-background:new 0 0 75 50;" xml:space="preserve">
<g>
	<polygon style="fill-rule:evenodd;clip-rule:evenodd;fill:#1285C7;" points="0,0.366 75,0.366 75,50 0,50 0,0.366 	"/>
	<path style="fill-rule:evenodd;clip-rule:evenodd;fill:#FEDC68;" d="M37.507,8.383c8.217,0,14.878,6.661,14.878,14.876
		c0,8.215-6.661,14.878-14.878,14.878c-8.214,0-14.876-6.662-14.876-14.878C22.631,15.044,29.293,8.383,37.507,8.383L37.507,8.383z"
		/>
	<path style="fill-rule:evenodd;clip-rule:evenodd;fill:#EB212D;" d="M35.439,17.162c14.64,0,28.248,2.444,39.561,6.629V50H0V22.379
		C10.434,19.061,22.536,17.162,35.439,17.162L35.439,17.162z"/>
	<path style="fill-rule:evenodd;clip-rule:evenodd;fill:#FEDC68;" d="M35.439,24.678c14.64,0,28.248,2.444,39.561,6.629V50H0V29.892
		C10.434,26.574,22.536,24.678,35.439,24.678L35.439,24.678z"/>
	<path style="fill:#1285C7;" d="M15.749,40.858l5.774-8.023h2.143l6.153,8.023h-2.266l-1.755-2.429h-6.285l-1.652,2.429H15.749z
		 M20.087,37.563h5.096l-1.569-2.222c-0.479-0.675-0.833-1.228-1.066-1.661c-0.192,0.514-0.461,1.024-0.809,1.531L20.087,37.563z
		 M38.309,40.858v-0.854c-0.848,0.658-2,0.987-3.456,0.987c-0.643,0-1.242-0.067-1.8-0.199c-0.556-0.13-0.971-0.296-1.24-0.495
		c-0.271-0.2-0.459-0.445-0.57-0.732c-0.075-0.194-0.113-0.499-0.113-0.92v-3.6h1.846v3.221c0,0.515,0.038,0.861,0.113,1.041
		c0.116,0.26,0.364,0.461,0.74,0.611c0.375,0.147,0.841,0.222,1.392,0.222c0.554,0,1.074-0.077,1.559-0.227
		c0.488-0.153,0.829-0.359,1.031-0.619c0.203-0.262,0.303-0.64,0.303-1.136v-3.113h1.846v5.811H38.309z M42.831,40.858v-5.811h1.661
		v0.88c0.424-0.412,0.815-0.683,1.174-0.816c0.359-0.13,0.754-0.196,1.185-0.196c0.624,0,1.254,0.104,1.898,0.317l-0.636,0.915
		c-0.451-0.143-0.902-0.214-1.354-0.214c-0.402,0-0.765,0.065-1.086,0.196c-0.321,0.129-0.55,0.309-0.687,0.538
		c-0.206,0.353-0.308,0.733-0.308,1.15v3.043H42.831z M56.951,40.142c-0.683,0.309-1.342,0.528-1.972,0.655
		c-0.634,0.129-1.312,0.194-2.036,0.194c-1.198,0-2.117-0.159-2.759-0.47c-0.642-0.311-0.963-0.711-0.963-1.196
		c0-0.287,0.121-0.544,0.361-0.78c0.244-0.236,0.562-0.425,0.956-0.566c0.391-0.142,0.835-0.251,1.328-0.324
		c0.361-0.051,0.908-0.098,1.639-0.147c1.491-0.094,2.588-0.209,3.292-0.342c0.006-0.133,0.01-0.219,0.01-0.255
		c0-0.402-0.174-0.682-0.522-0.848c-0.473-0.221-1.173-0.335-2.102-0.335c-0.869,0-1.51,0.081-1.924,0.243
		c-0.413,0.163-0.72,0.449-0.918,0.861l-1.804-0.13c0.164-0.411,0.433-0.744,0.811-0.999c0.375-0.252,0.918-0.447,1.63-0.584
		c0.71-0.137,1.535-0.206,2.472-0.206c0.929,0,1.685,0.057,2.265,0.176c0.581,0.115,1.009,0.263,1.282,0.441
		c0.273,0.176,0.465,0.398,0.576,0.668c0.061,0.17,0.09,0.471,0.09,0.91v1.315c0,0.915,0.04,1.493,0.119,1.736
		c0.076,0.242,0.233,0.475,0.467,0.698h-1.93C57.128,40.654,57.006,40.415,56.951,40.142z M56.798,37.941
		c-0.67,0.148-1.675,0.27-3.015,0.372c-0.76,0.058-1.296,0.124-1.611,0.198c-0.314,0.071-0.555,0.18-0.728,0.318
		c-0.17,0.143-0.255,0.298-0.255,0.47c0,0.262,0.187,0.482,0.558,0.658c0.374,0.175,0.918,0.262,1.637,0.262
		c0.71,0,1.342-0.084,1.897-0.249c0.554-0.167,0.96-0.393,1.221-0.681c0.198-0.225,0.296-0.553,0.296-0.986V37.941z"/>
</g>
</svg>
