<?xml version="1.0" encoding="iso-8859-1"?>
<!-- Generator: Adobe Illustrator 18.1.1, SVG Export Plug-In . SVG Version: 6.00 Build 0)  -->
<svg version="1.1" id="Header" xmlns="http://www.w3.org/2000/svg" xmlns:xlink="http://www.w3.org/1999/xlink" x="0px" y="0px"
	 viewBox="0 0 75 50" style="enable-background:new 0 0 75 50;" xml:space="preserve">
<g>
	<polygon style="fill-rule:evenodd;clip-rule:evenodd;fill:#222221;" points="12,0 62,0 62,50 12,50 12,0 	"/>
	<polygon style="fill-rule:evenodd;clip-rule:evenodd;fill:#FFFFFF;" points="56.886,5.111 17.113,5.111 17.113,44.889 
		56.886,44.889 56.886,44.336 	"/>
	<polygon style="fill-rule:evenodd;clip-rule:evenodd;fill:#203F7A;" points="55.414,43.41 55.414,6.587 18.587,6.587 18.587,43.41 
		55.414,43.41 	"/>
	<path style="fill-rule:evenodd;clip-rule:evenodd;fill:#FFFFFF;" d="M42.512,21.445l-5.022-5.024v-4.644l9.658,9.662l-9.658,9.66
		V26.47L42.512,21.445L42.512,21.445z M31.455,21.445l5.032-5.024v-4.648l-9.667,9.665l9.667,9.668v-4.633L31.455,21.445
		L31.455,21.445z M29.113,32.82c-0.141,0.151-0.278,0.227-0.419,0.227c-0.069,0-0.195-0.024-0.372-0.076
		c-0.347-0.1-0.638-0.151-0.868-0.151c-0.615,0-1.238,0.176-1.853,0.523c-0.623,0.355-1.104,0.808-1.433,1.373
		c-0.329,0.568-0.498,1.164-0.498,1.784c0,0.668,0.212,1.206,0.629,1.616c0.417,0.416,0.965,0.621,1.642,0.621
		c0.51,0,0.941-0.105,1.295-0.313c0.348-0.21,0.698-0.572,1.043-1.086h-0.2c-0.281,0.324-0.552,0.559-0.829,0.702
		c-0.269,0.146-0.572,0.215-0.908,0.215c-0.406,0-0.726-0.122-0.96-0.373c-0.239-0.255-0.355-0.622-0.355-1.096
		c0-0.537,0.107-1.075,0.319-1.622c0.264-0.675,0.59-1.182,0.97-1.509c0.378-0.329,0.765-0.488,1.146-0.488
		c0.356,0,0.648,0.117,0.867,0.357c0.219,0.239,0.343,0.608,0.365,1.094h0.158l0.417-1.797H29.113L29.113,32.82z M32.382,34.6
		l-1.577,1.843h1.47L32.382,34.6L32.382,34.6z M32.121,38.155c0.063-0.126,0.1-0.343,0.12-0.65l0.034-0.72h-1.754l-0.356,0.433
		l-0.395,0.48c-0.078,0.103-0.134,0.196-0.171,0.28c-0.032,0.068-0.039,0.13-0.039,0.194c0,0.065,0.034,0.126,0.1,0.184
		c0.077,0.054,0.19,0.09,0.355,0.097v0.156h-1.686l0.042-0.156c0.155-0.025,0.281-0.078,0.398-0.16
		c0.161-0.108,0.38-0.336,0.674-0.688l4.011-4.786h0.185l-0.185,4.637c-0.008,0.239-0.017,0.388-0.017,0.432
		c0,0.191,0.042,0.328,0.12,0.418c0.074,0.084,0.2,0.134,0.379,0.147L33.89,38.61H31.44l0.051-0.156
		c0.242-0.021,0.377-0.043,0.419-0.06C31.987,38.356,32.055,38.272,32.121,38.155L32.121,38.155z M37.98,33.251l-0.231,0.005
		l-0.638,2.194c0.379-0.004,0.673-0.065,0.897-0.178c0.214-0.115,0.393-0.302,0.524-0.564c0.134-0.261,0.198-0.501,0.198-0.732
		c0-0.22-0.069-0.397-0.203-0.532C38.391,33.31,38.207,33.241,37.98,33.251L37.98,33.251z M36.326,33.219
		c-0.084-0.066-0.261-0.102-0.538-0.113l0.041-0.156h2.237c0.502,0,0.857,0.033,1.069,0.083c0.281,0.065,0.503,0.198,0.656,0.386
		c0.151,0.195,0.227,0.416,0.227,0.656c0,0.205-0.061,0.406-0.187,0.616c-0.116,0.206-0.302,0.38-0.547,0.516
		c-0.244,0.134-0.616,0.261-1.121,0.373c0.532,0.148,0.889,0.335,1.098,0.569c0.2,0.227,0.301,0.498,0.301,0.806
		c0,0.285-0.101,0.568-0.301,0.847c-0.205,0.278-0.465,0.484-0.793,0.614c-0.338,0.125-0.945,0.194-1.822,0.194h-2.354l0.052-0.156
		c0.231,0,0.394-0.021,0.488-0.063c0.104-0.043,0.178-0.106,0.239-0.193c0.057-0.084,0.134-0.272,0.219-0.548l1.001-3.483
		c0.105-0.354,0.153-0.588,0.153-0.707C36.445,33.364,36.41,33.284,36.326,33.219L36.326,33.219 M37.759,35.85
		c-0.153-0.056-0.395-0.09-0.748-0.09l-0.719,2.517c0.134,0.009,0.237,0.013,0.312,0.013c0.616,0,1.047-0.176,1.291-0.523
		c0.244-0.345,0.363-0.716,0.363-1.11c0-0.191-0.044-0.356-0.134-0.503C38.024,36.006,37.906,35.905,37.759,35.85 M43.778,34.6
		l-1.57,1.843h1.464L43.778,34.6L43.778,34.6z M43.515,38.155c0.066-0.126,0.101-0.343,0.116-0.65l0.04-0.72h-1.749l-0.353,0.433
		l-0.404,0.48c-0.078,0.103-0.135,0.196-0.17,0.28c-0.029,0.068-0.042,0.13-0.042,0.194c0,0.065,0.034,0.126,0.109,0.184
		c0.067,0.054,0.183,0.09,0.352,0.097v0.156h-1.694l0.044-0.156c0.149-0.025,0.285-0.078,0.402-0.16
		c0.154-0.108,0.383-0.336,0.668-0.688l4.011-4.786h0.185l-0.185,4.637c-0.008,0.239-0.008,0.388-0.008,0.432
		c0,0.191,0.032,0.328,0.11,0.418c0.075,0.084,0.203,0.134,0.382,0.147l-0.044,0.156h-2.444l0.039-0.156
		c0.246-0.021,0.387-0.043,0.422-0.06C43.381,38.356,43.446,38.272,43.515,38.155L43.515,38.155z M50.857,37.021h-0.18
		c-0.296,0.421-0.656,0.739-1.089,0.948c-0.429,0.21-0.877,0.321-1.335,0.321c-0.138,0-0.239-0.03-0.306-0.076
		c-0.059-0.047-0.093-0.1-0.093-0.156c0-0.094,0.066-0.351,0.183-0.772l0.963-3.326c0.099-0.339,0.214-0.566,0.345-0.677
		c0.125-0.115,0.32-0.173,0.585-0.178l0.046-0.156h-2.711l-0.054,0.156c0.246,0.011,0.414,0.052,0.488,0.12
		c0.095,0.062,0.127,0.154,0.127,0.266c0,0.113-0.024,0.27-0.084,0.469l-1.052,3.633c-0.103,0.366-0.22,0.598-0.347,0.704
		c-0.121,0.104-0.317,0.156-0.59,0.156l-0.042,0.156h4.518L50.857,37.021L50.857,37.021z"/>
</g>
</svg>
