<?xml version="1.0" encoding="utf-8"?>
<!-- Generator: Adobe Illustrator 16.0.4, SVG Export Plug-In . SVG Version: 6.00 Build 0)  -->
<!DOCTYPE svg PUBLIC "-//W3C//DTD SVG 1.1//EN" "http://www.w3.org/Graphics/SVG/1.1/DTD/svg11.dtd">
<svg version="1.1" id="Layer_1" xmlns="http://www.w3.org/2000/svg" xmlns:xlink="http://www.w3.org/1999/xlink" x="0px" y="0px"
	 width="76px" height="50px" viewBox="0 0 76 50" enable-background="new 0 0 76 50" xml:space="preserve">
<path fill="#F4F4F4" d="M76,47c0,1.656-1.344,3-3,3H3c-1.656,0-3-1.344-3-3V3c0-1.657,1.344-3,3-3h70c1.656,0,3,1.343,3,3V47z"/>
<g>
	<path id="Shape" fill="#4186CD" d="M41.297,40.24c8.316,0.039,15.906-6.795,15.906-15.109c0-9.091-7.59-15.375-15.906-15.372
		h-7.158c-8.415-0.003-15.342,6.283-15.342,15.372c0,8.316,6.927,15.148,15.342,15.109H41.297L41.297,40.24z"/>
	<path id="Shape_1_" fill="#FFFFFF" d="M34.036,10.979C26.293,10.981,20.019,17.256,20.017,25
		c0.002,7.744,6.277,14.017,14.019,14.019C41.781,39.018,48.057,32.744,48.059,25C48.057,17.256,41.781,10.981,34.036,10.979
		L34.036,10.979z M25.503,24.696L25.503,24.696c0.007-3.756,2.281-6.959,5.487-8.23v16.46C27.784,31.652,25.51,28.451,25.503,24.696
		L25.503,24.696z M37.085,32.926L37.085,32.926v-16.46c3.206,1.269,5.481,4.473,5.487,8.229
		C42.566,28.451,40.291,31.652,37.085,32.926L37.085,32.926z"/>
</g>
</svg>
