<?xml version="1.0" encoding="utf-8"?>
<!-- Generator: Adobe Illustrator 16.0.4, SVG Export Plug-In . SVG Version: 6.00 Build 0)  -->
<!DOCTYPE svg PUBLIC "-//W3C//DTD SVG 1.1//EN" "http://www.w3.org/Graphics/SVG/1.1/DTD/svg11.dtd">
<svg version="1.1" id="Layer_1" xmlns="http://www.w3.org/2000/svg" xmlns:xlink="http://www.w3.org/1999/xlink" x="0px" y="0px"
	 width="76px" height="50px" viewBox="0 0 76 50" enable-background="new 0 0 76 50" xml:space="preserve">
<path fill="#F4F4F4" d="M76,47c0,1.656-1.344,3-3,3H3c-1.656,0-3-1.344-3-3V3c0-1.657,1.344-3,3-3h70c1.656,0,3,1.343,3,3V47z"/>
<g>
	<path d="M10.133,19.604h3.201c0.536,0,1.052,0.083,1.55,0.247c0.497,0.165,0.937,0.416,1.319,0.751
		c0.383,0.336,0.688,0.759,0.918,1.268c0.23,0.509,0.345,1.108,0.345,1.795c0,0.697-0.132,1.3-0.396,1.808
		c-0.264,0.509-0.604,0.93-1.021,1.263c-0.417,0.333-0.88,0.582-1.388,0.745c-0.509,0.166-1.008,0.247-1.498,0.247h-3.03V19.604z
		 M12.658,26.42c0.451,0,0.877-0.051,1.279-0.154c0.401-0.103,0.751-0.264,1.05-0.481c0.298-0.218,0.533-0.501,0.706-0.851
		c0.172-0.346,0.258-0.77,0.258-1.268c0-0.489-0.076-0.91-0.229-1.262c-0.153-0.351-0.365-0.636-0.637-0.854
		c-0.271-0.218-0.593-0.378-0.964-0.482c-0.371-0.103-0.778-0.155-1.222-0.155h-1.32v5.507H12.658z M18.808,19.604h1.446v8.124
		h-1.446V19.604z M26.015,21.349c-0.153-0.222-0.357-0.385-0.614-0.488c-0.256-0.104-0.526-0.155-0.809-0.155
		c-0.168,0-0.331,0.019-0.488,0.056c-0.157,0.039-0.298,0.101-0.424,0.184c-0.126,0.084-0.228,0.193-0.304,0.327
		s-0.115,0.293-0.115,0.477c0,0.275,0.096,0.486,0.287,0.63c0.191,0.146,0.428,0.271,0.711,0.379
		c0.283,0.107,0.593,0.211,0.929,0.31c0.337,0.101,0.647,0.237,0.93,0.414c0.283,0.176,0.521,0.409,0.711,0.7
		c0.191,0.29,0.287,0.677,0.287,1.159c0,0.436-0.081,0.815-0.241,1.141c-0.161,0.326-0.377,0.595-0.648,0.81
		s-0.587,0.375-0.947,0.481c-0.359,0.107-0.738,0.162-1.136,0.162c-0.505,0-0.991-0.085-1.458-0.253s-0.868-0.452-1.205-0.85
		l1.09-1.056c0.176,0.268,0.407,0.477,0.694,0.625c0.287,0.148,0.591,0.225,0.912,0.225c0.168,0,0.337-0.023,0.505-0.069
		c0.168-0.045,0.322-0.114,0.459-0.207c0.137-0.092,0.249-0.208,0.333-0.35s0.126-0.304,0.126-0.487
		c0-0.299-0.096-0.528-0.287-0.688c-0.191-0.162-0.428-0.297-0.711-0.408s-0.593-0.217-0.93-0.314
		c-0.336-0.102-0.646-0.236-0.93-0.408c-0.283-0.172-0.52-0.402-0.711-0.688c-0.191-0.287-0.287-0.671-0.287-1.153
		c0-0.42,0.086-0.784,0.258-1.091c0.172-0.305,0.397-0.56,0.677-0.762c0.279-0.203,0.599-0.354,0.958-0.453
		c0.359-0.1,0.727-0.149,1.102-0.149c0.429,0,0.843,0.065,1.245,0.194c0.401,0.13,0.763,0.344,1.084,0.643c0,0-0.321-0.298,0,0
		L26.015,21.349z M34.196,21.509c-0.297-0.321-0.587-0.535-0.866-0.643c-0.28-0.107-0.56-0.16-0.843-0.16
		c-0.421,0-0.801,0.074-1.142,0.224c-0.341,0.149-0.633,0.355-0.878,0.62s-0.435,0.571-0.569,0.923s-0.201,0.73-0.201,1.137
		c0,0.436,0.067,0.837,0.201,1.205c0.134,0.367,0.324,0.685,0.569,0.952s0.537,0.478,0.878,0.631c0.34,0.153,0.721,0.23,1.142,0.23
		c0.329,0,0.648-0.079,0.958-0.236c0.31-0.156,0.599-0.406,0.866-0.752l1.194,0.85c-0.367,0.505-0.814,0.873-1.343,1.102
		c-0.527,0.229-1.091,0.346-1.687,0.346c-0.628,0-1.204-0.103-1.728-0.305c-0.524-0.203-0.976-0.49-1.354-0.861
		s-0.675-0.817-0.889-1.337s-0.321-1.098-0.321-1.732c0-0.65,0.107-1.241,0.321-1.772s0.511-0.985,0.889-1.36
		c0.378-0.374,0.83-0.664,1.354-0.866s1.1-0.304,1.728-0.304c0.55,0,1.061,0.097,1.532,0.292c0.471,0.196,0.908,0.527,1.314,0.993
		c0,0-0.406-0.466,0,0L34.196,21.509z M45.098,19.604h1.664l2.215,6.14l2.283-6.14h1.562l-3.283,8.124h-1.251L45.098,19.604z
		 M53.692,19.604h5.382v1.308h-3.936v1.997h3.729v1.308h-3.729v2.203h4.143v1.309h-5.589V19.604z M60.704,19.604h2.822
		c0.391,0,0.767,0.037,1.131,0.109c0.363,0.072,0.687,0.197,0.97,0.374c0.282,0.176,0.509,0.412,0.677,0.711
		c0.168,0.297,0.253,0.677,0.253,1.135c0,0.59-0.163,1.083-0.488,1.48c-0.325,0.398-0.79,0.639-1.394,0.723l2.157,3.592h-1.745
		l-1.882-3.442h-1.056v3.442h-1.445V19.604z M63.273,23.047c0.207,0,0.414-0.01,0.621-0.028c0.206-0.02,0.396-0.065,0.567-0.138
		s0.312-0.184,0.419-0.332c0.106-0.15,0.16-0.358,0.16-0.626c0-0.237-0.05-0.429-0.148-0.573c-0.1-0.146-0.229-0.255-0.391-0.327
		c-0.16-0.072-0.338-0.121-0.533-0.144s-0.384-0.035-0.568-0.035h-1.251v2.203H63.273z"/>
	<circle id="Oval-1" fill="#D97B16" cx="40.697" cy="23.67" r="4.271"/>
</g>
<path id="Rectangle-1-copy" fill="#D97B16" d="M38.784,50c14.483,0,31.128,0,33.173,0C74.652,50,76,48.652,76,45.957V29.929
	C76,29.929,67.968,44.071,38.784,50z"/>
</svg>
