<?xml version="1.0" encoding="iso-8859-1"?>
<!-- Generator: Adobe Illustrator 18.1.1, SVG Export Plug-In . SVG Version: 6.00 Build 0)  -->
<svg version="1.1" id="Header" xmlns="http://www.w3.org/2000/svg" xmlns:xlink="http://www.w3.org/1999/xlink" x="0px" y="0px"
	 viewBox="0 0 75 50" style="enable-background:new 0 0 75 50;" xml:space="preserve">
<g>
	<path style="fill-rule:evenodd;clip-rule:evenodd;" d="M37,0c13.807,0,25,11.193,25,25c0,13.807-11.193,25-25,25S12,38.807,12,25
		C12,11.193,23.193,0,37,0L37,0z"/>
	<g>
		<path style="fill-rule:evenodd;clip-rule:evenodd;fill:#FFFFFF;" d="M26.433,18.376c3.545,0,6.517,2.477,7.312,5.811l-3.031,1.339
			l-0.001-0.006l-3.101,1.376l-7.439,3.285c-0.796-1.205-1.26-2.652-1.26-4.209C18.912,21.777,22.279,18.376,26.433,18.376
			L26.433,18.376z M29.661,23.099l-7.513,3.27c-0.012-0.131-0.018-0.263-0.018-0.397c0-2.4,1.926-4.346,4.303-4.346
			C27.719,21.626,28.873,22.196,29.661,23.099L29.661,23.099z M31.688,31.405L29.44,29.08c-1.798,1.425-3.587,1.6-5.368,0.525
			l-1.769,2.716C25.433,34.24,28.996,33.986,31.688,31.405L31.688,31.405z M34.751,29.525c0.002,1.364,0.367,2.008,1.408,2.453
			l2.746,1.173l1.056-2.773l-2.344-0.921c-0.174-0.068-0.191-0.186-0.191-0.321V15.161h-2.695L34.751,29.525L34.751,29.525z"/>
		<g>
			<path style="fill-rule:evenodd;clip-rule:evenodd;fill:#009DD7;" d="M44.896,29.283c-1.01-0.793-1.66-2.031-1.66-3.423
				c0-1.238,0.514-2.353,1.338-3.143l-1.74-2.849c-1.749,1.4-2.873,3.563-2.873,5.992c0,2.618,1.304,4.928,3.292,6.305
				L44.896,29.283z"/>
			<path style="fill-rule:evenodd;clip-rule:evenodd;fill:#FFF200;" d="M46.076,21.78c0.454-0.165,0.942-0.255,1.452-0.255
				c1.838,0,3.405,1.167,4.017,2.807l3.335-0.281c-0.805-3.347-3.79-5.833-7.352-5.833c-1.006,0-1.966,0.2-2.844,0.56L46.076,21.78z
				"/>
			<path style="fill-rule:evenodd;clip-rule:evenodd;fill:#E33206;" d="M51.815,26.07c-0.109,2.296-1.986,4.125-4.287,4.125
				c-0.361,0-0.711-0.046-1.045-0.13l-1.308,3.059c0.741,0.245,1.531,0.379,2.353,0.379c4.075,0,7.396-3.253,7.559-7.328
				L51.815,26.07z"/>
		</g>
	</g>
</g>
</svg>
