<?xml version="1.0" encoding="iso-8859-1"?>
<!-- Generator: Adobe Illustrator 18.1.1, SVG Export Plug-In . SVG Version: 6.00 Build 0)  -->
<svg version="1.1" id="Header" xmlns="http://www.w3.org/2000/svg" xmlns:xlink="http://www.w3.org/1999/xlink" x="0px" y="0px"
	 viewBox="0 0 75 50" style="enable-background:new 0 0 75 50;" xml:space="preserve">
<g>
	<path id="fundo_1_" style="fill-rule:evenodd;clip-rule:evenodd;fill:#D11120;" d="M20.589,9.337c-2.589,0-7.774,0-7.774,0
		c-3.434,0.162-6.242,1.546-7.053,4.399C5.34,15.224,5.108,16.858,4.778,18.4C3.098,26.243,1.607,34.301,0,41.984h60.517
		c4.678,0,7.89-0.988,8.758-4.702c0.403-1.724,0.79-3.678,1.176-5.574C71.954,24.32,73.459,16.932,75,9.337H20.589z"/>
	<path id="hipercard_1_" style="fill-rule:evenodd;clip-rule:evenodd;fill:#FFFFFF;" d="M19.982,20.941
		c0.325-0.225,0.745-1.243,0.266-1.669c-0.151-0.135-0.405-0.174-0.758-0.114c-0.328,0.056-0.516,0.167-0.645,0.342
		c-0.205,0.28-0.395,1.126-0.076,1.441C19.08,21.247,19.776,21.082,19.982,20.941z M15.356,19.272
		c-0.232,1.511-0.495,2.993-0.758,4.474c-1.688,0.017-3.413,0.083-5.043-0.039c0.308-1.448,0.528-2.985,0.833-4.435h-1.82
		c-0.651,3.696-1.244,7.451-1.971,11.07h1.858c0.292-1.856,0.563-3.732,0.948-5.496c1.584-0.04,3.482-0.107,5.006,0.037
		c-0.314,1.836-0.693,3.605-0.987,5.46h1.858c0.597-3.75,1.226-7.468,1.971-11.07H15.356z M41.633,22.457
		c-1.445-0.584-2.582,0.403-3.109,1.327c0.12-0.411,0.168-0.892,0.266-1.327h-1.441c-0.352,2.732-0.871,5.297-1.364,7.885h1.63
		c0.229-1.536,0.326-3.608,0.835-5.079c0.405-1.176,1.465-2.177,2.996-1.631C41.465,23.199,41.59,22.868,41.633,22.457z
		 M42.543,28.487c-0.15-0.39-0.189-1.031-0.152-1.518c0.085-1.095,0.485-2.428,1.1-3.033c0.851-0.833,2.528-0.694,3.867-0.228
		c0.042-0.45,0.132-0.853,0.19-1.288c-2.196-0.359-4.28-0.136-5.385,1.023c-1.08,1.136-1.79,3.744-1.288,5.384
		c0.586,1.921,3.217,2.024,5.346,1.291c0.095-0.387,0.144-0.817,0.227-1.215C45.285,29.509,43.06,29.822,42.543,28.487z
		 M60.857,22.495c-1.44-0.721-2.64,0.487-3.108,1.212c0.133-0.371,0.141-0.869,0.264-1.25h-1.44
		c-0.388,2.709-0.856,5.336-1.403,7.885h1.669c0.01-1.044,0.215-1.817,0.378-2.842c0.349-2.19,0.861-4.59,3.413-3.868
		C60.714,23.263,60.75,22.842,60.857,22.495z M18.315,22.457c-0.045,0.006-0.041,0.061-0.039,0.113
		c-0.361,2.687-0.846,5.248-1.364,7.772h1.63c0.392-2.703,0.841-5.351,1.404-7.885H18.315z M32.647,22.306
		c-1.178,0.091-2.174,0.43-2.882,1.175c-0.867,0.914-1.571,2.936-1.364,4.777c0.293,2.627,3.564,2.533,6.18,1.897
		c0.045-0.462,0.156-0.856,0.228-1.291c-1.078,0.404-2.949,0.967-4.057,0.266c-0.836-0.528-0.841-1.868-0.568-3.032
		c1.758-0.057,3.586-0.046,5.346,0c0.112-0.827,0.432-1.724,0.153-2.54C35.312,22.481,33.991,22.203,32.647,22.306z M34.201,25.187
		h-3.83c0.121-0.881,0.913-1.847,2.162-1.896C33.708,23.247,34.549,23.722,34.201,25.187z M26.466,22.457
		c-1.379-0.519-3.061,0.101-3.79,0.689c0.003,0.026-0.017,0.029-0.04,0.031c0.012-0.01,0.026-0.021,0.04-0.031
		c0-0.002-0.001-0.004-0.001-0.007c0.012-0.252,0.101-0.429,0.113-0.682h-1.402c-0.585,3.889-1.278,7.671-2.009,11.413h1.63
		c0.236-1.458,0.393-2.996,0.721-4.36c0.371,1.437,2.803,1.161,3.83,0.608C27.674,28.971,29.306,23.524,26.466,22.457z
		 M25.177,28.864c-0.872,0.924-3.016,0.91-3.184-0.644c-0.073-0.676,0.179-1.386,0.303-2.084c0.126-0.709,0.218-1.389,0.341-2.011
		c0.859-1.049,3.385-1.176,3.64,0.569C26.5,26.209,25.9,28.099,25.177,28.864z M66.924,19.044c-0.14,1.226-0.326,2.403-0.569,3.526
		c-3.999-1.264-6.452,1.677-6.407,5.309c0.007,0.703,0.128,1.399,0.569,1.896c0.756,0.857,2.924,1.06,4.019,0.343
		c0.211-0.141,0.427-0.394,0.568-0.57c0.105-0.132,0.273-0.478,0.303-0.379c-0.057,0.385-0.143,0.742-0.151,1.175h1.479
		c0.284-4.087,1.166-7.578,1.819-11.299H66.924z M63.284,29.472c-1.098,0.024-1.644-0.656-1.669-1.782
		c-0.043-1.973,0.822-4.164,2.578-4.36c0.818-0.093,1.411,0.099,2.011,0.302C65.653,25.848,65.852,29.416,63.284,29.472z
		 M49.216,22.457c-0.08,0.45-0.203,0.858-0.303,1.289c0.962-0.241,3.958-0.98,4.246,0.303c0.097,0.426-0.069,0.88-0.189,1.213
		c-2.71-0.256-4.918,0.193-5.498,2.122c-0.39,1.294,0.043,2.566,0.871,2.921c1.596,0.683,3.537-0.101,4.208-1.176
		c-0.069,0.374-0.135,0.748-0.112,1.212h1.402c0.015-1.341,0.21-2.429,0.418-3.639c0.175-1.03,0.506-2.05,0.455-2.957
		C54.594,21.666,51.146,22.4,49.216,22.457z M51.871,28.827c-0.84,0.824-3.199,1.057-2.958-0.909c0.2-1.634,1.978-1.981,3.906-1.745
		C52.676,27.067,52.511,28.2,51.871,28.827z"/>
</g>
</svg>
