<?xml version="1.0" encoding="utf-8"?>
<!-- Generator: Adobe Illustrator 16.0.4, SVG Export Plug-In . SVG Version: 6.00 Build 0)  -->
<!DOCTYPE svg PUBLIC "-//W3C//DTD SVG 1.1//EN" "http://www.w3.org/Graphics/SVG/1.1/DTD/svg11.dtd">
<svg version="1.1" id="Layer_1" xmlns="http://www.w3.org/2000/svg" xmlns:xlink="http://www.w3.org/1999/xlink" x="0px" y="0px"
	 width="76px" height="50px" viewBox="0 0 76 50" enable-background="new 0 0 76 50" xml:space="preserve">
<g>
	<path fill="#FFFFFF" d="M76,47c0,1.658-1.342,3-3,3H3c-1.656,0-3-1.342-3-3V3c0-1.656,1.344-3,3-3h70c1.658,0,3,1.344,3,3V47z"/>
	<g id="Layer_x0020_1">
		<path fill="#FFFFFF" d="M64.178,36.913c0,4.562-3.698,8.263-8.263,8.263H11.058v-32.66c0-4.564,3.699-8.264,8.263-8.264h44.857
			V36.913L64.178,36.913z"/>
		
			<linearGradient id="SVGID_1_" gradientUnits="userSpaceOnUse" x1="-148.542" y1="305.7441" x2="-143.4053" y2="305.7441" gradientTransform="matrix(2.8346 0 0 -2.8346 467.7312 891.3894)">
			<stop  offset="0" style="stop-color:#007B40"/>
			<stop  offset="1" style="stop-color:#55B330"/>
		</linearGradient>
		<path fill="url(#SVGID_1_)" d="M49.553,25.432h0.029h0.058h0.057h0.058h0.057h0.057h0.058h0.057h0.057h0.057h0.057h0.058h0.057
			h0.057h0.058h0.057h0.058h0.057h0.057h0.058h0.057h0.057h0.058h0.057h0.057h0.057h0.058h0.057h0.057h0.058h0.057h0.057h0.057
			h0.058h0.058h0.057h0.057h0.058h0.057h0.057h0.058h0.057h0.057h0.057h0.058h0.057h0.057h0.057h0.058h0.057h0.057h0.058h0.058
			h0.057h0.057h0.058h0.057h0.057h0.058h0.057h0.047H53c0.018,0,0.037,0.001,0.057,0.003c0.019,0,0.038,0.002,0.057,0.003
			c0.02,0.002,0.039,0.004,0.058,0.005c0.02,0.002,0.038,0.004,0.057,0.006c0.021,0.002,0.039,0.005,0.057,0.007
			c0.021,0.003,0.04,0.006,0.058,0.009c0.013,0.002,0.024,0.005,0.034,0.007l0.022,0.005c0.02,0.005,0.038,0.009,0.057,0.014
			c0.02,0.006,0.039,0.012,0.058,0.018s0.038,0.012,0.057,0.019c0.02,0.008,0.038,0.015,0.058,0.023
			c0.019,0.007,0.038,0.016,0.057,0.024s0.038,0.018,0.057,0.027c0.02,0.01,0.038,0.02,0.058,0.03
			c0.019,0.011,0.038,0.022,0.057,0.034s0.038,0.023,0.057,0.036c0.02,0.014,0.038,0.027,0.058,0.041
			c0.019,0.015,0.038,0.03,0.057,0.046c0.02,0.017,0.038,0.032,0.057,0.05c0.02,0.018,0.038,0.036,0.057,0.055
			c0.021,0.021,0.039,0.041,0.058,0.062c0.02,0.022,0.038,0.045,0.057,0.069c0.021,0.025,0.039,0.051,0.057,0.078
			c0.021,0.029,0.039,0.059,0.058,0.09c0.021,0.035,0.039,0.07,0.057,0.107c0.021,0.044,0.04,0.088,0.057,0.134
			c0.023,0.062,0.042,0.127,0.058,0.193c0.025,0.114,0.04,0.235,0.04,0.362s-0.015,0.249-0.04,0.364
			c-0.016,0.066-0.034,0.131-0.058,0.192c-0.017,0.047-0.036,0.092-0.057,0.136c-0.018,0.036-0.036,0.072-0.057,0.107
			c-0.019,0.03-0.037,0.061-0.058,0.09c-0.018,0.026-0.036,0.053-0.057,0.078c-0.019,0.023-0.037,0.047-0.057,0.068
			c-0.019,0.021-0.037,0.042-0.058,0.062c-0.019,0.019-0.037,0.037-0.057,0.055c-0.019,0.018-0.037,0.034-0.057,0.05
			c-0.019,0.017-0.038,0.031-0.057,0.046c-0.02,0.014-0.038,0.027-0.058,0.041c-0.019,0.012-0.038,0.024-0.057,0.037
			c-0.019,0.011-0.038,0.022-0.057,0.033c-0.02,0.01-0.038,0.021-0.058,0.03c-0.019,0.009-0.038,0.019-0.057,0.027
			s-0.038,0.017-0.057,0.024c-0.02,0.008-0.038,0.015-0.058,0.021c-0.019,0.007-0.038,0.014-0.057,0.02s-0.038,0.011-0.058,0.017
			c-0.019,0.005-0.037,0.01-0.057,0.015l-0.022,0.004c-0.01,0.003-0.021,0.005-0.034,0.007c-0.018,0.004-0.037,0.007-0.058,0.009
			c-0.018,0.003-0.036,0.005-0.057,0.008c-0.019,0.002-0.037,0.004-0.057,0.006c-0.019,0.001-0.038,0.003-0.058,0.004
			c-0.019,0.001-0.038,0.003-0.057,0.004c-0.02,0.001-0.039,0.002-0.057,0.002h-0.031h-0.025h-0.057h-0.058h-0.057h-0.057h-0.058
			h-0.057h-0.057h-0.058H52.43h-0.057h-0.057h-0.058h-0.057h-0.057h-0.057h-0.058h-0.057h-0.057h-0.057h-0.058h-0.057H51.69h-0.058
			h-0.057H51.52h-0.058h-0.058h-0.057h-0.057h-0.057h-0.058H51.12h-0.057h-0.058h-0.057h-0.057h-0.057h-0.058h-0.057h-0.057h-0.058
			h-0.057h-0.057h-0.058H50.38h-0.058h-0.057h-0.057h-0.058h-0.057h-0.057h-0.057h-0.057h-0.058h-0.057h-0.057h-0.058H49.64h-0.058
			h-0.029V25.432L49.553,25.432z M54.14,21.907c0.022,0.104,0.035,0.216,0.035,0.332s-0.013,0.227-0.035,0.331
			c-0.015,0.067-0.034,0.132-0.057,0.193c-0.018,0.045-0.036,0.089-0.058,0.131c-0.018,0.036-0.036,0.07-0.057,0.104
			c-0.018,0.029-0.037,0.058-0.057,0.085c-0.019,0.025-0.038,0.05-0.058,0.074c-0.018,0.021-0.037,0.043-0.057,0.064
			c-0.019,0.019-0.037,0.038-0.057,0.057c-0.019,0.017-0.038,0.034-0.058,0.051c-0.019,0.016-0.037,0.03-0.057,0.046
			c-0.019,0.014-0.038,0.027-0.058,0.041c-0.018,0.012-0.037,0.024-0.057,0.036c-0.019,0.012-0.037,0.022-0.057,0.033
			c-0.019,0.011-0.038,0.021-0.058,0.03c-0.019,0.01-0.037,0.019-0.057,0.026c-0.019,0.009-0.037,0.017-0.057,0.024
			c-0.02,0.007-0.038,0.014-0.057,0.021c-0.02,0.007-0.038,0.014-0.058,0.019c-0.019,0.006-0.037,0.011-0.057,0.016
			c-0.02,0.006-0.038,0.01-0.057,0.014c-0.02,0.005-0.038,0.009-0.058,0.012l-0.014,0.002c-0.011,0.002-0.026,0.005-0.043,0.007
			c-0.018,0.003-0.036,0.005-0.057,0.007c-0.018,0.002-0.037,0.003-0.057,0.005s-0.039,0.003-0.058,0.005
			c-0.02,0-0.038,0.002-0.057,0.002c-0.021,0.001-0.039,0.002-0.058,0.002h-0.009h-0.048h-0.057h-0.058h-0.057h-0.058h-0.057H52.26
			h-0.057h-0.058h-0.057h-0.057h-0.057h-0.058h-0.057h-0.057h-0.058H51.69h-0.058h-0.057H51.52h-0.058h-0.057h-0.057h-0.058h-0.057
			h-0.057h-0.057h-0.058h-0.057H50.95h-0.057h-0.058h-0.057h-0.058h-0.057h-0.058h-0.057h-0.057h-0.057H50.38h-0.057h-0.057h-0.058
			h-0.057h-0.057h-0.057h-0.058h-0.057h-0.057h-0.058h-0.057h-0.058H49.64h-0.057h-0.03v-2.874h0.03h0.057h0.057h0.058h0.057h0.058
			h0.057h0.057h0.058h0.057h0.057h0.057h0.058h0.057h0.057h0.058h0.057h0.057h0.057h0.058h0.057h0.058h0.057h0.058h0.057h0.057
			h0.057h0.058h0.057h0.057h0.057h0.058h0.057h0.057h0.058h0.057h0.057h0.058h0.057h0.058h0.057h0.057h0.058h0.057h0.057h0.057
			h0.058h0.057h0.057h0.057h0.058h0.057h0.058h0.057h0.057h0.024l0.033,0.001c0.019,0.001,0.037,0.003,0.057,0.004
			c0.019,0.001,0.038,0.002,0.058,0.004s0.039,0.004,0.057,0.005c0.021,0.002,0.039,0.004,0.057,0.006
			c0.017,0.002,0.032,0.005,0.043,0.006L53,20.83c0.02,0.003,0.038,0.007,0.058,0.011c0.019,0.005,0.037,0.009,0.057,0.014
			c0.02,0.006,0.038,0.011,0.057,0.017c0.02,0.006,0.038,0.012,0.058,0.019c0.019,0.007,0.037,0.014,0.057,0.021
			c0.02,0.009,0.038,0.017,0.057,0.024c0.02,0.009,0.038,0.018,0.057,0.027c0.02,0.01,0.039,0.02,0.058,0.029
			c0.02,0.011,0.038,0.022,0.057,0.033c0.02,0.013,0.039,0.025,0.057,0.037c0.02,0.014,0.039,0.027,0.058,0.041
			c0.02,0.016,0.038,0.03,0.057,0.046c0.02,0.017,0.039,0.033,0.058,0.051c0.02,0.019,0.038,0.038,0.057,0.057
			c0.02,0.021,0.039,0.043,0.057,0.064c0.02,0.024,0.039,0.049,0.058,0.074c0.02,0.027,0.039,0.056,0.057,0.085
			c0.021,0.033,0.039,0.068,0.057,0.103c0.021,0.043,0.04,0.087,0.058,0.132C54.105,21.775,54.125,21.84,54.14,21.907z
			 M61.204,7.007h0.022V36.52c0,0.176-0.008,0.351-0.022,0.523c-0.014,0.15-0.033,0.301-0.058,0.449
			c-0.017,0.1-0.036,0.198-0.057,0.296c-0.019,0.08-0.036,0.159-0.057,0.237c-0.019,0.067-0.037,0.135-0.058,0.201
			c-0.019,0.061-0.037,0.12-0.057,0.18c-0.019,0.054-0.037,0.107-0.058,0.16c-0.018,0.05-0.037,0.1-0.057,0.147
			c-0.019,0.046-0.037,0.092-0.058,0.138c-0.018,0.043-0.036,0.086-0.057,0.128c-0.019,0.041-0.037,0.081-0.057,0.12
			c-0.019,0.039-0.037,0.077-0.057,0.114s-0.038,0.072-0.058,0.108c-0.019,0.034-0.037,0.068-0.057,0.103
			c-0.019,0.033-0.037,0.065-0.057,0.098s-0.038,0.063-0.058,0.095c-0.019,0.03-0.037,0.061-0.057,0.091
			c-0.019,0.029-0.038,0.058-0.057,0.086c-0.02,0.028-0.038,0.057-0.058,0.084c-0.019,0.027-0.038,0.054-0.057,0.081
			c-0.019,0.026-0.038,0.053-0.057,0.078c-0.02,0.024-0.038,0.05-0.057,0.074c-0.02,0.025-0.039,0.05-0.058,0.073
			c-0.019,0.024-0.038,0.048-0.057,0.071c-0.019,0.022-0.038,0.045-0.058,0.068c-0.019,0.022-0.037,0.045-0.057,0.066
			c-0.019,0.022-0.038,0.043-0.058,0.064c-0.018,0.021-0.037,0.042-0.057,0.063c-0.019,0.021-0.037,0.041-0.057,0.061
			c-0.019,0.02-0.038,0.04-0.058,0.059c-0.019,0.02-0.037,0.039-0.057,0.059c-0.019,0.019-0.037,0.037-0.057,0.056
			s-0.037,0.037-0.057,0.055s-0.038,0.036-0.058,0.053c-0.019,0.018-0.037,0.035-0.057,0.052c-0.02,0.018-0.038,0.034-0.057,0.051
			c-0.02,0.017-0.038,0.033-0.058,0.05c-0.019,0.016-0.038,0.031-0.057,0.048c-0.019,0.016-0.038,0.031-0.057,0.046
			c-0.02,0.016-0.039,0.031-0.057,0.047c-0.02,0.015-0.039,0.029-0.058,0.044c-0.019,0.014-0.038,0.029-0.057,0.044
			c-0.02,0.014-0.038,0.027-0.058,0.041c-0.019,0.015-0.038,0.028-0.057,0.042s-0.038,0.026-0.058,0.04
			c-0.019,0.014-0.037,0.026-0.057,0.039c-0.019,0.014-0.038,0.025-0.057,0.038s-0.038,0.025-0.058,0.038
			c-0.019,0.013-0.037,0.024-0.057,0.036c-0.019,0.012-0.037,0.024-0.057,0.036c-0.02,0.011-0.038,0.022-0.058,0.034l-0.057,0.034
			c-0.019,0.011-0.037,0.021-0.057,0.032s-0.038,0.021-0.057,0.031c-0.02,0.011-0.038,0.021-0.058,0.032
			c-0.019,0.01-0.038,0.02-0.057,0.029c-0.02,0.011-0.038,0.021-0.057,0.03c-0.02,0.01-0.039,0.02-0.057,0.029
			c-0.02,0.01-0.039,0.019-0.058,0.027c-0.02,0.01-0.038,0.019-0.057,0.027l-0.058,0.027l-0.057,0.025
			c-0.019,0.009-0.038,0.017-0.058,0.025c-0.019,0.008-0.037,0.016-0.057,0.024c-0.019,0.008-0.038,0.015-0.058,0.023
			C57.539,41.991,57.52,42,57.5,42.007c-0.019,0.008-0.037,0.015-0.057,0.022c-0.019,0.008-0.038,0.015-0.057,0.021l-0.058,0.021
			c-0.019,0.007-0.037,0.014-0.057,0.021s-0.037,0.014-0.057,0.021c-0.02,0.006-0.038,0.012-0.057,0.019l-0.058,0.018
			c-0.02,0.007-0.038,0.012-0.057,0.019l-0.057,0.016c-0.02,0.007-0.039,0.012-0.058,0.018s-0.038,0.011-0.057,0.015
			c-0.02,0.006-0.038,0.012-0.057,0.016l-0.058,0.015l-0.057,0.014l-0.058,0.014c-0.019,0.004-0.037,0.009-0.057,0.013
			c-0.019,0.004-0.038,0.008-0.058,0.012l-0.057,0.012l-0.057,0.012c-0.019,0.003-0.038,0.007-0.057,0.011
			c-0.02,0.003-0.038,0.006-0.058,0.01l-0.057,0.009l-0.057,0.009l-0.058,0.007c-0.019,0.003-0.037,0.006-0.057,0.009
			s-0.038,0.004-0.057,0.007c-0.02,0.002-0.038,0.004-0.058,0.006c-0.019,0.002-0.038,0.004-0.057,0.007
			c-0.019,0.001-0.038,0.003-0.057,0.004c-0.02,0.003-0.038,0.004-0.057,0.006c-0.02,0.001-0.039,0.002-0.058,0.004l-0.057,0.004
			c-0.02,0-0.038,0.002-0.058,0.003c-0.019,0.001-0.038,0.002-0.057,0.002l-0.058,0.002l-0.057,0.002
			c-0.019,0.001-0.038,0.001-0.057,0.001h-0.058h-0.012h-0.045h-0.057h-0.058h-0.057h-0.057h-0.057h-0.058H54.88h-0.057h-0.057
			h-0.058h-0.057h-0.058h-0.057H54.48h-0.057h-0.057H54.31h-0.057h-0.057H54.14h-0.058h-0.057h-0.057h-0.058h-0.057h-0.057H53.74
			h-0.057h-0.057h-0.058h-0.057h-0.058h-0.057h-0.057h-0.058h-0.057h-0.057h-0.058h-0.057H53h-0.058h-0.057h-0.057h-0.057h-0.058
			h-0.057h-0.057h-0.057h-0.058H52.43h-0.057h-0.057h-0.058h-0.057h-0.057h-0.058h-0.057h-0.057h-0.058H51.86h-0.057h-0.057h-0.058
			h-0.057h-0.057h-0.058h-0.057h-0.058h-0.057h-0.057h-0.058h-0.057h-0.058h-0.057h-0.057h-0.057h-0.058h-0.057h-0.057h-0.058
			h-0.057h-0.057h-0.057h-0.058h-0.057h-0.058h-0.057h-0.057h-0.058h-0.057h-0.058h-0.057H49.98h-0.057h-0.058H49.81h-0.057h-0.058
			h-0.057h-0.057h-0.058h-0.057H49.41h-0.057h-0.057H49.24h-0.057h-0.058h-0.058h-0.057h-0.057h-0.057h-0.058h-0.057h-0.058H48.67
			h-0.057h-0.057h-0.058h-0.057h-0.058h-0.057h-0.057h-0.057h-0.057H48.1h-0.057h-0.057H47.93h-0.057h-0.058h-0.057h-0.057h-0.058
			h-0.057h-0.057h-0.058h-0.057h-0.058h-0.057h-0.057h-0.057h-0.057h-0.059h-0.057h-0.057h-0.057h-0.057H46.79h-0.123V30.388h0.123
			h0.058h0.057h0.057h0.057h0.057h0.059h0.057h0.057h0.057h0.057h0.058h0.057h0.058h0.057h0.057h0.058h0.057h0.057h0.058h0.057
			h0.057h0.057H48.1h0.059h0.057h0.057h0.057h0.057h0.058h0.057h0.058h0.057h0.057h0.057h0.058h0.057h0.058h0.057h0.057h0.057h0.058
			h0.058h0.057h0.057h0.057h0.057h0.058h0.057h0.058h0.057h0.057h0.058h0.057h0.057h0.058h0.057h0.057h0.057h0.058h0.057h0.058
			h0.057h0.057h0.058h0.057h0.058h0.057h0.057h0.057h0.058h0.057h0.057h0.058h0.057h0.057h0.057h0.058h0.057h0.058h0.057h0.057
			h0.058h0.057h0.058h0.057h0.057h0.058h0.057h0.057h0.057h0.058h0.057h0.057h0.058h0.057h0.057h0.058h0.057h0.057h0.058h0.058
			h0.057h0.057h0.057h0.058h0.057h0.057h0.057H53h0.057h0.057h0.058h0.057h0.057h0.058h0.057h0.057h0.058h0.057h0.058h0.057h0.057
			h0.058h0.057h0.057h0.058h0.057h0.057h0.058h0.057h0.057h0.057h0.058h0.057h0.057h0.058h0.057h0.058h0.057h0.058h0.057h0.057
			h0.057h0.058h0.057h0.057h0.057h0.058h0.057h0.057h0.058h0.057h0.057h0.058h0.057h0.058h0.057h0.058h0.029h0.027h0.057
			l0.057-0.002c0.02,0,0.038,0,0.058,0c0.019-0.001,0.037-0.003,0.057-0.003l0.057-0.003l0.058-0.004l0.057-0.004l0.057-0.004
			l0.058-0.006c0.019-0.002,0.038-0.003,0.057-0.005c0.02-0.002,0.038-0.004,0.057-0.006l0.057-0.008
			c0.02-0.002,0.039-0.005,0.058-0.007c0.02-0.003,0.038-0.006,0.057-0.009c0.02-0.003,0.039-0.006,0.058-0.009l0.057-0.01
			l0.058-0.011c0.019-0.003,0.038-0.007,0.057-0.01c0.019-0.004,0.038-0.009,0.057-0.012l0.058-0.013
			c0.019-0.005,0.037-0.009,0.057-0.013c0.019-0.005,0.037-0.01,0.057-0.015s0.038-0.01,0.058-0.014
			c0.019-0.005,0.037-0.011,0.057-0.016s0.037-0.011,0.057-0.017c0.02-0.005,0.038-0.012,0.057-0.017l0.058-0.018
			c0.019-0.007,0.038-0.013,0.057-0.019c0.02-0.007,0.038-0.014,0.057-0.021c0.02-0.007,0.039-0.014,0.057-0.021
			c0.02-0.007,0.039-0.014,0.058-0.021c0.02-0.008,0.038-0.016,0.057-0.022c0.02-0.009,0.039-0.016,0.058-0.023
			c0.019-0.009,0.038-0.017,0.057-0.025c0.02-0.008,0.038-0.017,0.058-0.025c0.019-0.009,0.038-0.018,0.057-0.026
			c0.019-0.01,0.038-0.019,0.058-0.027c0.019-0.01,0.037-0.02,0.057-0.03c0.019-0.009,0.037-0.02,0.057-0.029
			c0.019-0.012,0.038-0.021,0.057-0.032c0.02-0.011,0.038-0.022,0.058-0.033c0.019-0.012,0.037-0.022,0.057-0.034
			c0.02-0.013,0.038-0.023,0.057-0.036c0.02-0.013,0.038-0.025,0.057-0.038c0.02-0.014,0.038-0.026,0.058-0.04
			s0.038-0.027,0.057-0.041c0.02-0.015,0.038-0.028,0.057-0.044c0.02-0.014,0.039-0.03,0.058-0.045
			c0.02-0.016,0.038-0.031,0.057-0.048c0.02-0.017,0.039-0.033,0.057-0.05c0.02-0.018,0.039-0.036,0.058-0.054
			c0.02-0.019,0.038-0.037,0.057-0.056c0.02-0.02,0.039-0.039,0.058-0.059c0.019-0.021,0.038-0.042,0.057-0.063
			c0.019-0.022,0.038-0.044,0.058-0.067c0.019-0.022,0.038-0.047,0.057-0.071c0.019-0.025,0.038-0.051,0.057-0.077
			c0.02-0.027,0.038-0.055,0.057-0.083c0.02-0.03,0.039-0.061,0.058-0.091c0.02-0.034,0.038-0.066,0.057-0.101
			c0.02-0.037,0.039-0.074,0.057-0.112c0.021-0.042,0.039-0.086,0.058-0.129c0.02-0.051,0.039-0.101,0.057-0.152
			c0.021-0.063,0.04-0.129,0.057-0.195c0.024-0.096,0.043-0.195,0.057-0.297c0.017-0.123,0.025-0.249,0.025-0.38
			c0-0.127-0.008-0.25-0.025-0.369c-0.014-0.098-0.032-0.194-0.057-0.287c-0.017-0.063-0.035-0.126-0.057-0.187
			c-0.018-0.051-0.037-0.1-0.057-0.148c-0.019-0.042-0.037-0.083-0.058-0.124c-0.018-0.036-0.037-0.072-0.057-0.107
			c-0.019-0.033-0.037-0.066-0.057-0.098c-0.019-0.029-0.038-0.059-0.058-0.088c-0.019-0.027-0.037-0.055-0.057-0.08
			c-0.019-0.025-0.038-0.05-0.057-0.074c-0.019-0.023-0.038-0.047-0.057-0.069c-0.02-0.021-0.038-0.043-0.058-0.064
			c-0.019-0.021-0.038-0.041-0.057-0.062c-0.019-0.019-0.038-0.038-0.058-0.057c-0.019-0.019-0.037-0.036-0.057-0.054
			c-0.019-0.018-0.038-0.034-0.058-0.052c-0.018-0.016-0.037-0.031-0.057-0.048c-0.019-0.016-0.037-0.031-0.057-0.046
			c-0.019-0.016-0.038-0.029-0.058-0.044c-0.019-0.015-0.037-0.028-0.057-0.042c-0.019-0.014-0.037-0.027-0.057-0.04
			s-0.038-0.026-0.058-0.038c-0.019-0.013-0.037-0.025-0.057-0.037c-0.019-0.012-0.037-0.023-0.057-0.035s-0.038-0.022-0.057-0.033
			c-0.02-0.011-0.038-0.021-0.058-0.032c-0.019-0.011-0.038-0.021-0.057-0.03c-0.02-0.01-0.038-0.02-0.057-0.03
			c-0.02-0.009-0.039-0.019-0.057-0.027c-0.02-0.01-0.039-0.019-0.058-0.027c-0.019-0.01-0.038-0.018-0.057-0.026
			c-0.02-0.009-0.038-0.017-0.058-0.024c-0.019-0.009-0.038-0.016-0.057-0.024c-0.019-0.008-0.038-0.015-0.058-0.022
			c-0.019-0.008-0.037-0.015-0.057-0.021c-0.019-0.008-0.038-0.015-0.058-0.021c-0.018-0.007-0.037-0.013-0.057-0.02
			c-0.019-0.007-0.037-0.014-0.057-0.02c-0.019-0.007-0.038-0.013-0.057-0.019c-0.02-0.006-0.038-0.012-0.058-0.018l-0.057-0.017
			c-0.02-0.006-0.037-0.011-0.057-0.016c-0.02-0.006-0.038-0.011-0.057-0.015c-0.02-0.006-0.038-0.01-0.058-0.015
			s-0.038-0.01-0.057-0.015c-0.02-0.004-0.038-0.008-0.057-0.013c-0.02-0.004-0.039-0.008-0.058-0.012s-0.038-0.008-0.057-0.012
			l-0.057-0.011l-0.058-0.011c-0.019-0.003-0.038-0.007-0.057-0.01l-0.058-0.009c-0.019-0.003-0.037-0.005-0.057-0.008l-0.058-0.008
			l-0.057-0.007l-0.057-0.007l-0.057-0.006l-0.058-0.006l-0.057-0.005l-0.053-0.004v-0.068l0.053-0.008l0.057-0.009
			c0.02-0.004,0.038-0.007,0.058-0.011l0.057-0.011c0.02-0.004,0.038-0.008,0.057-0.012l0.057-0.013
			c0.02-0.004,0.039-0.009,0.058-0.014c0.02-0.004,0.038-0.009,0.057-0.014c0.02-0.005,0.039-0.01,0.058-0.015
			c0.019-0.006,0.038-0.011,0.057-0.017c0.019-0.005,0.038-0.011,0.058-0.017c0.019-0.006,0.038-0.012,0.057-0.018
			s0.038-0.012,0.057-0.019s0.038-0.014,0.058-0.021c0.019-0.007,0.037-0.014,0.057-0.021c0.019-0.007,0.038-0.014,0.057-0.021
			c0.02-0.008,0.038-0.016,0.058-0.023c0.019-0.008,0.037-0.016,0.057-0.023c0.02-0.009,0.037-0.018,0.057-0.025
			c0.02-0.01,0.038-0.019,0.057-0.027c0.02-0.01,0.038-0.019,0.058-0.027c0.019-0.011,0.038-0.021,0.057-0.03
			c0.02-0.01,0.038-0.021,0.057-0.031c0.02-0.01,0.039-0.021,0.057-0.032c0.02-0.011,0.039-0.022,0.058-0.034
			c0.02-0.012,0.039-0.023,0.057-0.035c0.02-0.013,0.039-0.025,0.058-0.038s0.038-0.026,0.057-0.039
			c0.02-0.014,0.038-0.027,0.058-0.042c0.019-0.015,0.038-0.028,0.057-0.044c0.019-0.015,0.038-0.03,0.058-0.046
			c0.019-0.016,0.037-0.032,0.057-0.049c0.019-0.017,0.038-0.034,0.057-0.052s0.038-0.036,0.057-0.055
			c0.02-0.019,0.038-0.038,0.058-0.058c0.019-0.021,0.038-0.041,0.057-0.062c0.02-0.022,0.038-0.044,0.057-0.066
			c0.02-0.022,0.039-0.047,0.057-0.07c0.021-0.025,0.039-0.051,0.058-0.076c0.02-0.027,0.038-0.056,0.057-0.084
			c0.02-0.029,0.038-0.06,0.057-0.09c0.021-0.033,0.039-0.066,0.058-0.101c0.021-0.037,0.039-0.075,0.057-0.113
			c0.021-0.043,0.039-0.086,0.057-0.13c0.021-0.051,0.04-0.104,0.058-0.156c0.021-0.065,0.041-0.133,0.057-0.2
			c0.026-0.111,0.046-0.224,0.058-0.338c0.009-0.091,0.014-0.183,0.014-0.274c0-0.099-0.005-0.193-0.014-0.286
			c-0.012-0.118-0.031-0.233-0.058-0.345c-0.016-0.068-0.035-0.137-0.057-0.202c-0.018-0.053-0.037-0.104-0.058-0.155
			c-0.018-0.043-0.036-0.086-0.057-0.129c-0.019-0.037-0.036-0.074-0.057-0.11c-0.019-0.033-0.037-0.066-0.058-0.099
			c-0.019-0.03-0.037-0.06-0.057-0.088c-0.019-0.027-0.037-0.054-0.057-0.081c-0.019-0.025-0.037-0.05-0.058-0.074
			c-0.019-0.023-0.037-0.046-0.057-0.069c-0.019-0.021-0.037-0.042-0.057-0.063c-0.019-0.02-0.038-0.04-0.057-0.06
			c-0.02-0.019-0.038-0.038-0.058-0.055c-0.019-0.018-0.038-0.036-0.057-0.053s-0.038-0.034-0.057-0.05
			c-0.02-0.016-0.038-0.032-0.057-0.047c-0.02-0.015-0.039-0.029-0.058-0.044c-0.019-0.014-0.038-0.028-0.057-0.042
			c-0.02-0.014-0.038-0.027-0.058-0.04c-0.019-0.013-0.038-0.025-0.057-0.038s-0.038-0.025-0.058-0.036
			c-0.018-0.013-0.037-0.023-0.057-0.035c-0.019-0.011-0.038-0.022-0.058-0.033c-0.018-0.01-0.037-0.021-0.057-0.032
			c-0.019-0.01-0.037-0.02-0.057-0.03c-0.019-0.01-0.038-0.019-0.057-0.028c-0.02-0.009-0.038-0.019-0.058-0.027
			c-0.019-0.009-0.037-0.018-0.057-0.026c-0.02-0.008-0.037-0.017-0.057-0.025c-0.02-0.007-0.038-0.016-0.057-0.023
			c-0.02-0.008-0.038-0.016-0.058-0.023c-0.02-0.007-0.038-0.015-0.057-0.022c-0.02-0.007-0.038-0.014-0.057-0.021
			c-0.02-0.007-0.039-0.013-0.058-0.02c-0.019-0.006-0.038-0.012-0.057-0.019s-0.038-0.012-0.057-0.018
			c-0.02-0.006-0.039-0.012-0.058-0.017c-0.019-0.006-0.038-0.01-0.057-0.016c-0.019-0.005-0.038-0.01-0.058-0.015l-0.057-0.015
			c-0.019-0.004-0.038-0.009-0.058-0.013c-0.018-0.005-0.037-0.009-0.057-0.013l-0.057-0.013c-0.019-0.004-0.038-0.007-0.057-0.012
			c-0.02-0.003-0.038-0.007-0.058-0.01l-0.057-0.01c-0.019-0.003-0.037-0.006-0.057-0.009l-0.058-0.008l-0.057-0.008l-0.057-0.007
			l-0.058-0.007l-0.057-0.006l-0.057-0.005l-0.057-0.005l-0.058-0.004l-0.057-0.004l-0.058-0.003l-0.022-0.001l-0.034-0.002
			l-0.058-0.003l-0.057-0.003l-0.057-0.003l-0.058-0.002l-0.057-0.002l-0.057-0.002l-0.057-0.002l-0.058-0.001l-0.057,0H55.02
			h-0.025h-0.058H54.88h-0.057h-0.057h-0.058h-0.057h-0.058h-0.057H54.48h-0.057h-0.057H54.31h-0.057h-0.057H54.14h-0.058h-0.057
			h-0.057h-0.058h-0.057h-0.057H53.74h-0.057h-0.057h-0.058h-0.057h-0.058h-0.057h-0.057h-0.058h-0.057h-0.057h-0.058h-0.057H53
			h-0.058h-0.057h-0.057h-0.057h-0.058h-0.057h-0.057h-0.057h-0.058H52.43h-0.057h-0.057h-0.058h-0.057h-0.057h-0.058h-0.057h-0.057
			h-0.058H51.86h-0.057h-0.057h-0.058h-0.057h-0.057h-0.058h-0.057h-0.058h-0.057h-0.057h-0.058h-0.057h-0.058h-0.057h-0.057h-0.057
			h-0.058h-0.057h-0.057h-0.058h-0.057h-0.057h-0.057h-0.058h-0.057h-0.058h-0.057h-0.057h-0.058h-0.057h-0.058h-0.057H49.98h-0.057
			h-0.058H49.81h-0.057h-0.058h-0.057h-0.057h-0.058h-0.057H49.41h-0.057h-0.057H49.24h-0.057h-0.058h-0.058h-0.057h-0.057h-0.057
			h-0.058h-0.057h-0.057H48.67h-0.057h-0.057h-0.058h-0.057h-0.058h-0.057h-0.057h-0.057h-0.057H48.1h-0.057h-0.057H47.93h-0.057
			h-0.058h-0.057h-0.057h-0.058h-0.057h-0.057h-0.058h-0.057h-0.058h-0.057h-0.057h-0.057h-0.057h-0.059h-0.057h-0.057h-0.057
			h-0.057H46.79h-0.123v-6.13c0-0.412,0.042-0.814,0.123-1.203c0.017-0.083,0.036-0.166,0.058-0.247
			c0.018-0.07,0.036-0.14,0.057-0.208c0.018-0.062,0.037-0.123,0.057-0.184c0.018-0.055,0.037-0.111,0.057-0.166
			c0.02-0.051,0.038-0.101,0.057-0.151c0.02-0.047,0.038-0.093,0.059-0.139c0.018-0.044,0.036-0.088,0.057-0.131
			c0.018-0.041,0.037-0.082,0.057-0.122c0.018-0.039,0.037-0.077,0.057-0.115c0.02-0.037,0.038-0.073,0.057-0.109
			c0.02-0.035,0.038-0.069,0.058-0.104c0.019-0.033,0.038-0.066,0.057-0.099c0.019-0.032,0.038-0.064,0.058-0.096
			c0.018-0.031,0.037-0.061,0.057-0.091c0.019-0.03,0.037-0.059,0.057-0.088c0.02-0.028,0.037-0.057,0.058-0.084
			c0.019-0.027,0.038-0.055,0.057-0.082c0.019-0.026,0.038-0.052,0.057-0.078c0.019-0.025,0.038-0.051,0.058-0.076
			c0.019-0.024,0.037-0.049,0.057-0.074c0.019-0.024,0.037-0.047,0.057-0.071c0.019-0.022,0.038-0.045,0.057-0.069
			c0.02-0.022,0.038-0.045,0.057-0.067c0.02-0.022,0.039-0.043,0.059-0.064c0.018-0.021,0.037-0.043,0.057-0.063
			c0.018-0.021,0.037-0.042,0.057-0.062c0.02-0.02,0.038-0.04,0.057-0.059c0.02-0.02,0.038-0.039,0.057-0.058
			c0.02-0.02,0.038-0.038,0.058-0.056c0.019-0.019,0.038-0.038,0.057-0.056c0.019-0.018,0.038-0.035,0.058-0.053
			c0.018-0.018,0.037-0.035,0.057-0.053c0.02-0.017,0.037-0.034,0.057-0.051c0.02-0.016,0.038-0.033,0.058-0.049
			c0.019-0.017,0.038-0.032,0.057-0.049c0.019-0.016,0.038-0.031,0.057-0.047c0.02-0.015,0.038-0.031,0.058-0.045l0.057-0.045
			L49.012,8.2c0.02-0.015,0.038-0.029,0.057-0.042c0.02-0.015,0.039-0.028,0.058-0.042l0.058-0.04
			c0.018-0.014,0.037-0.027,0.057-0.04l0.057-0.039l0.057-0.038c0.02-0.012,0.038-0.024,0.057-0.037l0.058-0.035
			c0.019-0.012,0.038-0.023,0.057-0.035c0.02-0.012,0.038-0.022,0.058-0.034c0.019-0.011,0.037-0.022,0.057-0.033
			c0.02-0.011,0.038-0.021,0.057-0.032c0.02-0.01,0.038-0.021,0.058-0.031c0.019-0.011,0.037-0.021,0.057-0.031
			c0.02-0.009,0.038-0.02,0.057-0.029c0.02-0.01,0.038-0.02,0.058-0.029c0.019-0.009,0.037-0.019,0.057-0.028l0.057-0.027
			c0.02-0.009,0.039-0.018,0.057-0.027c0.02-0.009,0.039-0.018,0.058-0.027c0.019-0.008,0.038-0.016,0.057-0.024
			c0.02-0.008,0.038-0.017,0.058-0.025c0.019-0.008,0.038-0.016,0.057-0.024c0.019-0.007,0.038-0.016,0.057-0.023l0.058-0.022
			l0.057-0.021c0.019-0.007,0.038-0.014,0.058-0.022c0.019-0.007,0.037-0.013,0.057-0.02c0.019-0.007,0.037-0.014,0.057-0.02
			c0.02-0.007,0.038-0.013,0.057-0.019l0.058-0.019c0.019-0.006,0.037-0.012,0.057-0.018s0.038-0.011,0.057-0.017
			c0.02-0.006,0.038-0.012,0.058-0.018c0.019-0.004,0.037-0.01,0.057-0.015c0.02-0.006,0.038-0.011,0.057-0.016l0.057-0.014
			c0.02-0.005,0.039-0.01,0.058-0.014s0.038-0.01,0.057-0.014c0.02-0.004,0.039-0.008,0.058-0.013l0.057-0.013l0.057-0.012
			c0.02-0.003,0.038-0.007,0.058-0.011C51.48,7.107,51.5,7.103,51.519,7.1s0.038-0.006,0.058-0.01l0.057-0.009
			c0.019-0.003,0.038-0.006,0.057-0.009c0.02-0.003,0.038-0.005,0.058-0.008c0.019-0.002,0.037-0.005,0.057-0.008
			c0.019-0.002,0.037-0.004,0.057-0.007l0.057-0.006c0.02-0.003,0.038-0.005,0.058-0.007c0.019-0.001,0.037-0.003,0.057-0.005
			l0.057-0.005l0.058-0.005c0.019-0.001,0.038-0.002,0.057-0.003c0.02-0.001,0.038-0.002,0.057-0.003
			c0.02-0.001,0.039-0.002,0.058-0.002l0.057-0.002c0.02-0.001,0.038-0.001,0.057-0.002c0.02,0,0.039,0,0.058,0
			c0.019,0,0.038,0,0.058,0h0.014h0.043h0.057h0.057h0.058h0.057h0.057h0.057H53h0.057h0.057h0.058h0.057h0.057h0.058h0.057h0.057
			h0.058h0.057h0.058h0.057h0.057h0.058h0.057h0.057h0.058h0.057h0.057h0.058h0.057h0.057h0.057h0.058h0.057h0.057h0.058h0.057
			h0.058h0.057h0.058h0.057h0.057h0.057h0.058h0.057h0.057h0.058h0.057h0.057h0.057h0.058h0.057h0.057h0.058h0.057h0.058h0.057
			h0.058h0.057h0.057h0.057h0.058h0.057h0.057h0.058h0.057h0.057h0.058h0.057h0.057h0.057h0.058h0.057h0.058h0.057h0.058h0.057
			h0.057h0.058h0.057h0.057h0.058h0.057h0.057h0.057h0.058h0.057H57.5h0.057h0.058h0.057h0.058h0.057h0.058h0.057h0.058h0.057h0.057
			h0.057h0.058h0.057h0.057h0.057h0.058h0.057h0.057h0.058h0.057h0.057h0.058h0.057h0.058h0.057h0.058h0.057h0.057h0.057h0.058
			h0.057h0.057h0.058h0.057h0.057h0.057h0.058h0.057h0.057h0.058h0.057h0.058h0.057h0.058h0.057h0.057h0.057h0.058h0.057h0.057
			h0.058h0.057h0.057h0.058h0.057h0.057h0.057h0.058h0.057h0.058h0.057h0.058h0.057h0.057H61.204L61.204,7.007L61.204,7.007z"/>
		
			<linearGradient id="SVGID_2_" gradientUnits="userSpaceOnUse" x1="-160.0625" y1="305.7441" x2="-154.9272" y2="305.7441" gradientTransform="matrix(2.8346 0 0 -2.8346 467.7312 891.3894)">
			<stop  offset="0" style="stop-color:#1D2970"/>
			<stop  offset="1" style="stop-color:#006DBA"/>
		</linearGradient>
		<path fill="url(#SVGID_2_)" d="M14.13,27.545c-0.041-0.019-0.082-0.039-0.122-0.058V12.909c0-0.411,0.042-0.812,0.122-1.2
			c0.017-0.083,0.036-0.166,0.057-0.248c0.018-0.07,0.037-0.14,0.057-0.208c0.018-0.062,0.038-0.123,0.057-0.184
			c0.018-0.055,0.037-0.111,0.057-0.166c0.018-0.051,0.037-0.101,0.057-0.152c0.019-0.046,0.038-0.093,0.057-0.14
			c0.019-0.043,0.038-0.087,0.057-0.13c0.019-0.041,0.038-0.082,0.057-0.122c0.018-0.039,0.038-0.078,0.057-0.116
			c0.019-0.036,0.037-0.073,0.057-0.109c0.019-0.035,0.038-0.07,0.057-0.104c0.019-0.033,0.038-0.067,0.057-0.1
			c0.019-0.032,0.038-0.064,0.057-0.096c0.019-0.03,0.038-0.061,0.057-0.091c0.019-0.029,0.038-0.058,0.057-0.087
			c0.019-0.028,0.038-0.056,0.057-0.084c0.019-0.027,0.038-0.055,0.057-0.082c0.02-0.026,0.039-0.052,0.058-0.078
			c0.019-0.025,0.038-0.051,0.057-0.076c0.019-0.024,0.038-0.05,0.057-0.074c0.018-0.023,0.038-0.047,0.057-0.071
			c0.019-0.023,0.038-0.046,0.057-0.069c0.019-0.022,0.038-0.045,0.057-0.067c0.019-0.022,0.038-0.043,0.057-0.065
			c0.019-0.021,0.038-0.042,0.057-0.062c0.018-0.021,0.038-0.041,0.057-0.062c0.019-0.02,0.038-0.04,0.057-0.06
			c0.019-0.02,0.038-0.039,0.057-0.058c0.019-0.02,0.038-0.038,0.057-0.056c0.019-0.02,0.038-0.038,0.057-0.056
			c0.019-0.018,0.038-0.035,0.058-0.053c0.018-0.018,0.038-0.036,0.057-0.053c0.019-0.017,0.038-0.034,0.057-0.051
			c0.019-0.016,0.038-0.033,0.057-0.05c0.019-0.016,0.038-0.032,0.057-0.048c0.019-0.016,0.038-0.031,0.057-0.047
			c0.019-0.015,0.038-0.031,0.057-0.046c0.019-0.015,0.039-0.03,0.057-0.044c0.02-0.015,0.039-0.029,0.058-0.043
			c0.019-0.015,0.038-0.029,0.057-0.043l0.057-0.041c0.019-0.014,0.038-0.028,0.057-0.042c0.019-0.013,0.038-0.026,0.057-0.039
			C16.595,8.026,16.613,8.013,16.633,8c0.019-0.013,0.038-0.025,0.057-0.037c0.019-0.012,0.038-0.025,0.058-0.037
			c0.018-0.012,0.038-0.024,0.057-0.035c0.019-0.012,0.038-0.024,0.057-0.036c0.019-0.011,0.038-0.022,0.057-0.034
			c0.02-0.011,0.038-0.022,0.057-0.034c0.019-0.011,0.038-0.021,0.057-0.031c0.019-0.011,0.038-0.022,0.057-0.032
			s0.039-0.02,0.058-0.03c0.019-0.011,0.038-0.021,0.057-0.03c0.019-0.01,0.038-0.019,0.057-0.029l0.057-0.029
			c0.019-0.009,0.038-0.019,0.057-0.027s0.038-0.018,0.057-0.026c0.02-0.009,0.038-0.018,0.057-0.027
			c0.02-0.008,0.039-0.017,0.057-0.025c0.019-0.008,0.038-0.016,0.057-0.024c0.019-0.008,0.038-0.016,0.057-0.024l0.057-0.023
			l0.057-0.022l0.057-0.021c0.019-0.008,0.038-0.015,0.057-0.022s0.038-0.013,0.057-0.02c0.019-0.007,0.039-0.014,0.058-0.021
			l0.057-0.019l0.057-0.018c0.019-0.006,0.038-0.013,0.057-0.019c0.018-0.005,0.038-0.011,0.057-0.017s0.038-0.011,0.057-0.017
			s0.039-0.011,0.057-0.016l0.057-0.016c0.019-0.005,0.038-0.01,0.057-0.015c0.019-0.005,0.038-0.009,0.057-0.014
			c0.019-0.005,0.038-0.01,0.057-0.014c0.019-0.004,0.038-0.009,0.057-0.013l0.057-0.012c0.019-0.004,0.038-0.008,0.057-0.012
			c0.019-0.004,0.038-0.007,0.057-0.011c0.019-0.004,0.039-0.008,0.058-0.011c0.019-0.003,0.038-0.007,0.057-0.01l0.057-0.009
			c0.019-0.003,0.038-0.007,0.057-0.01c0.019-0.002,0.038-0.004,0.057-0.007c0.019-0.003,0.038-0.005,0.057-0.008l0.057-0.007
			l0.058-0.007c0.019-0.002,0.038-0.005,0.057-0.006c0.019-0.002,0.038-0.003,0.057-0.006l0.057-0.004
			c0.019-0.002,0.038-0.003,0.057-0.005s0.038-0.002,0.057-0.003c0.019-0.001,0.038-0.003,0.057-0.003
			c0.019-0.001,0.038-0.002,0.058-0.003l0.057-0.002c0.019,0,0.038-0.002,0.057-0.002c0.019-0.001,0.038-0.001,0.057-0.001
			c0.02,0,0.038,0,0.057-0.001h0.025h0.032h0.057h0.057h0.058h0.057h0.057h0.057h0.057h0.057h0.057H20.5h0.057h0.057h0.057h0.057
			h0.057h0.057h0.057h0.058h0.057h0.057h0.057h0.057h0.057h0.057h0.057h0.057h0.057h0.057h0.057h0.057h0.057h0.057h0.057h0.057
			h0.057h0.057h0.057h0.057h0.057h0.057h0.057h0.057h0.057h0.057h0.057h0.057h0.058h0.057h0.057h0.057h0.057h0.057h0.058h0.056
			h0.057h0.057h0.057h0.057h0.057h0.057H23.4h0.058h0.057h0.057h0.057h0.057h0.057h0.058h0.057h0.057h0.057h0.057h0.057h0.057h0.057
			h0.057h0.057h0.057h0.057h0.057h0.057h0.057h0.058h0.057h0.057h0.057h0.057h0.057h0.057h0.058h0.057h0.057h0.057h0.057h0.057
			h0.057h0.057h0.058h0.057h0.057h0.057h0.057h0.057h0.057h0.058h0.057h0.057h0.057h0.057h0.057h0.057h0.057h0.057h0.057h0.057
			h0.057h0.057h0.057h0.057h0.057h0.058h0.057h0.057h0.057h0.057h0.057h0.057h0.057h0.057h0.057h0.057h0.057h0.057h0.058h0.057
			h0.057h0.057h0.057h0.057h0.057h0.057h0.058h0.057h0.057h0.057h0.057h0.057h0.057h0.058h0.057h0.057h0.048V36.52
			c0,0.256-0.016,0.509-0.048,0.757c-0.016,0.12-0.035,0.238-0.057,0.355c-0.017,0.089-0.036,0.178-0.057,0.265
			c-0.018,0.074-0.037,0.147-0.058,0.22c-0.018,0.063-0.037,0.128-0.057,0.19c-0.018,0.057-0.037,0.113-0.057,0.17
			c-0.018,0.052-0.037,0.103-0.057,0.154c-0.019,0.048-0.038,0.096-0.057,0.143c-0.019,0.045-0.038,0.089-0.057,0.133
			c-0.018,0.042-0.038,0.084-0.057,0.125c-0.019,0.039-0.038,0.078-0.058,0.117c-0.018,0.037-0.037,0.074-0.057,0.111
			c-0.019,0.035-0.037,0.071-0.057,0.105c-0.019,0.034-0.038,0.068-0.057,0.101c-0.019,0.033-0.038,0.065-0.057,0.097
			c-0.018,0.031-0.038,0.062-0.057,0.093c-0.019,0.029-0.038,0.06-0.057,0.089c-0.019,0.028-0.038,0.057-0.057,0.085
			c-0.02,0.027-0.039,0.055-0.058,0.082c-0.019,0.027-0.038,0.054-0.057,0.079c-0.019,0.026-0.038,0.052-0.057,0.078
			c-0.019,0.024-0.038,0.049-0.057,0.073c-0.019,0.024-0.038,0.048-0.057,0.072c-0.019,0.023-0.038,0.046-0.057,0.069
			c-0.02,0.022-0.039,0.046-0.057,0.068c-0.019,0.021-0.038,0.043-0.057,0.064c-0.019,0.022-0.038,0.043-0.057,0.064
			c-0.018,0.021-0.038,0.041-0.057,0.062c-0.019,0.021-0.038,0.04-0.057,0.061c-0.019,0.02-0.038,0.039-0.057,0.059
			c-0.019,0.019-0.038,0.037-0.057,0.057c-0.019,0.019-0.038,0.037-0.058,0.056c-0.018,0.019-0.037,0.036-0.057,0.054
			c-0.019,0.018-0.038,0.036-0.057,0.053c-0.019,0.018-0.038,0.034-0.057,0.052c-0.02,0.016-0.038,0.033-0.057,0.05
			c-0.018,0.017-0.038,0.032-0.057,0.048c-0.019,0.017-0.038,0.032-0.057,0.049c-0.019,0.015-0.039,0.029-0.057,0.045
			c-0.02,0.016-0.039,0.03-0.057,0.046c-0.019,0.015-0.038,0.029-0.057,0.044c-0.019,0.014-0.038,0.028-0.057,0.043
			c-0.019,0.014-0.038,0.027-0.057,0.041c-0.019,0.014-0.038,0.027-0.057,0.041s-0.038,0.027-0.057,0.04
			c-0.02,0.013-0.038,0.026-0.057,0.039s-0.038,0.025-0.057,0.037c-0.019,0.013-0.039,0.025-0.058,0.038
			c-0.018,0.012-0.038,0.023-0.057,0.035c-0.019,0.012-0.038,0.023-0.057,0.035c-0.019,0.012-0.038,0.022-0.057,0.034
			c-0.019,0.011-0.038,0.022-0.057,0.034c-0.019,0.011-0.038,0.021-0.057,0.031c-0.019,0.012-0.038,0.021-0.057,0.032
			c-0.02,0.011-0.039,0.021-0.058,0.031l-0.057,0.03c-0.019,0.01-0.038,0.019-0.057,0.029c-0.018,0.009-0.038,0.019-0.057,0.028
			c-0.019,0.009-0.038,0.019-0.057,0.027s-0.039,0.018-0.057,0.027c-0.02,0.009-0.038,0.018-0.057,0.026
			c-0.019,0.008-0.038,0.017-0.057,0.025l-0.058,0.024l-0.057,0.024c-0.019,0.008-0.038,0.016-0.057,0.022
			c-0.02,0.009-0.038,0.016-0.057,0.023c-0.02,0.008-0.038,0.015-0.057,0.022c-0.019,0.007-0.038,0.014-0.057,0.021
			c-0.019,0.007-0.039,0.014-0.057,0.021l-0.058,0.021l-0.057,0.02c-0.019,0.006-0.038,0.013-0.057,0.019
			c-0.019,0.006-0.038,0.012-0.057,0.019c-0.019,0.005-0.038,0.011-0.057,0.017l-0.057,0.017l-0.057,0.017
			c-0.019,0.006-0.038,0.01-0.057,0.016c-0.019,0.005-0.038,0.01-0.057,0.015c-0.018,0.005-0.038,0.01-0.057,0.014
			c-0.019,0.005-0.038,0.01-0.057,0.015l-0.057,0.013l-0.057,0.013c-0.019,0.004-0.038,0.008-0.057,0.013
			c-0.019,0.004-0.038,0.007-0.057,0.011c-0.02,0.003-0.039,0.008-0.058,0.011l-0.057,0.011c-0.019,0.003-0.038,0.006-0.057,0.009
			c-0.02,0.003-0.038,0.007-0.057,0.009c-0.019,0.004-0.038,0.006-0.057,0.009l-0.057,0.008c-0.02,0.003-0.039,0.006-0.058,0.008
			c-0.019,0.002-0.038,0.004-0.057,0.006c-0.019,0.003-0.038,0.005-0.057,0.007c-0.018,0.002-0.038,0.004-0.057,0.006l-0.057,0.005
			c-0.019,0.002-0.038,0.004-0.057,0.005c-0.02,0.002-0.039,0.003-0.057,0.004l-0.057,0.003l-0.056,0.003
			c-0.019,0.002-0.039,0.002-0.058,0.003s-0.038,0.001-0.057,0.002s-0.038,0.001-0.057,0.002h-0.057c-0.018,0-0.035,0-0.053,0
			h-0.004h-0.057h-0.058H22.49h-0.057h-0.057H22.32h-0.057h-0.057h-0.057h-0.057h-0.057h-0.057h-0.057h-0.057h-0.057h-0.057h-0.057
			h-0.057H21.58h-0.057h-0.057H21.41h-0.057h-0.057h-0.057h-0.057h-0.057h-0.057h-0.057h-0.057h-0.058h-0.057h-0.057h-0.057H20.67
			h-0.057h-0.057H20.5h-0.057h-0.057h-0.057h-0.057h-0.057h-0.057h-0.057h-0.058h-0.057h-0.057h-0.057h-0.057h-0.057h-0.057h-0.057
			H19.59h-0.057h-0.057h-0.057h-0.057h-0.057h-0.057h-0.058h-0.057h-0.057h-0.057h-0.057h-0.057h-0.057h-0.058h-0.057H18.68h-0.057
			h-0.057H18.51h-0.057h-0.057h-0.057h-0.057h-0.057h-0.057h-0.057h-0.057h-0.057H17.94h-0.057h-0.057H17.77h-0.057h-0.057H17.6
			h-0.057h-0.057h-0.057h-0.057h-0.057h-0.057h-0.057h-0.057h-0.058h-0.057h-0.057h-0.057H16.86h-0.057h-0.057h-0.058h-0.057h-0.057
			h-0.057h-0.057h-0.057h-0.057h-0.058h-0.057h-0.057h-0.057h-0.057h-0.057h-0.057h-0.057h-0.058H15.78h-0.057h-0.057h-0.057h-0.057
			h-0.057h-0.057h-0.057h-0.057h-0.057h-0.057h-0.057h-0.058H15.04h-0.057h-0.057H14.87h-0.057h-0.057h-0.057h-0.057h-0.057h-0.057
			h-0.057h-0.057h-0.057h-0.057h-0.057h-0.057H14.13h-0.122V29.982c0,0,0.042,0.012,0.122,0.031l0.057,0.015l0.057,0.014
			l0.057,0.014l0.057,0.014l0.057,0.013l0.057,0.014l0.057,0.013l0.057,0.013l0.057,0.013l0.057,0.012l0.057,0.013l0.057,0.012
			l0.057,0.012l0.057,0.012l0.057,0.012l0.057,0.012l0.057,0.011l0.058,0.012l0.057,0.011l0.057,0.01l0.057,0.012l0.057,0.01
			l0.057,0.011l0.057,0.01l0.057,0.011l0.057,0.01l0.057,0.01l0.057,0.01l0.057,0.01l0.057,0.009l0.058,0.01l0.057,0.009l0.057,0.01
			l0.057,0.009l0.057,0.009l0.057,0.009l0.057,0.009l0.057,0.008l0.058,0.009l0.057,0.008l0.057,0.008l0.057,0.009l0.057,0.008
			l0.057,0.008l0.057,0.008l0.058,0.007l0.057,0.007l0.057,0.008l0.057,0.007l0.057,0.007l0.057,0.008l0.057,0.006l0.058,0.007
			l0.057,0.006l0.057,0.007l0.057,0.007l0.057,0.006l0.057,0.006l0.057,0.006l0.057,0.005l0.057,0.007l0.057,0.005l0.057,0.006
			l0.057,0.005l0.057,0.006l0.057,0.004l0.057,0.005l0.058,0.005l0.057,0.005l0.057,0.005l0.057,0.004l0.057,0.004l0.057,0.005
			l0.057,0.004l0.057,0.004l0.057,0.004l0.057,0.004l0.057,0.003l0.057,0.004l0.057,0.003l0.057,0.003l0.057,0.004l0.058,0.002
			l0.057,0.003l0.057,0.003l0.057,0.002l0.057,0.003l0.057,0.002l0.057,0.002l0.058,0.002l0.057,0.002l0.057,0.002l0.057,0.002
			l0.057,0.001l0.057,0.002l0.057,0.001l0.058,0.001h0.057l0.057,0.002l0.057,0.001h0.057h0.057h0.057l0.057,0.001h0.023
			l0.035-0.001h0.057h0.057h0.057l0.057-0.001l0.057-0.001l0.057-0.001l0.057-0.001l0.057-0.001l0.057-0.002l0.057-0.001
			l0.057-0.002l0.057-0.002l0.057-0.002l0.057-0.003l0.058-0.002l0.057-0.003l0.057-0.002l0.057-0.004l0.057-0.003l0.057-0.003
			l0.057-0.004l0.057-0.004l0.057-0.003l0.057-0.005l0.057-0.004l0.057-0.005l0.057-0.005l0.057-0.004l0.057-0.006l0.057-0.005
			l0.057-0.006l0.057-0.006l0.057-0.006l0.057-0.006l0.057-0.007l0.057-0.008l0.057-0.006l0.057-0.008l0.057-0.007l0.057-0.008
			l0.057-0.008c0.02-0.003,0.039-0.006,0.057-0.009l0.057-0.009l0.058-0.008l0.057-0.009c0.019-0.004,0.038-0.007,0.057-0.01
			l0.057-0.01c0.02-0.003,0.039-0.007,0.057-0.01c0.019-0.003,0.038-0.007,0.057-0.011l0.058-0.01l0.056-0.012l0.057-0.011
			c0.019-0.004,0.038-0.008,0.057-0.012l0.057-0.012l0.057-0.012c0.019-0.004,0.038-0.009,0.057-0.014l0.057-0.012
			c0.019-0.005,0.038-0.009,0.057-0.014c0.02-0.004,0.038-0.009,0.058-0.014l0.057-0.014c0.019-0.005,0.038-0.009,0.057-0.014
			c0.019-0.005,0.038-0.011,0.057-0.016l0.057-0.015c0.019-0.006,0.038-0.011,0.057-0.016c0.019-0.005,0.038-0.011,0.058-0.016
			l0.057-0.017c0.019-0.006,0.038-0.011,0.057-0.017l0.057-0.018l0.057-0.018c0.019-0.006,0.038-0.012,0.057-0.019l0.057-0.019
			l0.057-0.02c0.019-0.006,0.038-0.012,0.057-0.019s0.038-0.014,0.057-0.021l0.057-0.021c0.019-0.008,0.038-0.015,0.057-0.021
			c0.019-0.008,0.038-0.016,0.057-0.022c0.02-0.008,0.039-0.015,0.057-0.022l0.057-0.023l0.058-0.023
			c0.018-0.008,0.038-0.016,0.057-0.024c0.019-0.008,0.038-0.017,0.057-0.025l0.057-0.025l0.057-0.026
			c0.019-0.009,0.038-0.019,0.057-0.027c0.019-0.01,0.038-0.019,0.057-0.027c0.02-0.01,0.039-0.02,0.058-0.029
			c0.019-0.01,0.038-0.02,0.057-0.029c0.02-0.01,0.038-0.021,0.057-0.03c0.019-0.011,0.038-0.021,0.057-0.032
			c0.019-0.01,0.038-0.021,0.057-0.032c0.019-0.011,0.039-0.021,0.057-0.033c0.02-0.011,0.039-0.022,0.057-0.034
			c0.019-0.012,0.038-0.023,0.057-0.035c0.019-0.012,0.038-0.023,0.058-0.036c0.019-0.012,0.038-0.025,0.057-0.037
			c0.019-0.014,0.038-0.026,0.057-0.039c0.019-0.014,0.038-0.027,0.057-0.041c0.02-0.013,0.039-0.026,0.057-0.041
			c0.019-0.014,0.038-0.027,0.057-0.043c0.019-0.014,0.039-0.028,0.057-0.044c0.019-0.015,0.039-0.03,0.058-0.045
			c0.019-0.017,0.038-0.032,0.057-0.048c0.019-0.017,0.039-0.032,0.057-0.049c0.019-0.018,0.038-0.034,0.057-0.052
			s0.038-0.035,0.057-0.053c0.019-0.019,0.038-0.037,0.057-0.055c0.02-0.02,0.039-0.039,0.057-0.059
			c0.019-0.02,0.038-0.039,0.057-0.059c0.02-0.021,0.038-0.043,0.057-0.063c0.019-0.022,0.038-0.044,0.057-0.066
			s0.038-0.046,0.057-0.068c0.019-0.023,0.039-0.048,0.057-0.072c0.02-0.025,0.039-0.051,0.057-0.076
			c0.02-0.027,0.038-0.054,0.057-0.081c0.02-0.028,0.038-0.057,0.057-0.086c0.02-0.029,0.039-0.06,0.057-0.09
			c0.02-0.032,0.039-0.065,0.058-0.098c0.019-0.034,0.039-0.069,0.057-0.104c0.02-0.037,0.039-0.075,0.057-0.113
			c0.02-0.041,0.039-0.083,0.057-0.124c0.02-0.046,0.039-0.091,0.057-0.137c0.02-0.051,0.039-0.102,0.057-0.153
			c0.021-0.059,0.04-0.117,0.057-0.177c0.021-0.07,0.039-0.141,0.057-0.212c0.021-0.087,0.04-0.176,0.057-0.267
			c0.024-0.134,0.043-0.27,0.057-0.408c0.019-0.192,0.028-0.389,0.028-0.587v-6.849h-0.028h-0.057h-0.057h-0.057h-0.057H27.04
			h-0.057h-0.057h-0.057h-0.057h-0.058h-0.057h-0.057h-0.057h-0.057h-0.057h-0.057h-0.057h-0.057h-0.057h-0.057H26.13h-0.057h-0.057
			h-0.057h-0.057h-0.058h-0.057h-0.057h-0.057h-0.057h-0.057h-0.057h-0.058h-0.057h-0.057h-0.057H25.22h-0.057h-0.057H25.05h-0.058
			h-0.057h-0.057h-0.057h-0.057h-0.057h-0.057h-0.058h-0.057H24.48h-0.057h-0.057h-0.057h-0.057h-0.057h-0.057h-0.057h-0.057h-0.057
			h-0.057h-0.057h-0.057h-0.058h-0.057h-0.057h-0.057h-0.057h-0.057H23.4h-0.057h-0.057h-0.057h-0.057h-0.057h-0.057h-0.057h-0.056
			h-0.058h-0.057h-0.057h-0.057h-0.057h-0.057h-0.058H22.49h-0.057h-0.057H22.32h-0.043v6.849c0,0.106-0.005,0.213-0.014,0.316
			c-0.012,0.132-0.031,0.26-0.057,0.385c-0.016,0.077-0.035,0.153-0.057,0.228c-0.017,0.059-0.036,0.117-0.057,0.174
			c-0.017,0.05-0.036,0.098-0.057,0.145c-0.018,0.042-0.037,0.084-0.057,0.125c-0.018,0.037-0.037,0.074-0.057,0.11
			c-0.019,0.033-0.037,0.066-0.057,0.099c-0.019,0.03-0.038,0.06-0.057,0.09c-0.019,0.027-0.038,0.055-0.057,0.082
			c-0.019,0.025-0.038,0.052-0.057,0.076c-0.019,0.024-0.038,0.047-0.057,0.07c-0.019,0.022-0.038,0.044-0.057,0.065
			c-0.018,0.021-0.038,0.041-0.057,0.062c-0.019,0.02-0.038,0.039-0.057,0.058c-0.019,0.019-0.038,0.036-0.057,0.055
			c-0.019,0.017-0.038,0.034-0.057,0.051c-0.019,0.016-0.038,0.032-0.057,0.048c-0.019,0.016-0.038,0.03-0.057,0.045
			c-0.018,0.015-0.038,0.028-0.057,0.043c-0.019,0.014-0.038,0.027-0.057,0.04c-0.019,0.014-0.038,0.026-0.057,0.038
			c-0.019,0.013-0.038,0.025-0.057,0.037c-0.019,0.011-0.038,0.022-0.057,0.034c-0.019,0.011-0.038,0.021-0.058,0.032
			c-0.019,0.011-0.038,0.021-0.057,0.031c-0.019,0.01-0.038,0.019-0.057,0.028c-0.019,0.01-0.038,0.019-0.057,0.028
			c-0.019,0.009-0.038,0.018-0.057,0.025c-0.019,0.009-0.038,0.017-0.057,0.025c-0.019,0.008-0.038,0.016-0.057,0.023
			c-0.019,0.007-0.039,0.015-0.057,0.021c-0.019,0.008-0.038,0.015-0.057,0.021c-0.019,0.007-0.038,0.013-0.057,0.02
			c-0.018,0.006-0.038,0.013-0.057,0.019c-0.019,0.005-0.038,0.012-0.057,0.017c-0.019,0.006-0.038,0.012-0.057,0.017
			c-0.02,0.005-0.038,0.011-0.057,0.016c-0.019,0.005-0.038,0.009-0.057,0.014c-0.019,0.005-0.038,0.009-0.058,0.014
			c-0.018,0.004-0.038,0.008-0.057,0.012c-0.019,0.004-0.038,0.008-0.057,0.012c-0.019,0.004-0.038,0.007-0.057,0.011
			c-0.02,0.002-0.038,0.006-0.057,0.009l-0.057,0.009c-0.019,0.003-0.038,0.005-0.057,0.008c-0.02,0.002-0.038,0.005-0.057,0.007
			l-0.058,0.007c-0.019,0.002-0.038,0.004-0.057,0.005c-0.019,0.002-0.038,0.004-0.057,0.006c-0.019,0.001-0.038,0.002-0.057,0.003
			c-0.019,0.002-0.038,0.003-0.057,0.004c-0.02,0-0.038,0.002-0.057,0.003c-0.019,0-0.038,0.001-0.057,0.002l-0.058,0.001
			c-0.018,0-0.038,0-0.057,0h-0.021h-0.036h-0.057l-0.057-0.001l-0.057-0.001l-0.057-0.001l-0.058-0.003l-0.057-0.002l-0.057-0.002
			l-0.057-0.003l-0.057-0.004L18.51,28.79l-0.057-0.004l-0.057-0.004l-0.057-0.005l-0.057-0.006l-0.057-0.005l-0.057-0.006
			l-0.057-0.006l-0.057-0.007l-0.057-0.007l-0.058-0.007l-0.057-0.008l-0.057-0.008L17.77,28.71l-0.057-0.008l-0.057-0.009
			l-0.057-0.01l-0.057-0.01l-0.057-0.01l-0.057-0.01l-0.057-0.011l-0.057-0.011l-0.057-0.012l-0.057-0.011l-0.057-0.013
			l-0.058-0.012l-0.057-0.013l-0.057-0.013l-0.057-0.014l-0.057-0.013l-0.057-0.015l-0.057-0.014l-0.058-0.014l-0.057-0.016
			l-0.057-0.015l-0.057-0.016l-0.057-0.016l-0.057-0.016l-0.057-0.017l-0.058-0.016l-0.057-0.018l-0.057-0.017l-0.057-0.018
			l-0.057-0.018l-0.057-0.019l-0.057-0.018l-0.057-0.019l-0.058-0.02l-0.057-0.019L15.723,28.2l-0.057-0.019l-0.057-0.021
			l-0.057-0.021l-0.057-0.021L15.438,28.1l-0.057-0.021l-0.057-0.021l-0.057-0.021l-0.057-0.022l-0.057-0.021l-0.058-0.023
			l-0.057-0.022l-0.057-0.023l-0.057-0.023l-0.057-0.022l-0.057-0.024l-0.057-0.023l-0.057-0.025l-0.057-0.024l-0.057-0.024
			l-0.057-0.025l-0.057-0.025l-0.057-0.026l-0.057-0.025l-0.057-0.026L14.244,27.6l-0.057-0.027L14.13,27.545L14.13,27.545
			L14.13,27.545z"/>
		
			<linearGradient id="SVGID_3_" gradientUnits="userSpaceOnUse" x1="-154.3018" y1="305.7441" x2="-149.166" y2="305.7441" gradientTransform="matrix(2.8346 0 0 -2.8346 467.7312 891.3894)">
			<stop  offset="0" style="stop-color:#6E2B2F"/>
			<stop  offset="1" style="stop-color:#E30138"/>
		</linearGradient>
		<path fill="url(#SVGID_3_)" d="M30.46,20.536c-0.041,0.033-0.082,0.066-0.122,0.101v-7.728c0-0.41,0.042-0.812,0.122-1.199
			c0.017-0.083,0.036-0.166,0.057-0.247c0.018-0.071,0.037-0.141,0.058-0.209c0.018-0.062,0.037-0.123,0.057-0.184
			c0.018-0.055,0.037-0.111,0.057-0.166c0.019-0.051,0.037-0.101,0.057-0.151c0.019-0.046,0.037-0.093,0.057-0.139
			c0.019-0.044,0.038-0.087,0.057-0.13c0.019-0.041,0.038-0.082,0.057-0.122c0.019-0.039,0.038-0.077,0.057-0.115
			c0.019-0.036,0.038-0.073,0.058-0.108c0.018-0.035,0.038-0.07,0.057-0.104c0.019-0.034,0.038-0.067,0.057-0.1
			c0.019-0.032,0.038-0.064,0.057-0.096c0.019-0.03,0.038-0.061,0.057-0.091c0.018-0.03,0.038-0.058,0.057-0.088
			c0.019-0.028,0.038-0.056,0.057-0.084c0.019-0.027,0.039-0.055,0.058-0.082c0.019-0.027,0.038-0.052,0.057-0.078
			c0.019-0.026,0.038-0.051,0.057-0.076c0.019-0.025,0.038-0.05,0.057-0.075c0.019-0.023,0.038-0.047,0.057-0.07
			c0.019-0.023,0.038-0.047,0.057-0.069c0.02-0.022,0.038-0.045,0.058-0.067c0.019-0.022,0.038-0.044,0.056-0.065
			c0.019-0.021,0.038-0.042,0.057-0.063c0.019-0.021,0.038-0.041,0.057-0.061c0.019-0.02,0.038-0.04,0.057-0.06
			s0.038-0.039,0.057-0.059c0.019-0.019,0.038-0.037,0.057-0.056c0.019-0.019,0.038-0.037,0.057-0.056
			c0.019-0.018,0.038-0.036,0.057-0.053c0.019-0.018,0.039-0.036,0.058-0.053c0.019-0.017,0.038-0.034,0.057-0.05
			c0.019-0.017,0.038-0.034,0.057-0.05c0.019-0.016,0.038-0.032,0.057-0.048c0.019-0.016,0.038-0.031,0.057-0.047
			s0.038-0.031,0.057-0.046c0.019-0.015,0.039-0.03,0.058-0.045c0.019-0.014,0.038-0.028,0.057-0.043
			c0.019-0.014,0.038-0.028,0.057-0.042c0.019-0.014,0.038-0.027,0.057-0.042c0.019-0.013,0.038-0.027,0.057-0.041
			c0.019-0.013,0.038-0.026,0.057-0.04c0.02-0.013,0.038-0.025,0.057-0.039C32.981,7.987,33,7.975,33.019,7.963
			c0.019-0.012,0.038-0.024,0.057-0.037c0.019-0.011,0.038-0.023,0.057-0.035c0.019-0.012,0.038-0.023,0.057-0.035
			s0.038-0.022,0.057-0.033c0.02-0.012,0.038-0.023,0.057-0.034c0.019-0.011,0.038-0.021,0.057-0.032
			c0.019-0.01,0.038-0.021,0.057-0.031c0.019-0.01,0.039-0.021,0.058-0.031c0.019-0.01,0.038-0.02,0.057-0.03l0.057-0.029
			l0.057-0.028c0.019-0.01,0.038-0.019,0.057-0.028c0.019-0.009,0.038-0.018,0.057-0.026c0.019-0.009,0.038-0.019,0.058-0.027
			c0.019-0.009,0.038-0.016,0.057-0.025c0.019-0.008,0.038-0.016,0.057-0.024c0.018-0.008,0.037-0.016,0.057-0.023l0.057-0.023
			c0.019-0.008,0.038-0.016,0.057-0.023c0.02-0.007,0.039-0.014,0.057-0.021c0.019-0.008,0.038-0.015,0.057-0.022
			c0.019-0.007,0.038-0.013,0.057-0.02c0.019-0.007,0.038-0.014,0.057-0.02c0.019-0.007,0.038-0.013,0.057-0.02l0.057-0.018
			c0.02-0.006,0.038-0.013,0.057-0.018c0.019-0.006,0.038-0.012,0.057-0.017c0.019-0.006,0.038-0.012,0.057-0.017
			c0.019-0.005,0.039-0.01,0.058-0.016l0.057-0.016c0.019-0.005,0.038-0.01,0.057-0.015c0.019-0.005,0.038-0.009,0.057-0.014
			c0.019-0.004,0.038-0.01,0.057-0.014c0.019-0.004,0.038-0.008,0.057-0.013l0.058-0.012c0.019-0.003,0.038-0.008,0.057-0.012
			c0.019-0.004,0.038-0.007,0.057-0.011c0.018-0.003,0.037-0.008,0.057-0.011l0.057-0.009l0.057-0.01
			c0.02-0.003,0.038-0.006,0.057-0.01c0.019-0.002,0.038-0.004,0.057-0.007c0.019-0.003,0.038-0.005,0.057-0.008l0.058-0.007
			l0.057-0.007c0.019-0.002,0.038-0.004,0.057-0.006c0.019-0.002,0.038-0.003,0.057-0.006l0.057-0.004
			c0.019-0.001,0.038-0.003,0.057-0.005c0.019-0.001,0.039-0.002,0.058-0.003c0.019-0.001,0.038-0.003,0.057-0.003
			c0.019-0.001,0.038-0.002,0.057-0.003l0.057-0.002c0.019,0,0.038-0.002,0.057-0.002c0.019-0.001,0.038-0.001,0.057-0.001
			c0.019,0,0.039,0,0.058,0l0.024,0h0.032h0.057h0.057h0.057h0.057h0.057h0.057h0.057h0.058h0.057h0.057h0.057h0.057H37h0.057h0.058
			h0.057h0.057h0.057h0.057h0.057h0.057h0.056h0.058h0.057h0.057h0.057h0.057h0.057h0.058h0.057h0.057h0.057h0.057h0.057h0.057
			h0.058h0.057h0.057h0.057h0.056h0.058h0.058h0.056h0.058h0.057h0.057h0.057h0.057h0.057h0.059h0.057h0.057h0.057h0.057h0.057
			h0.057h0.058h0.057h0.058h0.057h0.057h0.057h0.057H39.9h0.058h0.057h0.057h0.058h0.057h0.057h0.057h0.057h0.058h0.057h0.057h0.057
			h0.058h0.057h0.057h0.057h0.057h0.057h0.058h0.057h0.057h0.058h0.057h0.057h0.057h0.057h0.057h0.058h0.058h0.057h0.057h0.057
			h0.057h0.057h0.058h0.058h0.057h0.057h0.057h0.057h0.057h0.057h0.058h0.057h0.057h0.058h0.057h0.057h0.057h0.057h0.058h0.057
			h0.057h0.057h0.058h0.057h0.057h0.057h0.057h0.057h0.058h0.057h0.057h0.058h0.057h0.057h0.057h0.057h0.057h0.058h0.058h0.057
			h0.057h0.057h0.057h0.057h0.057h0.059h0.057h0.057h0.057h0.057h0.057h0.057h0.057h0.058h0.057h0.048V36.52
			c0,0.256-0.016,0.509-0.048,0.757c-0.016,0.12-0.034,0.237-0.057,0.354c-0.017,0.09-0.036,0.178-0.058,0.266
			c-0.017,0.073-0.036,0.146-0.057,0.22c-0.018,0.063-0.037,0.127-0.057,0.189c-0.018,0.058-0.037,0.114-0.057,0.17
			c-0.019,0.052-0.037,0.104-0.057,0.155c-0.019,0.048-0.038,0.095-0.057,0.143c-0.02,0.045-0.038,0.089-0.057,0.133
			c-0.02,0.042-0.038,0.083-0.057,0.125c-0.02,0.039-0.038,0.078-0.059,0.117c-0.018,0.037-0.037,0.074-0.057,0.111
			c-0.018,0.035-0.037,0.07-0.057,0.105c-0.018,0.034-0.037,0.067-0.057,0.101c-0.019,0.032-0.037,0.064-0.057,0.097
			c-0.02,0.031-0.037,0.062-0.057,0.092s-0.038,0.06-0.057,0.089c-0.02,0.028-0.038,0.058-0.058,0.086
			c-0.019,0.027-0.038,0.055-0.058,0.082c-0.018,0.027-0.037,0.053-0.057,0.079c-0.018,0.025-0.037,0.052-0.057,0.077
			c-0.018,0.024-0.037,0.05-0.057,0.074c-0.018,0.024-0.038,0.048-0.057,0.071c-0.02,0.024-0.037,0.047-0.057,0.07
			c-0.02,0.022-0.038,0.046-0.058,0.067c-0.019,0.021-0.038,0.044-0.057,0.065s-0.038,0.043-0.057,0.064
			c-0.019,0.021-0.038,0.041-0.058,0.062c-0.019,0.02-0.037,0.04-0.057,0.061c-0.019,0.02-0.037,0.039-0.057,0.058
			c-0.019,0.02-0.037,0.038-0.057,0.058c-0.02,0.019-0.038,0.037-0.057,0.056c-0.02,0.018-0.038,0.035-0.057,0.053
			c-0.02,0.019-0.038,0.036-0.058,0.054c-0.019,0.018-0.038,0.033-0.057,0.051c-0.019,0.017-0.038,0.034-0.057,0.051
			s-0.038,0.032-0.057,0.048c-0.02,0.017-0.038,0.032-0.058,0.048c-0.019,0.016-0.037,0.03-0.057,0.046
			c-0.019,0.016-0.038,0.03-0.057,0.046c-0.019,0.014-0.038,0.028-0.057,0.044c-0.02,0.014-0.038,0.028-0.057,0.043
			c-0.02,0.014-0.038,0.027-0.058,0.041c-0.019,0.014-0.038,0.027-0.057,0.041s-0.038,0.026-0.057,0.039
			c-0.019,0.014-0.038,0.027-0.058,0.04c-0.019,0.013-0.037,0.024-0.057,0.037c-0.019,0.013-0.037,0.025-0.057,0.037
			c-0.019,0.013-0.037,0.024-0.057,0.036s-0.038,0.023-0.057,0.035c-0.02,0.012-0.038,0.022-0.057,0.034
			c-0.02,0.011-0.039,0.022-0.057,0.034c-0.02,0.01-0.039,0.021-0.058,0.031l-0.058,0.032l-0.057,0.03l-0.057,0.03
			c-0.02,0.011-0.037,0.02-0.057,0.029s-0.037,0.02-0.057,0.029c-0.02,0.009-0.039,0.018-0.057,0.027
			c-0.02,0.009-0.039,0.018-0.058,0.027c-0.019,0.009-0.038,0.018-0.058,0.025c-0.018,0.009-0.037,0.018-0.057,0.026l-0.057,0.024
			l-0.057,0.024l-0.057,0.022c-0.02,0.008-0.037,0.016-0.057,0.023s-0.039,0.015-0.058,0.021c-0.019,0.008-0.038,0.015-0.057,0.021
			S41,42.071,40.981,42.078l-0.058,0.021l-0.057,0.02c-0.019,0.006-0.037,0.013-0.057,0.019c-0.019,0.006-0.038,0.012-0.057,0.018
			c-0.02,0.006-0.038,0.012-0.057,0.018l-0.057,0.017l-0.058,0.017c-0.019,0.006-0.038,0.01-0.057,0.016
			c-0.019,0.005-0.038,0.01-0.057,0.015c-0.02,0.005-0.038,0.01-0.057,0.014c-0.02,0.005-0.038,0.01-0.058,0.015l-0.057,0.013
			l-0.057,0.013c-0.02,0.004-0.038,0.008-0.057,0.013c-0.02,0.004-0.038,0.007-0.057,0.011l-0.058,0.011l-0.057,0.011
			c-0.019,0.003-0.038,0.006-0.057,0.009S39.92,42.35,39.9,42.352c-0.019,0.003-0.037,0.006-0.057,0.009l-0.057,0.008
			c-0.019,0.003-0.037,0.006-0.057,0.008s-0.038,0.004-0.057,0.006c-0.02,0.003-0.038,0.005-0.057,0.007
			c-0.02,0.002-0.039,0.004-0.058,0.006l-0.057,0.005c-0.019,0.002-0.038,0.004-0.058,0.005c-0.018,0.002-0.037,0.003-0.057,0.004
			l-0.057,0.003l-0.057,0.003c-0.02,0.002-0.039,0.002-0.057,0.003c-0.02,0.001-0.039,0.001-0.057,0.002
			c-0.02,0.001-0.039,0.001-0.057,0.002h-0.059c-0.017,0-0.034,0-0.053,0H38.99h-0.057h-0.057H38.82h-0.057h-0.058H38.65h-0.058
			h-0.058h-0.056h-0.057h-0.057h-0.057h-0.058h-0.057h-0.057h-0.057h-0.057h-0.057h-0.057h-0.058h-0.057H37.74h-0.057h-0.057h-0.057
			h-0.058h-0.056h-0.057h-0.057h-0.057h-0.057h-0.057h-0.057h-0.058H37h-0.057h-0.057H36.83h-0.057h-0.057h-0.058h-0.057h-0.057
			h-0.057h-0.057h-0.057h-0.057h-0.057h-0.057h-0.058H36.09h-0.057h-0.057H35.92h-0.057h-0.058h-0.057h-0.057h-0.057h-0.057h-0.057
			h-0.058h-0.057h-0.057h-0.057h-0.057h-0.057h-0.057h-0.057H35.01h-0.058h-0.057h-0.057h-0.057h-0.057h-0.057h-0.058h-0.057h-0.057
			h-0.057h-0.057h-0.057h-0.057h-0.057h-0.057H34.1h-0.057h-0.057H33.93h-0.057h-0.057h-0.058h-0.057h-0.057h-0.057h-0.057h-0.057
			h-0.058H33.36h-0.057h-0.057H33.19h-0.057h-0.057h-0.057h-0.057h-0.057h-0.057h-0.057h-0.057h-0.057h-0.057h-0.058h-0.057h-0.057
			h-0.057h-0.057H32.28h-0.058h-0.057h-0.057h-0.057h-0.057h-0.057h-0.057h-0.057h-0.056h-0.058h-0.057h-0.057h-0.057h-0.057h-0.057
			H31.37h-0.057h-0.057h-0.057h-0.057h-0.057h-0.057h-0.058h-0.057h-0.057h-0.057h-0.057h-0.057h-0.057h-0.057h-0.058H30.46h-0.122
			V28.794c0.04,0.034,0.081,0.067,0.122,0.101c0.019,0.016,0.038,0.03,0.057,0.045c0.02,0.016,0.038,0.03,0.058,0.045
			c0.019,0.015,0.038,0.028,0.057,0.043c0.019,0.015,0.038,0.028,0.057,0.042c0.019,0.015,0.038,0.027,0.057,0.041
			s0.038,0.026,0.057,0.04l0.057,0.039c0.019,0.013,0.038,0.025,0.057,0.038l0.057,0.036c0.019,0.013,0.038,0.025,0.058,0.037
			c0.018,0.012,0.038,0.023,0.057,0.035l0.057,0.035c0.019,0.011,0.038,0.022,0.057,0.033c0.019,0.011,0.038,0.021,0.057,0.033
			l0.057,0.032l0.057,0.031l0.058,0.03c0.019,0.011,0.038,0.021,0.057,0.031c0.019,0.01,0.038,0.02,0.057,0.029l0.057,0.028
			l0.057,0.028l0.057,0.027c0.02,0.009,0.038,0.019,0.058,0.027l0.056,0.026l0.057,0.025l0.057,0.025l0.057,0.025l0.057,0.024
			l0.057,0.023l0.057,0.023l0.057,0.022l0.058,0.022l0.057,0.021c0.019,0.008,0.038,0.015,0.057,0.021l0.057,0.021
			c0.019,0.006,0.038,0.014,0.057,0.02c0.019,0.008,0.038,0.015,0.057,0.021l0.058,0.02l0.057,0.02
			c0.019,0.006,0.038,0.013,0.057,0.019c0.019,0.007,0.038,0.013,0.057,0.019l0.057,0.019l0.057,0.018l0.057,0.017l0.057,0.018
			l0.057,0.017l0.057,0.016l0.057,0.016l0.057,0.017l0.057,0.015l0.057,0.015l0.057,0.015l0.058,0.014l0.057,0.015l0.057,0.014
			l0.057,0.013l0.057,0.013l0.057,0.014l0.058,0.012l0.057,0.013l0.057,0.012l0.057,0.012l0.057,0.011l0.057,0.011l0.057,0.011
			l0.057,0.011l0.057,0.011l0.057,0.01l0.057,0.01l0.057,0.01l0.057,0.009l0.057,0.009l0.057,0.01l0.058,0.009l0.057,0.008
			l0.057,0.008l0.057,0.008l0.057,0.008l0.057,0.008l0.058,0.007l0.057,0.007l0.057,0.007l0.057,0.007l0.057,0.007l0.057,0.006
			l0.057,0.006l0.057,0.006l0.057,0.006l0.058,0.006l0.057,0.005l0.057,0.005l0.057,0.005l0.057,0.005l0.057,0.004l0.058,0.004
			l0.057,0.005l0.057,0.004l0.057,0.004l0.057,0.004l0.057,0.004l0.058,0.003l0.057,0.003l0.057,0.003l0.057,0.003l0.057,0.002
			l0.057,0.003l0.057,0.002l0.057,0.002l0.057,0.003l0.058,0.002l0.057,0.002l0.057,0.001l0.057,0.002l0.057,0.001L37,30.712
			l0.057,0.001l0.058,0.001l0.057,0.001h0.057l0.057,0.001h0.057h0.057h0.057h0.056l0.058-0.001h0.057h0.057l0.057-0.001
			l0.057-0.001l0.057-0.001l0.058-0.001l0.057-0.001l0.057-0.001l0.057-0.002l0.057-0.002l0.057-0.001l0.057-0.001l0.058-0.003
			l0.057-0.002l0.057-0.002l0.057-0.003l0.056-0.002l0.058-0.002l0.028-0.001l0.029-0.002l0.056-0.002l0.058-0.004l0.057-0.003
			l0.057-0.003l0.057-0.004l0.057-0.004l0.057-0.004l0.059-0.004l0.057-0.004l0.057-0.005l0.057-0.005l0.057-0.005l0.057-0.005
			l0.057-0.005l0.058-0.006l0.057-0.005l0.058-0.006l0.057-0.006l0.057-0.006l0.057-0.007l0.057-0.006l0.057-0.006l0.058-0.007
			l0.057-0.007l0.057-0.007l0.058-0.007l0.057-0.007l0.057-0.008l0.057-0.007l0.057-0.008l0.058-0.008l0.057-0.008l0.057-0.008
			l0.057-0.008l0.058-0.009l0.057-0.008l0.057-0.009l0.057-0.009l0.057-0.008l0.057-0.009l0.058-0.01l0.057-0.009l0.057-0.009
			l0.058-0.01l0.057-0.009l0.057-0.01l0.057-0.01l0.057-0.01l0.057-0.01l0.058-0.01l0.058-0.011l0.057-0.01l0.057-0.011l0.057-0.01
			l0.057-0.011l0.057-0.011l0.058-0.011l0.058-0.011l0.057-0.012l0.057-0.011l0.057-0.011l0.057-0.012l0.057-0.011l0.057-0.012
			l0.058-0.012l0.057-0.012l0.057-0.012l0.058-0.012l0.057-0.013l0.057-0.013l0.057-0.012l0.057-0.013l0.058-0.013l0.057-0.013
			l0.057-0.013l0.057-0.013l0.058-0.014l0.057-0.014l0.057-0.014l0.057-0.014l0.057-0.014v-2.496l-0.057,0.027l-0.057,0.028
			l-0.057,0.027l-0.057,0.028l-0.058,0.027l-0.057,0.026l-0.057,0.027l-0.057,0.026l-0.058,0.026l-0.057,0.026l-0.057,0.025
			l-0.057,0.025l-0.057,0.025l-0.058,0.024l-0.057,0.024l-0.057,0.023l-0.058,0.024l-0.057,0.023l-0.057,0.023l-0.057,0.022
			l-0.057,0.023l-0.057,0.022l-0.057,0.021l-0.058,0.021l-0.058,0.021l-0.057,0.021l-0.057,0.021l-0.057,0.021l-0.057,0.02
			l-0.057,0.021l-0.058,0.02l-0.058,0.02l-0.057,0.018l-0.057,0.019l-0.057,0.019l-0.057,0.018l-0.057,0.018l-0.058,0.018
			l-0.057,0.017l-0.057,0.017l-0.058,0.017l-0.057,0.016l-0.057,0.016l-0.057,0.015l-0.057,0.016l-0.057,0.014L40.583,28.5
			l-0.057,0.015l-0.057,0.014l-0.057,0.013l-0.058,0.013l-0.057,0.014l-0.057,0.012l-0.057,0.012l-0.057,0.012l-0.058,0.012
			l-0.057,0.011l-0.057,0.011L39.9,28.646l-0.057,0.01l-0.057,0.011l-0.057,0.009l-0.057,0.01l-0.057,0.009l-0.058,0.008
			l-0.057,0.009l-0.058,0.008l-0.057,0.008l-0.057,0.008l-0.057,0.007l-0.057,0.007l-0.057,0.007l-0.057,0.006l-0.059,0.006
			l-0.057,0.005l-0.057,0.006l-0.057,0.005l-0.057,0.005l-0.034,0.002l-0.022,0.002l-0.058,0.004l-0.056,0.004l-0.058,0.003
			l-0.058,0.003l-0.056,0.003l-0.057,0.002l-0.057,0.001l-0.057,0.002l-0.058,0.001l-0.057,0.001c-0.019,0-0.038-0.001-0.057-0.001
			h-0.057l-0.057-0.001l-0.057-0.001l-0.057-0.002c-0.019,0-0.039-0.001-0.058-0.002c-0.019-0.001-0.038-0.002-0.057-0.003
			l-0.057-0.003l-0.057-0.003l-0.057-0.004l-0.057-0.005c-0.019-0.001-0.039-0.003-0.058-0.005
			c-0.019-0.001-0.038-0.003-0.056-0.005l-0.057-0.006l-0.057-0.007l-0.057-0.007l-0.057-0.008l-0.057-0.008
			c-0.019-0.003-0.038-0.006-0.057-0.009c-0.019-0.003-0.038-0.006-0.058-0.009c-0.018-0.003-0.037-0.007-0.057-0.01
			c-0.019-0.004-0.038-0.007-0.057-0.011c-0.019-0.003-0.038-0.007-0.057-0.011c-0.02-0.003-0.038-0.008-0.057-0.012
			c-0.019-0.004-0.038-0.008-0.057-0.012c-0.019-0.005-0.038-0.009-0.057-0.014l-0.058-0.013c-0.019-0.005-0.038-0.01-0.057-0.015
			c-0.019-0.005-0.038-0.01-0.057-0.015c-0.02-0.005-0.038-0.011-0.057-0.016c-0.019-0.006-0.038-0.011-0.057-0.017
			s-0.038-0.011-0.057-0.018c-0.019-0.005-0.039-0.011-0.057-0.018c-0.02-0.006-0.039-0.012-0.057-0.019
			c-0.019-0.007-0.038-0.013-0.057-0.02c-0.02-0.006-0.039-0.014-0.058-0.021s-0.038-0.013-0.057-0.021s-0.038-0.015-0.057-0.022
			s-0.039-0.016-0.057-0.022c-0.019-0.008-0.038-0.016-0.057-0.024c-0.019-0.008-0.038-0.017-0.057-0.024
			c-0.019-0.009-0.039-0.018-0.058-0.026c-0.019-0.009-0.038-0.019-0.057-0.027s-0.038-0.019-0.057-0.027
			c-0.02-0.01-0.039-0.02-0.057-0.029c-0.019-0.01-0.038-0.021-0.057-0.03c-0.019-0.011-0.038-0.021-0.057-0.032
			c-0.019-0.011-0.039-0.021-0.058-0.032c-0.019-0.012-0.038-0.022-0.057-0.034s-0.038-0.024-0.057-0.036
			c-0.02-0.012-0.039-0.024-0.057-0.036c-0.019-0.014-0.038-0.026-0.057-0.039c-0.019-0.014-0.038-0.027-0.057-0.041
			c-0.02-0.014-0.039-0.027-0.057-0.041c-0.02-0.015-0.039-0.029-0.057-0.044c-0.02-0.016-0.038-0.03-0.057-0.045
			c-0.02-0.017-0.039-0.032-0.058-0.048c-0.019-0.017-0.038-0.033-0.057-0.051c-0.019-0.016-0.039-0.034-0.057-0.052
			c-0.019-0.018-0.039-0.035-0.057-0.054c-0.019-0.019-0.038-0.038-0.057-0.057c-0.019-0.02-0.038-0.04-0.057-0.06
			c-0.02-0.021-0.039-0.042-0.058-0.063s-0.038-0.044-0.057-0.066c-0.019-0.022-0.038-0.046-0.057-0.069
			c-0.02-0.024-0.039-0.049-0.057-0.073c-0.019-0.026-0.038-0.052-0.057-0.078c-0.019-0.027-0.038-0.056-0.057-0.083
			c-0.02-0.029-0.039-0.059-0.057-0.089c-0.02-0.031-0.038-0.062-0.057-0.096s-0.039-0.067-0.057-0.102
			c-0.02-0.037-0.039-0.075-0.057-0.112c-0.02-0.04-0.038-0.08-0.057-0.121c-0.02-0.045-0.039-0.089-0.057-0.134
			c-0.02-0.051-0.039-0.102-0.057-0.153c-0.021-0.057-0.04-0.115-0.057-0.174c-0.021-0.068-0.04-0.139-0.057-0.209
			c-0.022-0.087-0.041-0.177-0.058-0.269c-0.024-0.136-0.043-0.275-0.057-0.418c-0.015-0.165-0.023-0.335-0.023-0.511
			s0.008-0.345,0.023-0.511c0.014-0.143,0.032-0.282,0.057-0.418c0.017-0.092,0.036-0.181,0.058-0.27
			c0.017-0.07,0.036-0.14,0.057-0.208c0.018-0.06,0.036-0.117,0.057-0.174c0.018-0.053,0.037-0.103,0.057-0.153
			c0.018-0.046,0.037-0.09,0.057-0.135c0.019-0.041,0.037-0.081,0.057-0.121c0.019-0.038,0.038-0.075,0.057-0.111
			c0.018-0.034,0.038-0.069,0.057-0.103c0.019-0.032,0.038-0.064,0.057-0.096c0.019-0.03,0.037-0.06,0.057-0.089
			c0.019-0.028,0.038-0.056,0.057-0.083c0.019-0.026,0.038-0.053,0.057-0.078c0.019-0.024,0.038-0.049,0.057-0.073
			c0.019-0.023,0.038-0.047,0.057-0.07c0.019-0.021,0.038-0.044,0.057-0.065s0.038-0.042,0.058-0.063
			c0.019-0.02,0.038-0.04,0.057-0.06c0.019-0.02,0.038-0.038,0.057-0.057c0.019-0.019,0.038-0.036,0.057-0.054
			c0.018-0.019,0.038-0.035,0.057-0.053c0.019-0.017,0.038-0.034,0.057-0.05c0.019-0.017,0.038-0.032,0.058-0.048
			c0.019-0.015,0.037-0.03,0.057-0.045c0.019-0.015,0.038-0.029,0.057-0.045c0.018-0.014,0.037-0.027,0.057-0.041
			c0.019-0.014,0.038-0.027,0.057-0.04s0.038-0.026,0.057-0.039c0.019-0.012,0.038-0.024,0.057-0.037
			c0.019-0.012,0.038-0.023,0.057-0.035s0.038-0.023,0.057-0.034c0.019-0.011,0.039-0.022,0.058-0.033
			c0.019-0.011,0.038-0.021,0.057-0.031c0.019-0.011,0.038-0.021,0.057-0.03c0.019-0.01,0.038-0.02,0.057-0.029
			c0.019-0.01,0.038-0.02,0.057-0.028s0.038-0.019,0.057-0.027c0.019-0.009,0.039-0.018,0.058-0.025
			c0.019-0.009,0.038-0.017,0.057-0.024c0.019-0.009,0.038-0.017,0.057-0.025c0.019-0.007,0.038-0.015,0.057-0.022
			s0.038-0.015,0.057-0.021c0.019-0.008,0.038-0.015,0.057-0.021s0.038-0.014,0.058-0.021c0.019-0.007,0.038-0.013,0.057-0.02
			c0.019-0.006,0.038-0.013,0.057-0.019c0.018-0.006,0.038-0.012,0.057-0.018c0.019-0.006,0.038-0.012,0.057-0.018l0.057-0.016
			c0.02-0.006,0.038-0.011,0.057-0.017c0.019-0.005,0.038-0.01,0.057-0.015c0.019-0.004,0.038-0.009,0.057-0.014l0.058-0.014
			c0.019-0.004,0.038-0.009,0.057-0.014c0.019-0.004,0.038-0.008,0.057-0.011c0.02-0.005,0.038-0.009,0.057-0.013
			c0.019-0.004,0.038-0.007,0.057-0.011c0.019-0.003,0.038-0.007,0.057-0.011c0.02-0.003,0.039-0.006,0.057-0.01
			c0.02-0.002,0.039-0.006,0.058-0.009l0.057-0.009l0.057-0.008l0.057-0.007l0.057-0.008l0.057-0.006l0.057-0.007
			c0.019-0.001,0.038-0.003,0.056-0.005c0.019-0.002,0.039-0.004,0.058-0.005l0.057-0.004l0.057-0.004l0.057-0.004l0.057-0.003
			c0.019-0.001,0.038-0.002,0.057-0.003c0.019,0,0.039-0.002,0.058-0.002l0.057-0.002h0.057l0.057-0.002h0.057
			c0.019,0,0.038,0,0.057,0l0.057,0.001l0.058,0.001l0.057,0.001l0.057,0.001l0.057,0.002l0.056,0.003l0.058,0.003l0.058,0.004
			l0.056,0.003l0.058,0.004l0.022,0.002l0.034,0.002l0.057,0.005l0.057,0.005l0.057,0.005l0.057,0.006l0.059,0.006l0.057,0.006
			l0.057,0.007l0.057,0.007l0.057,0.007l0.057,0.007l0.057,0.008l0.058,0.008l0.057,0.008l0.058,0.009l0.057,0.009l0.057,0.01
			l0.057,0.009l0.057,0.01l0.057,0.01l0.058,0.011l0.057,0.011l0.057,0.011l0.058,0.012l0.057,0.012l0.057,0.012l0.057,0.012
			l0.057,0.013l0.058,0.013l0.057,0.014l0.057,0.013l0.057,0.015l0.058,0.014l0.057,0.016l0.057,0.014l0.057,0.016l0.057,0.016
			l0.057,0.016l0.058,0.017l0.057,0.017l0.057,0.017l0.058,0.018l0.057,0.017l0.057,0.019l0.057,0.018l0.057,0.019l0.057,0.02
			l0.058,0.019l0.058,0.02l0.057,0.02l0.057,0.021l0.057,0.021l0.057,0.021l0.057,0.021l0.058,0.021l0.058,0.021l0.057,0.022
			l0.057,0.022l0.057,0.022l0.057,0.023l0.057,0.023l0.057,0.023l0.058,0.023l0.057,0.025l0.057,0.024l0.058,0.025l0.057,0.025
			l0.057,0.025l0.057,0.025l0.057,0.026l0.058,0.026l0.057,0.026l0.057,0.027l0.057,0.027l0.058,0.027l0.057,0.028l0.057,0.027
			l0.057,0.029l0.057,0.027v-2.498l-0.057-0.015l-0.057-0.014l-0.057-0.013l-0.057-0.014l-0.058-0.013l-0.057-0.013l-0.057-0.013
			l-0.057-0.013l-0.058-0.012l-0.057-0.012l-0.057-0.013l-0.057-0.012l-0.057-0.012l-0.058-0.012l-0.057-0.012l-0.057-0.012
			l-0.058-0.012l-0.057-0.011l-0.057-0.012l-0.057-0.011l-0.057-0.011l-0.057-0.012l-0.057-0.011l-0.058-0.011l-0.058-0.01
			l-0.057-0.011l-0.057-0.01l-0.057-0.01l-0.057-0.011l-0.057-0.009l-0.058-0.01l-0.058-0.01l-0.057-0.01l-0.057-0.009l-0.057-0.01
			l-0.057-0.01l-0.057-0.009l-0.058-0.009l-0.057-0.009l-0.057-0.009l-0.058-0.009l-0.057-0.009l-0.057-0.009l-0.057-0.008
			l-0.057-0.008l-0.057-0.008l-0.058-0.008l-0.057-0.008l-0.057-0.008l-0.057-0.007l-0.058-0.008l-0.057-0.007l-0.057-0.007
			l-0.057-0.008l-0.057-0.007l-0.058-0.007l-0.057-0.007l-0.057-0.007L39.9,18.845l-0.057-0.006l-0.057-0.006l-0.057-0.006
			l-0.057-0.006l-0.057-0.006l-0.058-0.005l-0.057-0.005l-0.058-0.005l-0.057-0.005l-0.057-0.005l-0.057-0.005l-0.057-0.005
			l-0.057-0.004l-0.057-0.004l-0.059-0.004l-0.057-0.004l-0.057-0.004l-0.057-0.003l-0.057-0.003l-0.057-0.003l-0.058-0.003
			l-0.056-0.003l-0.029-0.001l-0.028,0l-0.058-0.003l-0.056-0.002l-0.057-0.003l-0.057-0.002l-0.057-0.001l-0.058-0.002
			l-0.057-0.002l-0.057-0.001l-0.057-0.001l-0.057-0.002l-0.057,0l-0.057-0.001l-0.058-0.001l-0.057,0l-0.057-0.001l-0.057,0
			l-0.057-0.001h-0.057l-0.058,0h-0.056h-0.057l-0.057,0h-0.057h-0.057l-0.057,0.001l-0.057,0l-0.058,0.001L37,18.718l-0.057,0
			l-0.057,0.002l-0.057,0.001l-0.057,0.001l-0.057,0.001l-0.058,0.002l-0.057,0.002l-0.057,0.002l-0.057,0.003l-0.057,0.002
			l-0.057,0.003l-0.057,0.002l-0.057,0.003l-0.057,0.003l-0.058,0.003l-0.057,0.003l-0.057,0.003l-0.057,0.004l-0.057,0.004
			l-0.057,0.004l-0.058,0.004l-0.057,0.005l-0.057,0.005l-0.057,0.005l-0.057,0.005l-0.057,0.005l-0.058,0.005l-0.057,0.005
			l-0.057,0.006l-0.057,0.005l-0.057,0.006l-0.057,0.007l-0.057,0.006l-0.057,0.008l-0.057,0.007l-0.058,0.007l-0.057,0.007
			l-0.057,0.007l-0.057,0.008l-0.057,0.008l-0.057,0.008l-0.058,0.009l-0.057,0.008l-0.057,0.01l-0.057,0.009l-0.057,0.009
			l-0.057,0.01l-0.057,0.01l-0.057,0.01l-0.057,0.011l-0.057,0.01l-0.057,0.011l-0.057,0.012l-0.057,0.011l-0.057,0.012
			l-0.057,0.013l-0.058,0.012l-0.057,0.013l-0.057,0.013l-0.057,0.013l-0.057,0.014l-0.057,0.014l-0.058,0.014l-0.057,0.015
			l-0.057,0.015l-0.057,0.015l-0.057,0.016l-0.057,0.016l-0.057,0.016l-0.057,0.017l-0.057,0.017l-0.057,0.017l-0.057,0.018
			l-0.057,0.019c-0.02,0.005-0.039,0.012-0.057,0.018l-0.057,0.019c-0.019,0.006-0.038,0.012-0.057,0.019l-0.058,0.02l-0.057,0.02
			c-0.019,0.007-0.038,0.014-0.057,0.021c-0.02,0.007-0.039,0.014-0.057,0.021l-0.057,0.022c-0.019,0.007-0.038,0.015-0.057,0.021
			l-0.058,0.022l-0.057,0.022l-0.057,0.024L32.052,19.6l-0.057,0.024l-0.057,0.025l-0.057,0.025l-0.057,0.026l-0.056,0.026
			c-0.02,0.009-0.038,0.019-0.058,0.027l-0.057,0.027l-0.057,0.029l-0.057,0.029c-0.019,0.009-0.038,0.019-0.057,0.029
			c-0.019,0.01-0.038,0.02-0.057,0.03l-0.058,0.03l-0.057,0.032c-0.019,0.011-0.038,0.022-0.057,0.033
			c-0.02,0.011-0.039,0.022-0.057,0.033c-0.019,0.011-0.038,0.022-0.057,0.034c-0.019,0.012-0.038,0.023-0.057,0.035
			c-0.019,0.011-0.039,0.023-0.057,0.035c-0.02,0.012-0.039,0.024-0.058,0.036l-0.057,0.038c-0.02,0.013-0.038,0.025-0.057,0.038
			l-0.057,0.039c-0.019,0.014-0.038,0.027-0.057,0.041c-0.019,0.013-0.039,0.026-0.057,0.04c-0.019,0.015-0.038,0.028-0.057,0.042
			c-0.019,0.015-0.038,0.029-0.057,0.044c-0.02,0.014-0.038,0.029-0.058,0.044C30.498,20.505,30.479,20.521,30.46,20.536
			L30.46,20.536L30.46,20.536z"/>
	</g>
</g>
</svg>
