<?xml version="1.0" standalone="no"?>
<!DOCTYPE svg PUBLIC "-//W3C//DTD SVG 20010904//EN"
 "http://www.w3.org/TR/2001/REC-SVG-20010904/DTD/svg10.dtd">
<svg version="1.0" xmlns="http://www.w3.org/2000/svg"
 width="75.000000pt" height="26.000000pt" viewBox="0 0 75.000000 26.000000"
 preserveAspectRatio="xMidYMid meet">
<metadata>
Created by potrace 1.16, written by Peter Selinger 2001-2019
</metadata>
<g transform="translate(0.000000,26.000000) scale(0.100000,-0.100000)"
fill="#000000" stroke="none">
<path d="M0 130 l0 -130 45 0 45 0 1 53 1 52 17 -50 c17 -48 19 -50 58 -53
l40 -3 16 53 15 53 1 -52 1 -53 50 0 50 0 0 130 0 131 -67 -3 -68 -3 -20 -64
-21 -64 -13 54 c-7 30 -18 60 -24 67 -5 7 -33 12 -68 12 l-59 0 0 -130z"/>
<path d="M360 130 l0 -130 50 0 50 0 0 130 0 130 -50 0 -50 0 0 -130z"/>
<path d="M560 206 c0 -34 5 -56 13 -59 6 -3 -12 -6 -40 -6 l-53 -1 0 -70 0
-70 50 0 50 0 0 35 c0 44 12 44 39 0 19 -33 23 -35 76 -35 30 0 55 3 55 8 0 4
-9 18 -20 32 -25 32 -25 42 0 58 16 10 20 23 20 65 0 78 -23 97 -118 97 l-72
0 0 -54z"/>
</g>
</svg>
