<?xml version="1.0" encoding="iso-8859-1"?>
<!-- Generator: Adobe Illustrator 18.1.1, SVG Export Plug-In . SVG Version: 6.00 Build 0)  -->
<svg version="1.1" id="Header" xmlns="http://www.w3.org/2000/svg" xmlns:xlink="http://www.w3.org/1999/xlink" x="0px" y="0px"
	 viewBox="0 0 75 50" style="enable-background:new 0 0 75 50;" xml:space="preserve">
<g>
	<path style="fill-rule:evenodd;clip-rule:evenodd;fill:#F3B531;" d="M8.272,36.181c0.58-1.969,1.16-3.937,1.74-5.907
		c-0.013-0.011-0.027-0.022-0.04-0.033c-0.276,0.218-0.517,0.477-0.781,0.708c-0.266,0.232-0.52,0.477-0.779,0.716
		c-0.266,0.245-0.531,0.49-0.797,0.736c-0.259,0.24-0.518,0.48-0.777,0.719c-0.265,0.246-0.531,0.491-0.797,0.735
		c-0.259,0.237-0.52,0.471-0.78,0.707c-0.015-0.011-0.03-0.023-0.045-0.035c1.113-1.76,2.226-3.521,3.338-5.281
		c-0.011-0.013-0.022-0.025-0.033-0.038c-1.929,1.026-3.859,2.052-5.788,3.078c-0.011-0.015-0.021-0.029-0.032-0.043
		c1.575-1.44,3.15-2.88,4.724-4.32c-0.008-0.016-0.016-0.033-0.024-0.05c-2.139,0.53-4.278,1.059-6.417,1.589
		c-0.008-0.017-0.015-0.034-0.023-0.05c0.468-0.269,0.955-0.504,1.429-0.761c0.477-0.258,0.96-0.504,1.44-0.757
		c0.487-0.257,0.974-0.515,1.461-0.772c0.478-0.252,0.957-0.504,1.454-0.766c-0.078-0.064-0.148-0.044-0.21-0.044
		c-1.928,0.002-3.857,0.005-5.785,0.008c-0.221,0-0.444,0.048-0.669-0.059c2.131-0.519,4.261-1.038,6.392-1.557
		c0-0.018,0-0.036,0-0.054C4.316,24.124,2.158,23.597,0,23.071c0.002-0.013,0.003-0.025,0.005-0.038c2.235,0,4.469,0,6.705,0
		c-0.024-0.028,0.006,0.008,0.005-0.027c0-0.007-0.004-0.017-0.009-0.022c-0.012-0.012-0.025-0.023-0.039-0.032
		c-0.022-0.014-0.045-0.026-0.068-0.038c-1.858-0.979-3.715-1.959-5.573-2.938c-0.015-0.008-0.029-0.018-0.042-0.029
		c-0.006-0.005-0.008-0.014-0.035-0.065c2.171,0.538,4.311,1.067,6.452,1.597c0.008-0.016,0.016-0.033,0.024-0.049
		c-1.574-1.44-3.149-2.88-4.723-4.32c0.011-0.015,0.022-0.029,0.033-0.044c1.926,1.026,3.852,2.051,5.778,3.076
		c-0.504-0.918-1.072-1.791-1.626-2.673c-0.553-0.881-1.111-1.759-1.648-2.657c0.3,0.191,0.535,0.455,0.799,0.684
		c0.267,0.231,0.52,0.478,0.779,0.717c0.265,0.245,0.531,0.49,0.797,0.736c0.259,0.24,0.518,0.479,0.777,0.719
		c0.266,0.245,0.531,0.491,0.797,0.735c0.258,0.237,0.517,0.473,0.775,0.71c0.017-0.009,0.033-0.017,0.05-0.026
		c-0.583-1.981-1.166-3.962-1.749-5.942c0.014-0.007,0.028-0.015,0.043-0.022c1.118,1.784,2.235,3.567,3.353,5.351
		c0.019-0.005,0.038-0.01,0.057-0.015c-0.012-2.051,0.009-4.101-0.031-6.151c0.071-0.01,0.075,0.038,0.087,0.077
		c0.538,1.859,1.074,3.719,1.615,5.578c0.045,0.155,0.046,0.299,0.013,0.455c-0.223,1.061-0.388,2.131-0.501,3.209
		c-0.136,1.295-0.173,2.593-0.142,3.893c0.03,1.265,0.148,2.523,0.344,3.774c0.09,0.569,0.191,1.136,0.313,1.699
		c0.028,0.13,0.013,0.253-0.024,0.381c-0.437,1.503-0.871,3.008-1.306,4.512c-0.112,0.387-0.225,0.774-0.362,1.159
		c-0.059-0.402-0.006-0.803-0.014-1.203c-0.008-0.413-0.002-0.826-0.001-1.239c0.001-0.413,0.004-0.826,0.005-1.24
		c0.001-0.413,0-0.826,0-1.239c0-0.409,0-0.818,0-1.227c-0.017-0.006-0.034-0.012-0.051-0.018c-1.112,1.773-2.224,3.547-3.335,5.32
		C8.308,36.193,8.29,36.187,8.272,36.181z"/>
	<path style="fill-rule:evenodd;clip-rule:evenodd;fill:#324274;" d="M24.138,19.631c0.118-0.139,0.215-0.258,0.316-0.373
		c0.676-0.765,1.489-1.305,2.516-1.452c0.899-0.129,1.788-0.057,2.637,0.29c0.986,0.403,1.545,1.169,1.798,2.181
		c0.126,0.504,0.165,1.017,0.165,1.535c-0.002,3.047-0.001,6.094-0.001,9.141c0,0.034,0.001,0.069,0,0.103
		c-0.005,0.187-0.005,0.191-0.182,0.192c-0.456,0.002-0.912-0.003-1.369,0.003c-0.12,0.001-0.179-0.033-0.166-0.16
		c0.006-0.06,0.001-0.121,0.001-0.181c0-2.926-0.001-5.853,0.001-8.78c0-0.449-0.033-0.894-0.159-1.327
		c-0.324-1.112-1.105-1.714-2.289-1.779c-0.381-0.021-0.757,0.013-1.123,0.122c-0.907,0.27-1.5,0.877-1.844,1.742
		c-0.259,0.649-0.337,1.33-0.337,2.023c0.001,2.651,0.001,5.302,0.001,7.954c0,0.026,0,0.052,0,0.077
		c0,0.349,0.018,0.306-0.303,0.307c-0.413,0.001-0.826,0.002-1.239,0c-0.18-0.001-0.181-0.005-0.185-0.189
		c-0.001-0.043,0-0.086,0-0.129c0-4.2-0.001-8.401,0.001-12.601c0-0.343-0.058-0.322,0.312-0.322
		c0.413-0.001,0.826,0.004,1.239-0.002c0.134-0.002,0.181,0.045,0.179,0.179c-0.006,0.387-0.004,0.775-0.001,1.162
		C24.104,19.429,24.085,19.515,24.138,19.631z"/>
	<path style="fill-rule:evenodd;clip-rule:evenodd;fill:#324274;" d="M64.967,18.033c0.025,0.09-0.029,0.167-0.054,0.244
		c-1.372,4.245-2.746,8.49-4.12,12.735c-0.076,0.235-0.076,0.236-0.316,0.236c-0.508,0.001-1.016,0.001-1.524,0
		c-0.213,0-0.214-0.001-0.281-0.208c-0.788-2.429-1.575-4.857-2.362-7.287c-0.593-1.832-1.185-3.664-1.778-5.496
		c-0.023-0.071-0.044-0.143-0.062-0.204c0.066-0.066,0.13-0.046,0.187-0.047c0.473-0.002,0.947-0.001,1.42-0.001
		c0.241,0,0.242,0,0.315,0.237c0.402,1.307,0.802,2.613,1.204,3.92c0.7,2.276,1.401,4.552,2.102,6.828
		c0.025,0.08,0.034,0.167,0.094,0.234c0.088-0.053,0.083-0.15,0.107-0.228c1.11-3.544,2.215-7.089,3.325-10.633
		c0.134-0.427,0.031-0.35,0.482-0.356c0.344-0.004,0.689-0.002,1.033,0C64.814,18.008,64.892,17.986,64.967,18.033z"/>
	<path style="fill-rule:evenodd;clip-rule:evenodd;fill:#324274;" d="M45.334,24.315c0-1.549,0-3.098,0-4.647
		c0-0.388-0.001-0.389-0.376-0.389c-0.568,0-1.136,0-1.704,0c-0.243,0-0.232,0.022-0.233-0.242c0-0.258,0-0.516,0-0.775
		c0-0.264-0.025-0.257,0.247-0.257c0.585,0,1.17,0.001,1.756,0c0.339-0.001,0.31,0.031,0.31-0.3c0.001-0.749,0.001-1.497,0-2.246
		c0-0.297-0.003-0.259,0.27-0.26c0.421-0.001,0.843-0.002,1.265,0.001c0.18,0.001,0.184,0.005,0.185,0.188
		c0.002,0.775,0.001,1.549,0.001,2.323c0,0.06,0.002,0.121,0,0.181c-0.002,0.072,0.028,0.113,0.105,0.112
		c0.069-0.001,0.138,0.002,0.207,0.002c0.792,0,1.584-0.001,2.375,0.001c0.214,0,0.216,0.003,0.217,0.208
		c0.002,0.284,0.001,0.568,0,0.852c-0.001,0.21-0.003,0.213-0.209,0.213c-0.792,0.001-1.584,0-2.375,0c-0.06,0-0.121,0.004-0.181,0
		c-0.096-0.006-0.147,0.028-0.139,0.131c0.003,0.043,0,0.086,0,0.129c0.002,2.84,0.004,5.68,0.004,8.52
		c0,0.267,0.019,0.533,0.053,0.798c0.092,0.707,0.42,1.02,1.135,1.054c0.472,0.022,0.946,0.028,1.418-0.031
		c0.06-0.008,0.12-0.009,0.18-0.016c0.074-0.009,0.114,0.015,0.114,0.095c-0.001,0.387,0.002,0.775-0.002,1.162
		c-0.001,0.151-0.137,0.113-0.215,0.118c-0.583,0.04-1.168,0.085-1.753,0.054c-0.335-0.018-0.669-0.05-0.995-0.137
		c-0.37-0.099-0.715-0.245-1.002-0.509c-0.433-0.398-0.588-0.917-0.64-1.478c-0.016-0.18-0.017-0.361-0.017-0.542
		C45.334,27.19,45.334,25.752,45.334,24.315z"/>
	<path style="fill-rule:evenodd;clip-rule:evenodd;fill:#324274;" d="M17.823,8.95c-0.395,0.916-0.781,1.834-1.117,2.774
		c-0.815,2.281-1.412,4.617-1.788,7.01c-0.375,2.387-0.526,4.788-0.443,7.2c0.178,5.141,1.322,10.058,3.478,14.734
		c0.042,0.09,0.099,0.176,0.119,0.332c-0.345-0.504-0.631-0.982-0.907-1.466c-1.676-2.939-2.825-6.071-3.436-9.4
		c-0.371-2.02-0.542-4.057-0.491-6.109c0.135-5.395,1.589-10.407,4.41-15.015c0.036-0.058,0.077-0.113,0.115-0.17
		C17.855,8.838,17.855,8.886,17.823,8.95z"/>
	<path style="fill-rule:evenodd;clip-rule:evenodd;fill:#324274;" d="M53.261,24.623c0,2.117,0,4.234,0,6.351
		c0,0.315,0.022,0.278-0.274,0.279c-0.491,0.001-0.981-0.004-1.472,0.003c-0.136,0.002-0.19-0.043-0.174-0.177
		c0.005-0.042,0.001-0.086,0.001-0.129c0-4.217,0-8.434,0-12.651c0-0.052,0.003-0.103-0.001-0.155
		c-0.007-0.097,0.031-0.14,0.133-0.139c0.551,0.002,1.102,0.002,1.652-0.001c0.1-0.001,0.141,0.039,0.135,0.137
		c-0.004,0.06-0.001,0.12-0.001,0.181C53.261,20.423,53.261,22.523,53.261,24.623z"/>
	<path style="fill-rule:evenodd;clip-rule:evenodd;fill:#F3B632;" d="M74.415,35.341c-0.561-0.643-1.102-1.263-1.661-1.904
		c-0.111,0.274-0.114,0.541-0.17,0.796c-0.048,0.218-0.084,0.439-0.111,0.661c-0.017,0.139-0.075,0.186-0.215,0.189
		c-0.415,0.009-0.414,0.015-0.343-0.391c0.135-0.779,0.268-1.558,0.403-2.337c0.011-0.065,0.009-0.137,0.088-0.2
		c0.54,0.62,1.079,1.241,1.617,1.861c0.087-0.029,0.08-0.097,0.089-0.151c0.073-0.423,0.144-0.847,0.215-1.271
		c0.032-0.191,0.034-0.192,0.229-0.198c0.394-0.012,0.398-0.011,0.333,0.375c-0.139,0.822-0.281,1.643-0.423,2.465
		C74.463,35.26,74.445,35.281,74.415,35.341z"/>
	<path style="fill-rule:evenodd;clip-rule:evenodd;fill:#F3B632;" d="M55.336,33.421c-0.081,0.462-0.146,0.875-0.227,1.285
		c-0.086,0.437,0.023,0.369-0.464,0.373c-0.159,0.001-0.176-0.019-0.151-0.188c0.047-0.314,0.103-0.627,0.158-0.94
		c0.098-0.558,0.197-1.116,0.296-1.674c0.006-0.034,0.015-0.066,0.032-0.141c0.584,0.622,1.098,1.272,1.683,1.905
		c0.095-0.275,0.108-0.523,0.156-0.762c0.047-0.236,0.086-0.473,0.123-0.711c0.018-0.122,0.071-0.175,0.202-0.172
		c0.458,0.008,0.427-0.042,0.349,0.389c-0.147,0.803-0.279,1.608-0.418,2.411c-0.006,0.032-0.002,0.071-0.077,0.099
		C56.438,34.709,55.929,34.058,55.336,33.421z"/>
	<path style="fill-rule:evenodd;clip-rule:evenodd;fill:#324274;" d="M51.342,16.161c0-0.266,0.005-0.532-0.002-0.798
		c-0.003-0.119,0.032-0.167,0.159-0.165c0.532,0.006,1.064,0.005,1.596,0c0.116-0.001,0.17,0.025,0.168,0.155
		c-0.006,0.549-0.004,1.098-0.001,1.647c0,0.106-0.03,0.154-0.145,0.153c-0.54-0.004-1.081-0.006-1.622,0.001
		c-0.133,0.001-0.157-0.056-0.155-0.17C51.346,16.71,51.343,16.435,51.342,16.161z"/>
	<path style="fill-rule:evenodd;clip-rule:evenodd;fill:#F3B632;" d="M64.448,34.132c-0.033,0.203-0.067,0.388-0.092,0.573
		c-0.011,0.086-0.047,0.143-0.123,0.182c-0.491,0.251-0.994,0.327-1.51,0.082c-0.543-0.258-0.79-0.827-0.617-1.401
		c0.258-0.856,1.294-1.411,2.146-1.15c0.049,0.015,0.097,0.034,0.144,0.056c0.283,0.128,0.316,0.191,0.259,0.495
		c-0.02,0.109-0.042,0.217-0.065,0.337c-0.109,0.006-0.146-0.084-0.199-0.141c-0.254-0.276-0.563-0.348-0.915-0.249
		c-0.34,0.095-0.596,0.298-0.749,0.62c-0.124,0.261-0.12,0.52,0.049,0.758c0.17,0.239,0.419,0.32,0.701,0.298
		c0.274-0.021,0.51-0.143,0.725-0.309C64.271,34.231,64.322,34.156,64.448,34.132z"/>
	<path style="fill-rule:evenodd;clip-rule:evenodd;fill:#F3B632;" d="M66.82,32.424c-0.062,0.36-0.123,0.713-0.184,1.067
		c-0.078,0.457-0.153,0.915-0.234,1.371c-0.039,0.217-0.044,0.221-0.263,0.218c-0.31-0.006-0.387,0.092-0.299-0.367
		c0.136-0.708,0.252-1.42,0.366-2.132c0.023-0.14,0.074-0.197,0.213-0.183C66.546,32.409,66.676,32.378,66.82,32.424z"/>
	<path style="fill-rule:evenodd;clip-rule:evenodd;fill:#324274;" d="M17.823,8.95c-0.01-0.042-0.006-0.092-0.06-0.111
		c0.063-0.169,0.177-0.306,0.287-0.47C18.039,8.548,17.988,8.676,17.823,8.95z"/>
	<path style="fill-rule:evenodd;clip-rule:evenodd;fill:#324274;" d="M73.181,29.645c-0.111,0.13-0.217,0.264-0.333,0.39
		c-0.511,0.557-1.127,0.954-1.846,1.186c-1.037,0.335-2.091,0.399-3.154,0.144c-1.371-0.329-2.399-1.307-2.659-2.948
		c-0.11-0.695-0.089-1.388,0.088-2.073c0.24-0.932,0.784-1.632,1.616-2.111c0.596-0.343,1.245-0.535,1.915-0.667
		c0.761-0.15,1.533-0.207,2.306-0.247c0.584-0.03,1.169-0.048,1.753-0.072c0.254-0.01,0.256-0.011,0.256-0.264
		c-0.001-0.619,0.02-1.239-0.079-1.854c-0.03-0.188-0.074-0.371-0.134-0.55c-0.231-0.693-0.69-1.166-1.392-1.374
		c-0.889-0.263-1.785-0.266-2.665,0.038c-0.761,0.263-1.266,0.777-1.422,1.591c-0.01,0.05-0.017,0.102-0.022,0.153
		c-0.031,0.312-0.031,0.312-0.333,0.312c-0.439,0-0.878,0.001-1.317-0.001c-0.217-0.001-0.218-0.006-0.194-0.216
		c0.158-1.373,0.888-2.315,2.151-2.855c0.542-0.232,1.111-0.37,1.696-0.419c1.015-0.085,2.028-0.09,3.023,0.175
		c0.208,0.055,0.411,0.126,0.608,0.215c1.041,0.468,1.6,1.288,1.755,2.404c0.038,0.273,0.045,0.548,0.045,0.823
		c0.002,2.582,0.001,5.163,0.013,7.745c0.003,0.584,0.057,1.168,0.123,1.749c0.006,0.051,0.012,0.102,0.015,0.154
		c0.01,0.174,0.01,0.18-0.155,0.18c-0.482,0.003-0.964-0.003-1.446,0.004c-0.128,0.002-0.162-0.046-0.161-0.165
		c0.005-0.396,0.002-0.792,0.002-1.187c0-0.083,0-0.166,0-0.248C73.218,29.652,73.199,29.649,73.181,29.645z M73.124,25.921
		c0-0.413,0.002-0.826-0.001-1.239c-0.001-0.18-0.006-0.185-0.191-0.181c-0.963,0.019-1.927,0.018-2.884,0.149
		c-0.608,0.083-1.2,0.221-1.748,0.511c-0.625,0.332-1.053,0.827-1.229,1.517c-0.165,0.647-0.149,1.297,0.066,1.932
		c0.296,0.874,0.898,1.415,1.809,1.574c1.181,0.206,2.216-0.127,3.092-0.934c0.666-0.615,1.047-1.378,1.081-2.295
		c0.013-0.344,0.002-0.688,0.002-1.033C73.122,25.921,73.123,25.921,73.124,25.921z"/>
	<path style="fill-rule:evenodd;clip-rule:evenodd;fill:#324274;" d="M32.976,21.298c0.089-1.353,0.698-2.332,1.879-2.941
		c0.517-0.267,1.071-0.431,1.644-0.507c1.055-0.14,2.11-0.143,3.157,0.081c0.295,0.063,0.58,0.16,0.854,0.287
		c0.977,0.454,1.519,1.23,1.693,2.28c0.047,0.281,0.056,0.565,0.056,0.849c0,2.479-0.004,4.958,0.006,7.437
		c0.003,0.679,0.046,1.359,0.126,2.034c0.008,0.069,0.013,0.137,0.018,0.206c0.015,0.227,0.014,0.228-0.21,0.229
		c-0.439,0.001-0.878,0-1.317,0c-0.247,0-0.232,0.012-0.232-0.245c0-0.447,0-0.894,0-1.337c-0.063-0.034-0.084,0.007-0.11,0.04
		c-0.846,1.096-1.985,1.632-3.343,1.767c-0.657,0.065-1.307,0.051-1.947-0.116c-1.351-0.353-2.213-1.204-2.56-2.56
		c-0.204-0.798-0.198-1.601-0.007-2.401c0.237-0.996,0.821-1.727,1.714-2.215c0.658-0.36,1.371-0.548,2.104-0.669
		c0.859-0.141,1.726-0.192,2.595-0.219c0.413-0.013,0.825-0.033,1.238-0.054c0.201-0.01,0.208-0.016,0.207-0.206
		c-0.005-0.525,0.023-1.05-0.034-1.574c-0.024-0.223-0.058-0.443-0.111-0.66c-0.217-0.885-0.763-1.449-1.651-1.659
		c-0.757-0.18-1.518-0.175-2.272,0.03c-0.166,0.045-0.326,0.107-0.481,0.184c-0.727,0.36-1.113,0.948-1.173,1.753
		c-0.013,0.18-0.012,0.184-0.187,0.185C34.091,21.299,33.55,21.298,32.976,21.298z M40.542,24.755c0-0.273,0.017-0.261-0.246-0.254
		c-0.542,0.014-1.084,0.027-1.626,0.044c-0.525,0.017-1.047,0.066-1.564,0.161c-0.561,0.104-1.105,0.261-1.592,0.572
		c-0.523,0.335-0.875,0.796-1.026,1.401c-0.158,0.632-0.148,1.264,0.051,1.884c0.287,0.898,0.895,1.452,1.828,1.622
		c0.922,0.167,1.784-0.014,2.564-0.526c0.902-0.592,1.469-1.413,1.593-2.504c0.048-0.428,0.006-0.86,0.017-1.211
		C40.542,25.495,40.542,25.125,40.542,24.755z"/>
	<path style="fill-rule:evenodd;clip-rule:evenodd;fill:#F3B632;" d="M70.882,33.484c-0.003,0.511-0.193,0.847-0.494,1.126
		c-0.443,0.412-0.969,0.581-1.565,0.474c-0.808-0.145-1.219-0.945-0.881-1.692c0.346-0.766,1.262-1.201,2.059-0.979
		C70.546,32.565,70.889,33.016,70.882,33.484z M69.805,32.917c-0.53-0.158-1.176,0.18-1.348,0.706
		c-0.133,0.407,0.062,0.814,0.45,0.931c0.167,0.05,0.337,0.052,0.508,0.015c0.476-0.102,0.879-0.546,0.883-0.98
		C70.302,33.269,70.111,33.009,69.805,32.917z"/>
	<path style="fill-rule:evenodd;clip-rule:evenodd;fill:#F3B632;" d="M58.113,35.035c0.635-0.973,1.262-1.934,1.889-2.896
		c0.02,0.003,0.041,0.005,0.061,0.008c0.285,0.965,0.57,1.93,0.853,2.89c-0.048,0.023-0.063,0.035-0.079,0.037
		c-0.521,0.052-0.521,0.052-0.662-0.448c-0.064-0.228-0.064-0.229-0.293-0.231c-0.095-0.001-0.189,0.001-0.284,0
		c-0.495-0.005-0.372-0.051-0.632,0.336c-0.279,0.416-0.129,0.341-0.651,0.35C58.258,35.081,58.196,35.097,58.113,35.035z
		 M59.665,33.631c-0.038,0.071-0.146,0.135-0.087,0.222c0.051,0.074,0.16,0.03,0.242,0.033c0.097,0.003,0.143-0.036,0.11-0.143
		c-0.03-0.096-0.043-0.199-0.117-0.322C59.751,33.508,59.7,33.566,59.665,33.631z"/>
</g>
</svg>
