<svg enable-background="new 0 0 75 50" viewBox="0 0 75 50" xmlns="http://www.w3.org/2000/svg"><path d="m0 0h75v50h-75z" fill="#fff"/><g fill="#2a2a89"><path d="m41.578 20.04c.301-2.387-1.517-3.383-3.789-3.383-1.066 0-5.967 0-5.967 0l-3.522 12.838h3.791l1.066-3.958 3.021.019c.001-.001 4.679.197 5.4-5.516zm-3.899 1.274c-.493 1.376-1.853 1.214-1.853 1.214l-1.856.001.733-2.727s1.175.006 1.951.006c.95 0 1.295.755 1.025 1.506z"/><path d="m19.919 20.168h3.459l-1.424 5.479s-.355 1.222.788 1.316c.903.075 1.575-1.003 1.795-1.733.289-.958 1.413-5.063 1.413-5.063h3.563l-2.711 9.326h-3.11l.382-1.332s-1.587 1.935-3.945 1.703c-2.096-.206-2.277-1.726-1.913-3.622.176-.931 1.703-6.074 1.703-6.074z"/><path d="m49.989 24.894c.456-1.551 1.032-3.021.567-3.835-.71-1.246-1.993-1.356-3.87-1.356-2.074 0-4.634.394-5.468 3.151h3.453s.314-1.039 1.61-.973c1.147.058 1.085.847.661 1.283-.742.765-2.789.34-5.056 1.127-1.981.687-2.674 3.292-2.244 4.332.417 1.008 1.194 1.137 2.242 1.24 1.683.166 2.973-.773 3.574-1.324 0 .612.016.953.016.953h3.633l-.009-.342s-.323-.086-.288-.541c.028-.331.656-1.933 1.179-3.715zm-5.223 2.7c-.592.15-1.311.231-1.453-.306-.392-1.475 3.062-1.906 3.062-1.906.023 1.343-1.155 2.096-1.609 2.212z"/><path d="m19.059 19.646c.301-2.387-1.799-2.989-4.07-2.989-1.066 0-5.967 0-5.967 0l-3.522 12.837h3.791l1.184-4.359 2.127.017s.877-.051.895.773c.019.879-.652 2.493-.608 3.568h3.895l-.009-.342s-.323-.086-.288-.541c.015-.189.224-.788.497-1.596.165-.356.414-1.201.391-1.888-.029-.858-.567-1.257-1.344-1.536 2.422-.565 3.028-3.944 3.028-3.944zm-4.023 1.639c-.491 1.136-2.01 1.007-2.01 1.007l-1.77-.009.646-2.405s1.584.006 2.359.006c.832 0 1.092.668.775 1.401z"/><path d="m51.635 20.168h3.523v5.596l3.047-5.596h3.232l-6.517 11.313s-.605.949-1.356 1.452c-.617.413-1.375.394-1.606.41-1.288-.011-2.84-.015-2.84-.015l.749-2.697 1.213-.003s.555-.056.769-.33c.204-.26.308-.521.308-.904-.001-.572-.522-9.226-.522-9.226z"/></g><path d="m65.954 18.013-4.066 14.146 7.612-7.073z" fill="#0f8047"/><path d="m63.348 18.013-4.067 14.146 7.612-7.073z" fill="#f0721d"/></svg>