<?xml version="1.0" encoding="iso-8859-1"?>
<!-- Generator: Adobe Illustrator 18.1.1, SVG Export Plug-In . SVG Version: 6.00 Build 0)  -->
<svg version="1.1" id="Header" xmlns="http://www.w3.org/2000/svg" xmlns:xlink="http://www.w3.org/1999/xlink" x="0px" y="0px"
	 viewBox="0 0 75 50" style="enable-background:new 0 0 75 50;" xml:space="preserve">
<g>
	<g>
		<path style="fill:#F05A22;" d="M12.005,14.617v20.904c0,0-0.348,3.841,4.763,5.008c5.107,1.174,40.279,9.381,40.279,9.381
			s5.41,1.257,5.41-5.642c0-6.714,0-39.561,0-39.561s-0.417-6.189-7.499-4.374c-8.631,2.21-38.19,9.272-38.19,9.272
			S12.005,10.352,12.005,14.617z"/>
	</g>
	<g>
		<g>
			<path style="fill:#FFFFFF;" d="M14.3,20.411h2.538l3.923,7.7h0.025v-7.7h1.975v10.295h-2.518l-3.937-7.696h-0.031v7.696H14.3
				V20.411z"/>
			<path style="fill:#FFFFFF;" d="M24.16,23.509c0.77-0.352,1.803-0.576,2.641-0.576c2.316,0,3.276,0.96,3.276,3.2v0.975
				c0,0.768,0.014,1.341,0.027,1.902c0.016,0.576,0.047,1.105,0.092,1.696h-1.743c-0.073-0.395-0.073-0.899-0.089-1.134h-0.031
				c-0.453,0.841-1.446,1.312-2.343,1.312c-1.342,0-2.656-0.812-2.656-2.257c0-1.134,0.545-1.797,1.299-2.167
				c0.754-0.37,1.725-0.442,2.553-0.442h1.091c0-1.225-0.545-1.638-1.712-1.638c-0.839,0-1.68,0.326-2.344,0.83L24.16,23.509z
				 M26.475,29.438c0.605,0,1.08-0.268,1.388-0.678c0.326-0.427,0.415-0.975,0.415-1.562h-0.857c-0.884,0-2.198,0.145-2.198,1.308
				C25.224,29.158,25.771,29.438,26.475,29.438z"/>
			<path style="fill:#FFFFFF;" d="M30.865,23.114h1.752v1.721h0.033c0.085-0.707,0.895-1.902,2.076-1.902
				c0.192,0,0.399,0,0.609,0.058v1.993c-0.181-0.101-0.533-0.163-0.888-0.163c-1.609,0-1.609,2.007-1.609,3.098v2.787h-1.973V23.114
				z"/>
			<path style="fill:#FFFFFF;" d="M36,23.509c0.77-0.352,1.799-0.576,2.643-0.576c2.315,0,3.272,0.96,3.272,3.2v0.975
				c0,0.768,0.014,1.341,0.029,1.902c0.016,0.576,0.045,1.105,0.089,1.696h-1.739c-0.073-0.395-0.073-0.899-0.089-1.134h-0.029
				c-0.457,0.841-1.446,1.312-2.346,1.312c-1.341,0-2.654-0.812-2.654-2.257c0-1.134,0.545-1.797,1.297-2.167
				c0.752-0.37,1.727-0.442,2.553-0.442h1.091c0-1.225-0.545-1.638-1.71-1.638c-0.841,0-1.679,0.326-2.344,0.83L36,23.509z
				 M38.319,29.438c0.6,0,1.074-0.268,1.386-0.678c0.323-0.427,0.411-0.975,0.411-1.562h-0.857c-0.884,0-2.196,0.145-2.196,1.308
				C37.063,29.158,37.607,29.438,38.319,29.438z"/>
			<path style="fill:#FFFFFF;" d="M42.97,23.114h1.872v1.029h0.029c0.622-0.866,1.462-1.21,2.495-1.21
				c1.797,0,2.58,1.268,2.58,2.979v4.794h-1.979v-4.055c0-0.931-0.013-2.181-1.283-2.181c-1.428,0-1.741,1.547-1.741,2.522v3.714
				H42.97V23.114z"/>
			<path style="fill:#FFFFFF;" d="M54.786,23.509c0.77-0.352,1.803-0.576,2.64-0.576c2.317,0,3.276,0.96,3.276,3.2v0.975
				c0,0.768,0.013,1.341,0.029,1.902c0.013,0.576,0.045,1.105,0.089,1.696H59.08c-0.076-0.395-0.076-0.899-0.092-1.134h-0.031
				c-0.453,0.841-1.44,1.312-2.339,1.312c-1.344,0-2.656-0.812-2.656-2.257c0-1.134,0.545-1.797,1.297-2.167
				c0.754-0.37,1.727-0.442,2.553-0.442H58.9c0-1.225-0.544-1.638-1.708-1.638c-0.839,0-1.68,0.326-2.344,0.83L54.786,23.509z
				 M57.101,29.438c0.603,0,1.076-0.268,1.388-0.678c0.324-0.427,0.411-0.975,0.411-1.562h-0.852c-0.886,0-2.198,0.145-2.198,1.308
				C55.851,29.158,56.395,29.438,57.101,29.438z"/>
		</g>
		<path style="fill:#FFFFFF;" d="M49.93,33.311c1.064-0.062,1.21-0.268,1.21-1.449v-8.82h1.984v8.178c0,1.08-0.31,2.721-2.29,2.721
			c-0.326,0-0.73-0.043-0.98-0.116L49.93,33.311z"/>
	</g>
</g>
</svg>
