<?xml version="1.0" encoding="iso-8859-1"?>
<!-- Generator: Adobe Illustrator 18.1.1, SVG Export Plug-In . SVG Version: 6.00 Build 0)  -->
<svg version="1.1" id="Header" xmlns="http://www.w3.org/2000/svg" xmlns:xlink="http://www.w3.org/1999/xlink" x="0px" y="0px"
	 viewBox="0 0 75 50" style="enable-background:new 0 0 75 50;" xml:space="preserve">
<g>
	<rect y="4.94" style="fill:#095AA5;" width="75" height="41.059"/>
	<g>
		<path style="fill:#FFFFFF;" d="M51.397,31.341l-0.002,0.001l0,0v-0.001l-0.155-0.06L51.397,31.341v-0.165h-1.911l-0.043,0.101
			c-2.203,5.104-7.285,8.712-13.199,8.71c-5.926,0-11.009-3.588-13.207-8.71l-0.042-0.101H20.88l0.085,0.224
			c2.334,6.169,8.297,10.558,15.288,10.558c6.973,0,12.953-4.409,15.296-10.558l0.086-0.224h-0.239V31.341z"/>
		<path style="fill:#FFFFFF;" d="M49.594,15.844c0.208-0.379,0.327-0.815,0.327-1.278c0-1.479-1.199-2.677-2.677-2.677
			c-0.479,0-0.922,0.123-1.309,0.343c-2.688-1.951-5.998-3.112-9.572-3.112c-6.972,0-12.937,4.422-15.275,10.573l-0.085,0.222h2.1
			l0.043-0.101c2.187-5.133,7.274-8.726,13.209-8.726c3.109,0,5.989,0.993,8.34,2.671c-0.085,0.259-0.131,0.535-0.131,0.818
			c0,1.469,1.189,2.661,2.659,2.661c0.279,0,0.559-0.051,0.813-0.131c0.602,0.842,1.132,1.749,1.543,2.713l0.042,0.099h0.11V19.89
			v0.029l2.012-0.004l-0.083-0.222C51.15,18.327,50.444,17.011,49.594,15.844z"/>
		<path style="fill:#FFFFFF;" d="M7.399,24.042L7.399,24.042l0.003-0.001c0.199-0.199,0.421-0.346,0.668-0.444
			c0.251-0.102,0.501-0.148,0.759-0.148c0.259,0,0.511,0.046,0.76,0.148c0.247,0.098,0.469,0.245,0.669,0.444l0,0l0.632,0.614
			l1.226-1.246l-0.613-0.613c-0.368-0.369-0.792-0.646-1.265-0.825v0.001c-0.458-0.19-0.928-0.287-1.41-0.287
			c-0.48,0-0.957,0.097-1.426,0.287l0,0c-0.461,0.179-0.879,0.455-1.247,0.824v0.001C5.787,23.163,5.51,23.58,5.331,24.04
			c-0.179,0.46-0.269,0.938-0.267,1.429c-0.001,0.481,0.088,0.951,0.267,1.409c0.179,0.463,0.456,0.881,0.825,1.248
			c0.368,0.369,0.784,0.651,1.244,0.84l0.003,0.002h0.002c0.469,0.179,0.944,0.27,1.425,0.27c0.482,0,0.954-0.09,1.412-0.27h0.002
			c0.472-0.19,0.893-0.472,1.261-0.841l0.613-0.613l-1.226-1.249l-0.634,0.617h-0.002c-0.189,0.2-0.403,0.345-0.65,0.447
			c-0.25,0.098-0.506,0.148-0.776,0.148c-0.56-0.003-1.023-0.195-1.426-0.597c-0.202-0.198-0.347-0.422-0.447-0.668
			c-0.101-0.248-0.15-0.501-0.15-0.758c0-0.259,0.05-0.511,0.15-0.76C7.055,24.447,7.201,24.231,7.399,24.042z M6.272,22.91v0.002
			l-0.099-0.101L6.272,22.91z"/>
		<path style="fill:#FFFFFF;" d="M19.031,22.793c-0.368-0.368-0.791-0.645-1.265-0.826l0,0c-0.456-0.188-0.928-0.283-1.41-0.283
			c-0.482,0-0.957,0.095-1.426,0.284v-0.001c-0.461,0.182-0.877,0.458-1.247,0.826c-0.367,0.368-0.645,0.784-0.825,1.247
			c-0.179,0.455-0.269,0.93-0.269,1.411c0,0.483,0.09,0.959,0.269,1.426l0.002,0.002l-0.002-0.001
			c0.179,0.46,0.458,0.878,0.825,1.247c0.359,0.358,0.768,0.633,1.228,0.824c0.459,0.191,0.943,0.286,1.446,0.286
			c0.504,0,0.988-0.094,1.447-0.286c0.459-0.19,0.871-0.466,1.228-0.824l0.613-0.616L18.4,26.263l-0.115,0.119l0,0l-0.499,0.497
			c-0.322,0.321-0.688,0.511-1.116,0.582c-0.099,0.013-0.197,0.02-0.295,0.02c-0.234,0-0.459-0.04-0.68-0.122l3.951-3.951
			L19.031,22.793z M14.334,25.453c0.002-0.56,0.195-1.025,0.596-1.429l0,0c0.323-0.321,0.682-0.504,1.097-0.565
			c0.104-0.015,0.207-0.019,0.306-0.019c0.239,0,0.466,0.039,0.687,0.12c-0.128,0.126-0.283,0.275-0.469,0.454l-0.002,0.003v0.001
			c-0.27,0.267-0.554,0.552-0.853,0.852c-0.29,0.29-0.568,0.569-0.837,0.837c-0.163,0.164-0.296,0.298-0.407,0.409
			C14.372,25.901,14.334,25.681,14.334,25.453z M14.814,23.907l0.094,0.099l-0.096-0.098C14.813,23.907,14.813,23.908,14.814,23.907
			z M18.4,26.497L18.4,26.497L18.4,26.497L18.4,26.497L18.4,26.497l-0.099-0.1L18.4,26.497z"/>
		<path style="fill:#FFFFFF;" d="M21.882,25.452c0-0.279,0.05-0.536,0.149-0.771c0.109-0.251,0.253-0.465,0.429-0.64
			c0.191-0.191,0.402-0.333,0.64-0.431l0.001-0.002c0.248-0.11,0.509-0.163,0.788-0.163c0.277,0,0.539,0.054,0.786,0.163
			l0.003,0.002l0.001,0.001c0.248,0.099,0.458,0.239,0.634,0.428l0.003,0.002l0.003,0.001c0.186,0.179,0.328,0.388,0.427,0.635
			l0.002,0.005l0.002,0.003c0.107,0.235,0.16,0.489,0.16,0.767v3.784h1.761v-3.784c0.002-0.524-0.101-1.015-0.302-1.467l0,0
			c-0.191-0.457-0.459-0.854-0.807-1.189l0,0v-0.002c0,0,0,0-0.002-0.002l0,0c-0.347-0.346-0.752-0.617-1.21-0.805l0,0
			c-0.448-0.2-0.938-0.302-1.462-0.302c-0.515,0-1.005,0.102-1.463,0.302l0,0c-0.001,0-0.001,0-0.001,0h-0.002l0,0
			c-0.456,0.192-0.861,0.462-1.209,0.808c-0.336,0.337-0.605,0.734-0.807,1.189v0.004c-0.192,0.45-0.287,0.94-0.287,1.463h0.162l0,0
			l0,0h-0.162v3.786h1.761V25.452z"/>
		<path style="fill:#FFFFFF;" d="M28.207,25.468c0,0.483,0.088,0.95,0.269,1.409c0.178,0.462,0.456,0.88,0.824,1.249
			c0.368,0.367,0.783,0.648,1.244,0.837h0.002l0.003,0.003c0.468,0.179,0.945,0.267,1.425,0.267c0.482,0,0.954-0.09,1.412-0.267
			l0.002-0.003c0.471-0.188,0.892-0.471,1.26-0.837l0.616-0.616l-1.229-1.246l-0.632,0.616L33.4,26.882
			c-0.19,0.197-0.405,0.344-0.65,0.442c-0.251,0.098-0.506,0.15-0.776,0.15c-0.562-0.001-1.025-0.194-1.428-0.595
			c-0.2-0.199-0.348-0.421-0.447-0.669C30,25.961,29.95,25.707,29.95,25.452c0-0.259,0.05-0.511,0.149-0.762
			c0.099-0.242,0.245-0.459,0.443-0.649h0.002h0.002c0.2-0.203,0.421-0.35,0.668-0.448c0.251-0.101,0.503-0.148,0.76-0.148
			c0.258,0,0.509,0.047,0.76,0.148c0.247,0.099,0.468,0.245,0.669,0.448l0.632,0.612l1.226-1.247l-0.615-0.612
			c-0.367-0.368-0.789-0.644-1.258-0.825l0,0l0,0c-0.001,0-0.003-0.001-0.005-0.001l0,0c-0.458-0.189-0.93-0.286-1.41-0.283
			c-0.482,0-0.959,0.094-1.426,0.283l0,0c-0.001,0-0.001,0.001-0.001,0.001l0,0l0,0c-0.463,0.18-0.877,0.457-1.246,0.825l0,0
			c-0.368,0.367-0.647,0.784-0.824,1.247C28.295,24.496,28.207,24.974,28.207,25.468z M29.419,22.91L29.419,22.91L29.419,22.91
			h-0.002l-0.083-0.082L29.419,22.91z"/>
		<path style="fill:#FFFFFF;" d="M35.738,25.452c0,0.513,0.094,1.005,0.287,1.462l0.001,0.004c0.199,0.458,0.469,0.86,0.804,1.206
			l0.001,0.001l0.002,0.001c0.346,0.347,0.751,0.622,1.207,0.823h0.002h0.002c0.461,0.191,0.949,0.286,1.463,0.286
			c0.523,0,1.013-0.094,1.463-0.286h0.003c0.456-0.201,0.861-0.476,1.209-0.823c0.346-0.346,0.615-0.751,0.805-1.209l0,0l0,0
			c0-0.002,0.002-0.004,0.002-0.004l0,0c0.2-0.458,0.303-0.949,0.301-1.462c0.002-0.522-0.101-1.013-0.301-1.461l0,0
			c0-0.002,0-0.002-0.002-0.002v-0.004l0,0c-0.19-0.457-0.461-0.854-0.807-1.189h0.002c-0.347-0.347-0.751-0.616-1.209-0.805h0.002
			c-0.002,0-0.002-0.002-0.003-0.002l-0.001-0.002l0,0c-0.45-0.2-0.94-0.302-1.463-0.302c-0.514,0-1.004,0.101-1.463,0.302l0,0
			c0,0,0,0.002-0.002,0.002l0,0l0,0c-0.458,0.19-0.863,0.46-1.209,0.807c-0.336,0.337-0.607,0.734-0.807,1.192l-0.001,0.002
			C35.832,24.441,35.738,24.93,35.738,25.452h0.163l0,0H35.738z M37.319,25.452L37.319,25.452h-0.002l0,0H37.319h0.162
			c0-0.279,0.05-0.535,0.147-0.771c0.112-0.251,0.254-0.465,0.432-0.64l0,0c0.189-0.187,0.405-0.331,0.652-0.43l0.003-0.001
			l0.003-0.002c0.247-0.11,0.508-0.163,0.786-0.163c0.28,0,0.539,0.054,0.786,0.163l0.002,0.003h0.003
			c0.25,0.099,0.456,0.239,0.634,0.428l0.003,0.002l0.005,0.004c0.184,0.176,0.327,0.386,0.426,0.633l0.002,0.003l0.001,0.004
			c0.107,0.235,0.162,0.489,0.162,0.767c0,0.281-0.054,0.54-0.163,0.788v0.001l-0.002,0.003c-0.099,0.247-0.243,0.464-0.431,0.653
			c-0.178,0.177-0.387,0.319-0.639,0.43c-0.246,0.099-0.509,0.15-0.789,0.15c-0.282,0-0.543-0.05-0.791-0.15l0,0
			c-0.248-0.111-0.466-0.253-0.653-0.43c-0.178-0.189-0.32-0.406-0.431-0.656c-0.099-0.248-0.149-0.507-0.149-0.789H37.319
			L37.319,25.452z"/>
		<polygon style="fill:#FFFFFF;" points="36.024,23.989 36.024,23.989 36.026,23.988 		"/>
		<path style="fill:#FFFFFF;" d="M44.001,23.099l-0.002,0.002v0.002c-0.115,0.279-0.171,0.577-0.171,0.9
			c0,0.319,0.056,0.625,0.171,0.912l0.002,0.005l0.001,0.003c0.125,0.272,0.291,0.518,0.496,0.736l0.002,0.001l0.001,0.003
			c0.208,0.207,0.45,0.374,0.722,0.499l0.005,0.002h0.003c0.29,0.116,0.596,0.174,0.914,0.174h2.896
			c0.179,0.002,0.304,0.052,0.415,0.161c0.11,0.111,0.16,0.234,0.162,0.399c-0.002,0.179-0.053,0.303-0.162,0.412
			c-0.11,0.111-0.234,0.162-0.415,0.163h-4.508v1.76h4.508c0.32,0,0.623-0.058,0.9-0.173l0.003-0.002l0,0
			c0.285-0.123,0.535-0.293,0.741-0.499c0.219-0.218,0.386-0.468,0.503-0.745l0,0c0.127-0.288,0.19-0.596,0.19-0.917
			c0-0.319-0.064-0.621-0.189-0.898l0,0c-0.002-0.002-0.002-0.004-0.003-0.006c0,0,0,0,0-0.002l0,0
			c-0.115-0.285-0.282-0.531-0.501-0.738l0,0c-0.205-0.207-0.455-0.37-0.738-0.483V24.77c-0.002,0-0.003,0-0.005,0
			c-0.002-0.002-0.003-0.002-0.003-0.004v0.002c-0.277-0.126-0.579-0.19-0.898-0.189h-2.896c-0.163-0.002-0.283-0.051-0.395-0.159
			c-0.112-0.123-0.162-0.252-0.162-0.417c0.002-0.167,0.05-0.287,0.159-0.399c0.114-0.11,0.234-0.159,0.399-0.159h4.524v-1.763
			h-0.163v0.163l0,0l0,0v-0.163h-4.361c-0.32,0-0.629,0.064-0.919,0.191l0,0c-0.274,0.115-0.517,0.278-0.725,0.483
			C44.296,22.565,44.128,22.813,44.001,23.099z"/>
		<path style="fill:#FFFFFF;" d="M59.302,21.85L59.302,21.85v-0.166h-1.596v3.769c0,0.28-0.054,0.539-0.162,0.787l-0.002,0.002
			l-0.002,0.004c-0.099,0.246-0.242,0.462-0.429,0.651c-0.178,0.177-0.389,0.319-0.64,0.431c-0.247,0.098-0.509,0.148-0.789,0.148
			s-0.543-0.05-0.789-0.148c-0.239-0.113-0.45-0.255-0.639-0.431c-0.178-0.189-0.322-0.406-0.431-0.655
			c-0.099-0.249-0.149-0.509-0.149-0.789v-3.769h-1.761v3.769c0,0.511,0.096,1.003,0.288,1.461v0.004l0.002,0.002
			c0.2,0.455,0.467,0.858,0.804,1.205l0.002,0.001l0.002,0.002c0.346,0.346,0.749,0.62,1.207,0.821h0.002h0.001
			c0.459,0.192,0.948,0.288,1.462,0.288c0.525,0,1.015-0.096,1.465-0.288h0.002c0.458-0.201,0.863-0.476,1.209-0.821
			c0.347-0.347,0.616-0.752,0.805-1.208h0.002c0,0,0,0,0-0.002c0,0,0,0,0-0.002l0,0c0.202-0.46,0.302-0.952,0.302-1.463v-3.769
			h-0.165V21.85z"/>
		<path style="fill:#FFFFFF;" d="M67.559,18.786h-0.163l0,0H65.8v2.896h-2.007c-0.514,0-1.004,0.101-1.463,0.303l0,0
			c-0.459,0.189-0.863,0.456-1.21,0.805l0,0l0,0c0,0.001-0.002,0.001-0.002,0.002l0,0c-0.346,0.336-0.621,0.735-0.821,1.193
			l-0.003,0.002l0.002-0.002c-0.192,0.452-0.287,0.94-0.287,1.465c0,0.514,0.094,1.001,0.285,1.462l0.002,0.001l0.002,0.002
			c0.2,0.458,0.475,0.863,0.821,1.21c0.347,0.347,0.751,0.62,1.209,0.821h0.002l0.001,0.002c0.459,0.189,0.949,0.284,1.463,0.284
			c0.512,0,1.002-0.095,1.462-0.284l0.003-0.002c0.458-0.201,0.856-0.475,1.193-0.821l0,0c0.347-0.35,0.618-0.754,0.807-1.213l0,0
			c0.202-0.459,0.303-0.947,0.303-1.462V18.786z M63.003,27.328c-0.248-0.11-0.464-0.254-0.653-0.431
			c-0.178-0.189-0.32-0.403-0.431-0.651l0,0c-0.099-0.249-0.149-0.512-0.149-0.793c0-0.279,0.05-0.534,0.149-0.772
			c0.11-0.251,0.251-0.463,0.431-0.641c0.189-0.187,0.405-0.331,0.652-0.428l0.003-0.002l0.002-0.001
			c0.25-0.109,0.508-0.161,0.789-0.161h2.007v2.005c-0.002,0.28-0.054,0.539-0.165,0.788l-0.002,0.003v0.002
			c-0.099,0.246-0.242,0.463-0.431,0.651c-0.176,0.177-0.389,0.32-0.637,0.431l0,0c-0.237,0.097-0.493,0.148-0.773,0.148v0.163
			h-0.002v-0.163C63.514,27.477,63.253,27.425,63.003,27.328z"/>
	</g>
	<path style="fill:#FF690A;" d="M45.871,14.544c0-0.756,0.613-1.371,1.372-1.371c0.76,0,1.374,0.615,1.374,1.371
		c0,0.757-0.613,1.372-1.374,1.372C46.484,15.916,45.871,15.301,45.871,14.544"/>
</g>
</svg>
