<?xml version="1.0" standalone="no"?>
<!DOCTYPE svg PUBLIC "-//W3C//DTD SVG 20010904//EN"
 "http://www.w3.org/TR/2001/REC-SVG-20010904/DTD/svg10.dtd">
<svg version="1.0" xmlns="http://www.w3.org/2000/svg"
 width="77.000000pt" height="40.000000pt" viewBox="0 0 77.000000 40.000000"
 preserveAspectRatio="xMidYMid meet">
<metadata>
Created by potrace 1.15, written by Peter Selinger 2001-2017
</metadata>
<g transform="translate(0.000000,40.000000) scale(0.100000,-0.100000)"
fill="#000000" stroke="none">
<path d="M613 273 c-22 -4 -23 -9 -23 -89 0 -76 2 -85 18 -82 9 2 18 13 20 25
2 15 13 24 33 28 41 9 65 48 51 81 -10 21 -51 46 -70 43 -4 -1 -17 -4 -29 -6z"/>
<path d="M50 218 c0 -92 37 -128 113 -114 l37 7 0 79 c0 73 -2 80 -20 80 -18
0 -20 -7 -20 -66 l0 -65 -27 3 c-27 3 -28 6 -31 66 -3 58 -4 62 -27 62 -23 0
-25 -3 -25 -52z"/>
</g>
</svg>
