<?xml version="1.0" encoding="utf-8"?>
<svg viewBox="96.045 77.3 70 44" xmlns="http://www.w3.org/2000/svg">
  <g transform="matrix(0.302552, 0, 0, 0.302552, -384.758048, -197.242536)">
    <path d="M 1677.004 944.098 L 1646.713 1016.368 L 1626.951 1016.368 L 1612.046 958.693 C 1611.141 955.14 1610.354 953.838 1607.601 952.342 C 1603.106 949.904 1595.687 947.617 1589.158 946.198 L 1589.602 944.098 L 1621.412 944.098 C 1625.468 944.098 1629.113 946.796 1630.034 951.466 L 1637.906 993.287 L 1657.362 944.097 L 1677.004 944.097 L 1677.004 944.098 Z M 1754.435 992.772 C 1754.515 973.698 1728.059 972.647 1728.242 964.126 C 1728.298 961.533 1730.767 958.777 1736.172 958.073 C 1738.85 957.722 1746.232 957.454 1754.602 961.307 L 1757.886 945.981 C 1753.387 944.349 1747.6 942.777 1740.399 942.777 C 1721.921 942.777 1708.917 952.6 1708.806 966.666 C 1708.687 977.071 1718.089 982.878 1725.171 986.335 C 1732.458 989.874 1734.904 992.149 1734.876 995.315 C 1734.823 1000.164 1729.063 1002.303 1723.681 1002.389 C 1714.284 1002.533 1708.832 999.846 1704.485 997.825 L 1701.096 1013.657 C 1705.466 1015.662 1713.526 1017.409 1721.887 1017.498 C 1741.527 1017.498 1754.375 1007.796 1754.435 992.772 Z M 1803.232 1016.368 L 1820.522 1016.368 L 1805.429 944.098 L 1789.47 944.098 C 1785.881 944.098 1782.854 946.187 1781.513 949.4 L 1753.459 1016.368 L 1773.093 1016.368 L 1776.988 1005.573 L 1800.974 1005.573 L 1803.232 1016.368 Z M 1782.372 990.761 L 1792.212 963.626 L 1797.875 990.761 L 1782.372 990.761 Z M 1703.715 944.098 L 1688.257 1016.368 L 1669.561 1016.368 L 1685.026 944.098 L 1703.715 944.098 Z" fill-rule="nonzero" style="fill: rgb(255, 255, 255);" stroke="none"/>
  </g>
</svg>
