<svg id="assets" xmlns="http://www.w3.org/2000/svg" viewBox="0 0 428.15 376.27">
  <g>
    <g>
      <path d="M428.15,187a16.34,16.34,0,0,0-2.18-8L326.07,8.08a15.57,15.57,0,0,0-4.4-4.82,13.59,13.59,0,0,0-3.32-1.88q-.71-.3-1.47-.54a15.75,15.75,0,0,0-4.8-.72L114.13,1.19a16.19,16.19,0,0,0-8.08,2.26L106,3.36a16.83,16.83,0,0,0-5.76,5.83l-98,172a15.8,15.8,0,0,0-2,6h0v0l-.13.11a22.49,22.49,0,0,0,0,4,15.88,15.88,0,0,0,2,6l100,170.93a16.09,16.09,0,0,0,5.83,5.76h0a16.26,16.26,0,0,0,8.17,2.2l198-1.07a16.46,16.46,0,0,0,6.07-1.27l.19.05a14.83,14.83,0,0,0,3.3-1.91l0-.15a17.28,17.28,0,0,0,4.32-4.84l98-172a16.39,16.39,0,0,0,2.09-8.05Z" fill="#f9ce32"/>
      <polygon points="140.86 302.11 139.63 75.07 341.62 187.5 140.86 302.11" fill="#f8c715"/>
      <polygon points="334.67 191.47 341.62 187.5 136.67 72.11 140.86 302.11 150.86 296.4 155.59 101.13 334.67 191.47" fill="#ed811c"/>
      <polygon points="150.86 296.4 155.59 101.13 334.67 191.47 313.25 203.69 166.92 130.63 163.28 289.28 150.86 296.4" fill="#e4b012" opacity="0.8"/>
      <g opacity="0.4">
        <g>
          <path d="M354.05,56,326,8a15.49,15.49,0,0,0-4.4-4.83,13.06,13.06,0,0,0-3.32-1.87,14.15,14.15,0,0,0-1.46-.55A15.86,15.86,0,0,0,312,0l-6.62,0L193.23,104l69.11,38.91Z" fill="#faeb9a"/>
          <polygon points="34.74 253.1 73.1 318.65 140.02 256.07 138.1 150.76 34.74 253.1" fill="#faeb9a"/>
        </g>
        <g>
          <path d="M140.44,278.74l-58.62,54.8,20.27,34.65a16.17,16.17,0,0,0,5.83,5.76h0a17.79,17.79,0,0,0,3.17,1.38L243.75,255.18,140.86,311.31Z" fill="#faeb9a"/>
          <polygon points="388.89 115.57 362.76 70.86 276.38 150.76 323.02 177.16 388.89 115.57" fill="#faeb9a"/>
        </g>
      </g>
      <path d="M426,179a16.34,16.34,0,0,1,2.18,8h0a16.39,16.39,0,0,1-2.09,8.05l-98,172a17.28,17.28,0,0,1-4.32,4.84l0,.15a14.83,14.83,0,0,1-3.3,1.91l-.19-.05a16.46,16.46,0,0,1-6.07,1.27l-198,1.07a16.26,16.26,0,0,1-8.17-2.2,16.09,16.09,0,0,1-5.83-5.76l-3.8-6.51a17.46,17.46,0,0,0,2.89,2.17,16.39,16.39,0,0,0,8.17,2.2l195-2.55a16.76,16.76,0,0,0,6.08-1.27l.18,0a15.23,15.23,0,0,0,3.3-1.91l0-.15a17.39,17.39,0,0,0,4.31-4.84L419.33,185a16.42,16.42,0,0,0,2.08-8.06h0c0-2.72-.3-6.22-1.73-8.7Z" fill="#ed811c"/>
    </g>
    <path d="M113.07,18.58a18.15,18.15,0,0,1,6.16-6.22l.07.09A17.35,17.35,0,0,1,127.93,10L326.58,9l-.51-.88a15.57,15.57,0,0,0-4.4-4.82,13.59,13.59,0,0,0-3.32-1.88q-.71-.3-1.47-.54a15.75,15.75,0,0,0-4.8-.72L114.13,1.19a16.19,16.19,0,0,0-8.08,2.26L106,3.36a16.83,16.83,0,0,0-5.76,5.83l-98,172a15.8,15.8,0,0,0-2,6h0v0l-.13.11a22.49,22.49,0,0,0,0,4,15.88,15.88,0,0,0,2,6l4.77,8.16a17.71,17.71,0,0,1,1.41-3.19Z" fill="#fdf9ba"/>
    <polygon points="354.52 195.02 140.86 311.31 140.82 302.11 341.58 187.5 354.52 195.02" fill="#fdf9ae"/>
  </g>
</svg>
