<svg id="Layer_1" data-name="Layer 1" xmlns="http://www.w3.org/2000/svg" viewBox="0 0 1000 1000"><defs><style>.cls-1{fill:#89c763;}.cls-2{fill:#ffcb5b;}.cls-3{fill:#d5e3ef;}.cls-4{fill:#0b3a5b;}</style></defs><title>Coin Payments</title><circle class="cls-1" cx="501.7" cy="295.89" r="254.2"/><circle class="cls-2" cx="296.11" cy="701.87" r="254.2"/><circle class="cls-3" cx="703.57" cy="638.8" r="254.2"/><polygon class="cls-4" points="703.89 502.34 793.45 616.47 703.89 661.24 614.44 615.29 703.89 502.34"/><polygon class="cls-4" points="614.44 639.97 703.89 684.64 793.45 639.97 703.89 774.2 614.44 639.97"/><path class="cls-4" d="M704,457.56A179.38,179.38,0,1,1,577,510.1a178.39,178.39,0,0,1,127-52.54m0-24.46c-112.74,0-204,91.26-204,203.89s91.26,204,204,204A203.91,203.91,0,0,0,908,637c-.11-112.63-91.37-203.89-204-203.89Z"/><path class="cls-4" d="M220.7,774.94h-5.64a20.74,20.74,0,0,0,0,41.48H264.2a20.81,20.81,0,0,0,20.63,20.74h0a20.81,20.81,0,0,0,20.74-20.63H336.1c7.76,0,28.72-1.49,45-16.59C389.6,792.07,399.7,777.49,400,753c.53-28-10.85-44-20.42-52.65a63.09,63.09,0,0,0-12.87-8.82c5.74-10,9.36-22.45,8.93-37.66-1.27-45.09-37.33-61.26-56.26-63.6a19,19,0,0,0-2.45-.11H305.79v-3.4a20.74,20.74,0,0,0-41.48,0v3.4H215.06a20.74,20.74,0,0,0,0,41.48h5.64V774.94Zm94.45-143.58a28.61,28.61,0,0,1,10.1,4.46c6,4.15,8.83,10.21,9,19,.53,18.08-11.06,25.42-16.59,28H262.18V631.36Zm38.18,137.52c-5.21,4.89-14,5.74-17.23,5.74H262.18V724.31h59.24a27.45,27.45,0,0,0,3.09-.21c6.16-.42,19.88.32,27.54,7.23,1.7,1.6,7,6.39,6.81,20.74C358.75,759.73,357,765.58,353.33,768.88Z"/><path class="cls-4" d="M792.07,354.29a300,300,0,0,0,5.74-58.18C797.81,132.63,665.18,0,501.7,0s-296,132.53-296,296a295.21,295.21,0,0,0,23.93,116.89C98.06,443.1,0,560.84,0,701.55,0,865,132.53,997.66,296.11,997.66c97,0,183-46.69,237.07-118.7A294.93,294.93,0,0,0,704,933.21c163.48,0,296-132.53,296-296.11C1000,504.25,912.47,391.83,792.07,354.29ZM275.9,200.81A243.13,243.13,0,0,1,328.44,123,246,246,0,0,1,406.3,70.41,244.51,244.51,0,0,1,674.75,123a246.15,246.15,0,0,1,52.54,77.86A246.12,246.12,0,0,1,742,343.44,300.8,300.8,0,0,0,703.79,341H701a203.36,203.36,0,0,0,4.47-42.86c0-112.64-91.26-204-204-204s-204,91.26-204,204a202.61,202.61,0,0,0,31.7,109.23,288.18,288.18,0,0,0-33.4-1.91c-4.47,0-9,.1-13.51.31a245.92,245.92,0,0,1-25.85-109.65A249.07,249.07,0,0,1,275.9,200.81ZM563.28,284a62.1,62.1,0,0,0-27.65-10.74,13.76,13.76,0,0,0-2.13-.11H468.3a18.65,18.65,0,0,1-7.55-3.61c-1.7-1.39-7.12-5.64-7.12-19.36s5.85-18.4,7.76-19.89a23.05,23.05,0,0,1,8.4-4.15h73.82a21.81,21.81,0,0,0,0-43.61H521.8v-2.23a21.8,21.8,0,1,0-43.6,0v2.23H467.56a20,20,0,0,0-2.66.22c-19,2.34-54.88,19.57-54.88,67.54,0,24,9.47,43.82,26.7,55.84a61.46,61.46,0,0,0,27.65,10.63,13.76,13.76,0,0,0,2.13.11h65.41a22.48,22.48,0,0,1,6.49,3c2,1.38,8,5.63,8,20.2,0,9.47-2.55,16.06-7.76,20.21a22.72,22.72,0,0,1-8.4,4.15H456.39a21.81,21.81,0,0,0,0,43.61h21.27v5a21.74,21.74,0,0,0,12.24,19.57,308.89,308.89,0,0,0-23,27.12,294.69,294.69,0,0,0-102.85-46.37,179.32,179.32,0,1,1,311.64-71.05,294.44,294.44,0,0,0-89.66,23.08A79.74,79.74,0,0,0,590,340C589.87,309.08,575.52,292.49,563.28,284ZM452.67,793.66A179.43,179.43,0,1,1,416.08,568a297.61,297.61,0,0,0,36.59,225.7Zm16.59,81.15A244.85,244.85,0,1,1,391.41,476,248.72,248.72,0,0,1,439.8,503.3a286.12,286.12,0,0,0-16.38,39A203.2,203.2,0,0,0,297.81,499c-112.64,0-204,91.26-204,204A204,204,0,0,0,467.88,815.78a309.79,309.79,0,0,0,26.27,30.32A263.14,263.14,0,0,1,469.26,874.81Zm407.89-64.56A243.88,243.88,0,1,1,929.7,732.4,244.21,244.21,0,0,1,877.15,810.25Z"/></svg>