<svg id="Layer_1" data-name="Layer 1" xmlns="http://www.w3.org/2000/svg" viewBox="0 0 1381.72 1000.21">
  <path d="M960.82,305.49h0C853.23,51.06,559.76-68,305.34,39.63A500.16,500.16,0,0,0,39.52,305.39c-107.4,254.38,11.61,547.67,265.9,655.3,254.38,107.39,547.68-11.61,655.3-265.9A501.08,501.08,0,0,0,960.82,305.49Zm-657.2,161.3c2.1-57.8,9.8-113.2,22.4-163.8H461v163.8ZM461,539.19v158H326c-12.2-48.9-19.7-102.3-22.2-158Zm-93.6-350.8c19.2-38.2,41.1-67.8,65.1-87.9a132.84,132.84,0,0,1,28.4-18.6v148.6H348.82C354.52,215.79,360.72,201.69,367.42,188.39Zm-169.6,9.4a426,426,0,0,1,133.3-90.5,431.24,431.24,0,0,0-28.3,48.6,573.72,573.72,0,0,0-30.9,74.7H168.22A436,436,0,0,1,197.82,197.79Zm-91.7,135.9c4.5-10.5,9.3-20.7,14.5-30.7h131c-11.6,51.4-18.5,106.7-20.5,163.8H73.82A422.14,422.14,0,0,1,106.12,333.69Zm14.5,363.5c-5.2-10-10-20.2-14.5-30.7a425.38,425.38,0,0,1-31.8-127.3h157a882.2,882.2,0,0,0,20.3,158Zm77.1,105.3a440,440,0,0,1-29.6-32.8h103.7a596.1,596.1,0,0,0,30.9,74.7A449.45,449.45,0,0,0,331,893,427.37,427.37,0,0,1,197.72,802.49Zm263.4,115.9a138.62,138.62,0,0,1-28.4-18.6c-24.1-20.3-46-49.9-65.2-88-6.7-13.3-12.9-27.4-18.6-42.1h112.2Zm341.4-720.7a431.72,431.72,0,0,1,29.6,32.8H728.42a594,594,0,0,0-30.9-74.7,445.22,445.22,0,0,0-28.3-48.6A427.2,427.2,0,0,1,802.52,197.69ZM533.42,79.29a129.17,129.17,0,0,1,34.2,21.2c24,20.2,45.9,49.8,65.1,87.9h0c6.7,13.3,12.9,27.4,18.6,42.1H533.42Zm0,223.7h140.7c12.6,50.6,20.3,106,22.4,163.8H533.42Zm0,236.2h162.9c-2.4,55.7-9.9,109.1-22.2,158H533.42Zm99.3,272.6c-19.2,38.2-41.1,67.8-65.1,87.9a128.08,128.08,0,0,1-34.2,21.2V769.69h117.9C645.62,784.39,639.42,798.49,632.72,811.79Zm169.6-9.4A426.06,426.06,0,0,1,669,892.89a417.67,417.67,0,0,0,28.4-48.6h0a574.87,574.87,0,0,0,30.9-74.7h103.6A435.58,435.58,0,0,1,802.32,802.39Zm91.8-135.9c-4.5,10.5-9.3,20.7-14.5,30.7h-131a882.2,882.2,0,0,0,20.3-158h157A425.08,425.08,0,0,1,894.12,666.49Zm-125-199.7c-2-57.1-8.9-112.3-20.5-163.8h131c5.2,10,10,20.2,14.5,30.7a422.14,422.14,0,0,1,32.3,133.1Z" fill="#007cd3"/>
  <circle cx="1020.02" cy="638.39" r="361.7" fill="#0ab40b"/>
  <path id="SVGID" d="M1003.92,809.09a33,33,0,0,1-46.5,0l-150.2-150.2a33,33,0,0,1,0-46.5l32.2-32.2a33,33,0,0,1,46.5,0l94.7,94.8,173.5-173.5a33,33,0,0,1,46.5,0l32.2,32.2a33,33,0,0,1,0,46.5Z" fill="#fff"/>
</svg>
